{
.appVersion = "3112";
.formatVersion = 3;
customParameters = (
{
name = panose;
value = (
0,
0,
7,
0,
0,
0,
0,
0,
0,
0
);
},
{
name = unicodeRanges;
value = (
0,
1,
2,
3,
4,
5,
6,
29,
31,
36,
42,
79,
86
);
},
{
name = codePageRanges;
value = (
"1252",
"1250",
"1254",
"1257"
);
},
{
name = fsType;
value = (
);
},
{
name = glyphOrder;
value = (
.notdef,
space,
A,
Aacute,
Abreve,
Acircumflex,
Adieresis,
Agrave,
Amacron,
Aogonek,
Aring,
Aringacute,
Atilde,
AE,
AEacute,
uni01E2,
B,
C,
Cacute,
Ccaron,
Ccedilla,
Ccircumflex,
Cdotaccent,
D,
Eth,
Dcaron,
Dcroat,
E,
Eacute,
Ebreve,
Ecaron,
Ecircumflex,
Edieresis,
Edotaccent,
Egrave,
Emacron,
Eogonek,
F,
G,
Gbreve,
Gcaron,
Gcircumflex,
uni0122,
Gdotaccent,
uni021C,
H,
Hbar,
Hcircumflex,
I,
IJ,
Iacute,
Ibreve,
Icircumflex,
Idieresis,
Idotaccent,
Igrave,
Imacron,
Iogonek,
Itilde,
J,
Jcircumflex,
K,
uni0136,
L,
Lacute,
Lcaron,
uni013B,
Ldot,
Lslash,
M,
N,
Nacute,
Ncaron,
uni0145,
Eng,
Ntilde,
O,
Oacute,
Obreve,
Ocircumflex,
Odieresis,
Ograve,
Ohungarumlaut,
Omacron,
uni01EA,
Oslash,
Oslashacute,
Otilde,
OE,
P,
Thorn,
Q,
R,
Racute,
Rcaron,
uni0156,
S,
Sacute,
Scaron,
Scedilla,
Scircumflex,
uni0218,
uni1E9E,
T,
Tcaron,
uni0162,
U,
Uacute,
Ubreve,
Ucircumflex,
Udieresis,
Ugrave,
Uhungarumlaut,
Umacron,
Uogonek,
Uring,
Utilde,
V,
W,
Wcircumflex,
X,
Y,
Yacute,
Ycircumflex,
Ydieresis,
Z,
Zacute,
Zcaron,
Zdotaccent,
uni0186,
uni0190,
uni019D,
uni01C4,
uni01C5,
uni01C7,
uni01C8,
uni01CA,
uni01CB,
uni01CD,
uni01CF,
uni01D1,
uni01D3,
uni01D5,
uni01D7,
uni01D9,
uni01DB,
uni01DE,
uni01E0,
uni01E4,
uni01E8,
uni01EC,
uni01F1,
uni01F2,
uni01F4,
uni01F6,
uni01F7,
uni01F8,
uni0200,
uni0202,
uni0204,
uni0206,
uni0208,
uni020A,
uni020C,
uni020E,
uni0210,
uni0212,
uni0214,
uni0216,
uni021A,
uni021E,
uni0226,
uni0228,
uni022A,
uni022C,
uni022E,
uni0230,
uni0232,
uni1E0C,
uni1E0E,
uni1E20,
uni1E24,
uni1E2A,
uni1E32,
uni1E62,
uni1E6C,
uni1E6E,
uni1E8E,
uni1E92,
T.alt,
Thorn.nordic,
a,
aacute,
abreve,
acircumflex,
adieresis,
agrave,
amacron,
aogonek,

glyphs = (
{
glyphname = .notdef;
layers = (
{
layerId = m01;
shapes = (
{
closed = 1;
nodes = (
(647,1194,o),
(645,995,qs),
(645,907,o),
(530,844,qs),
(424,788,ls),
(309,727,o),
(309,637,qs),
(309,561,o),
(385,426,q),
(393,418,o),
(408,420,qs),
(431,424,o),
(430,438,q),
(410,508,o),
(410,563,qs),
(410,612,o),
(483,653,qs),
(649,741,ls),
(731,784,o),
(731,930,qs),
(729,1090,o),
(614,1231,qs),
(499,1362,o),
(371,1362,qs),
(287,1362,o),
(287,1280,qs),
(286,1194,o),
(354,1194,q),
(354,1194,l)
);
},
{
closed = 1;
nodes = (
(535,125,o),
(514,158,qs),
(477,213,o),
(414,213,qs),
(375,213,o),
(346,193,qs),
(297,156,o),
(297,86,qs),
(297,49,o),
(317,18,q),
(354,-31,o),
(414,-31,qs),
(451,-31,o),
(479,-14,qs),
(535,18,o),
(535,86,q),
(535,86,l)
);
},
{
closed = 1;
nodes = (
(68,1507,l),
(932,1507,l),
(932,-131,l),
(68,-131,l)
);
}
);
userData = {
assembly = "NPUSHB[ ]	/* 71 values pushed */
17 15 2 3 0 1 76 6 1 0 1 3 1 0 3 128 0 3 2 1 3 2 126 0 4 0 1 0 4 1 105 0 2 5 5 2 89 0 2 2 5 95 7 1 5 2 5 79 46 46 1 0 46 49 46 49 48 47 42 40 34 32 5 3 0 28 1 27 8 6 22 
CALL[ ]	/* CallFunction */";
};
width = 1024;
}
);
note = ".notdef";
},
{
glyphname = A;
kernLeft = A;
kernRight = A;
layers = (
{
layerId = m01;
shapes = (
{
closed = 1;
nodes = (
(1237,86,o),
(1399,86,qs),
(1413,86,o),
(1413,-6,o),
(1399,-6,qs),
(1284,0,o),
(983,0,o),
(858,-6,qs),
(844,-6,o),
(844,86,o),
(858,86,qs),
(954,86,o),
(954,152,qs),
(954,172,o),
(944,203,qs),
(844,500,l),
(838,523,o),
(811,522,qs),
(436,522,ls),
(416,522,o),
(406,494,qs),
(297,201,ls),
(289,176,o),
(287,160,q),
(287,86,o),
(434,86,qs),
(446,86,o),
(446,-6,o),
(434,-6,qs),
(350,0,o),
(51,0,o),
(-27,-6,qs),
(-41,-6,o),
(-41,86,o),
(-27,86,qs),
(125,86,o),
(174,217,qs),
(545,1186,ls),
(557,1217,o),
(557,1231,o),
(528,1260,o),
(528,1268,qs),
(528,1282,o),
(596,1305,o),
(735,1389,o),
(756,1389,qs),
(789,1389,o),
(811,1294,o),
(852,1178,qs),
(1196,203,ls)
);
},
{
closed = 1;
nodes = (
(645,1083,o),
(633,1083,qs),
(623,1083,o),
(616,1067,q),
(459,635,l),
(455,618,l),
(455,608,o),
(475,606,q),
(768,606,ls),
(797,606,o),
(797,629,qs),
(797,635,o),
(793,643,q),
(649,1067,l)
);
}
);
userData = {
assembly = "NPUSHB[ ]	/* 60 values pushed */
25 1 1 4 1 76 20 1 2 73 0 9 0 8 0 9 8 128 0 8 0 4 1 8 4 103 0 0 0 74 77 7 5 3 3 1 1 2 97 6 1 2 2 69 2 78 62 60 37 34 66 21 53 35 50 25 34 10 11 31 
CALL[ ]	/* CallFunction */";
};
width = 1400;
}
);
note = A;
unicode = 65;
},
{
glyphname = Aogonek;
kernLeft = A;
layers = (
{
layerId = m01;
shapes = (
{
closed = 1;
nodes = (
(645,1083,o),
(623,1083,o),
(616,1067,q),
(459,635,l),
(455,618,l),
(455,608,o),
(475,606,q),
(768,606,ls),
(797,606,o),
(797,629,qs),
(797,635,o),
(793,643,q),
(649,1067,l)
);
},
{
closed = 1;
nodes = (
(1237,86,o),
(1399,86,qs),
(1413,86,o),
(1413,-6,o),
(1399,-6,qs),
(1301,0,o),
(1176,0,q),
(1053,-141,o),
(1053,-246,qs),
(1053,-367,o),
(1176,-367,qs),
(1237,-367,o),
(1278,-336,q),
(1298,-342,o),
(1298,-375,q),
(1222,-488,o),
(1081,-487,qs),
(876,-487,o),
(877,-303,qs),
(877,-162,o),
(1057,0,q),
(951,0,o),
(858,-6,qs),
(844,-6,o),
(844,86,o),
(858,86,qs),
(954,86,o),
(954,152,qs),
(954,172,o),
(944,203,qs),
(844,500,l),
(838,523,o),
(811,522,qs),
(436,522,ls),
(416,522,o),
(406,494,qs),
(297,201,ls),
(289,176,o),
(287,160,q),
(287,86,o),
(434,86,qs),
(446,86,o),
(446,-6,o),
(434,-6,qs),
(350,0,o),
(201,0,qs),
(51,0,o),
(-27,-6,qs),
(-41,-6,o),
(-41,86,o),
(-27,86,qs),
(125,86,o),
(174,217,qs),
(545,1186,ls),
(557,1217,o),
(557,1231,o),
(528,1260,o),
(528,1268,qs),
(528,1282,o),
(596,1305,o),
(735,1389,o),
(756,1389,qs),
(789,1389,o),
(811,1294,o),
(852,1178,qs),
(1196,203,ls)
);
}
);
userData = {
assembly = "NPUSHB[ ]	/* 79 values pushed */
39 1 3 6 65 34 2 10 4 63 1 9 10 3 76 0 1 2 0 2 1 0 128 0 0 0 6 3 0 6 103 0 10 0 9 10 9 101 0 2 2 74 77 12 7 5 3 3 3 4 95 11 8 2 4 4 69 4 78 77 75 73 71 68 66 62 60 50 21 53 35 66 25 36 21 35 13 11 31 
CALL[ ]	/* CallFunction */";
};
width = 1400;
}
);
note = Aogonek;
unicode = 260;
},
{
glyphname = Aring;
kernLeft = A;
kernRight = A;
layers = (
{
layerId = m01;
shapes = (
{
closed = 1;
nodes = (
(1266,0,o),
(991,0,o),
(858,-6,qs),
(844,-6,o),
(844,39,qs),
(844,59,o),
(848,74,qs),
(852,86,o),
(858,86,qs),
(952,86,o),
(954,152,qs),
(954,175,o),
(944,203,qs),
(844,500,ls),
(836,523,o),
(811,522,qs),
(436,522,ls),
(416,522,o),
(406,494,qs),
(297,201,ls),
(289,176,o),
(287,160,qs),
(287,146,o),
(291,133,q),
(318,86,o),
(434,86,qs),
(446,86,o),
(446,-6,o),
(434,-6,qs),
(295,0,o),
(113,0,o),
(-27,-6,qs),
(-41,-6,o),
(-41,86,o),
(-27,86,qs),
(125,86,o),
(174,217,qs),
(600,1333,l),
(531,1357,o),
(459,1469,o),
(459,1530,qs),
(459,1622,o),
(592,1739,o),
(686,1739,qs),
(796,1739,o),
(912,1613,o),
(918,1530,q),
(918,1467,o),
(849,1364,o),
(799,1343,q),
(803,1329,ls),
(811,1294,o),
(852,1178,qs),
(1196,203,ls),
(1219,140,o),
(1303,106,qs),
(1350,86,o),
(1399,86,qs),
(1413,86,o),
(1413,41,qs),
(1413,21,o),
(1409,4,q),
(1405,-6,o),
(1399,-6,q),
(1399,-6,l)
);
},
{
closed = 1;
nodes = (
(788,1588,o),
(734,1663,o),
(686,1663,qs),
(640,1660,o),
(588,1588,o),
(588,1530,qs),
(588,1479,o),
(634,1401,o),
(686,1401,qs),
(749,1401,o),
(776,1466,qs),
(788,1495,o),
(788,1530,q),
(788,1530,l)
);
},
{
closed = 1;
nodes = (
(649,1067,l),
(645,1083,o),
(625,1083,o),
(616,1067,q),
(459,641,ls),
(455,631,o),
(455,625,qs),
(455,609,o),
(481,606,q),
(768,606,ls),
(797,606,o),
(797,623,qs),
(797,633,o),
(793,643,q),
(793,643,l)
);
}
);
userData = {
assembly = "NPUSHB[ ]	/* 82 values pushed */
17 1 8 9 26 13 2 11 8 81 1 10 11 42 1 0 5 59 1 3 0 5 76 0 1 0 9 8 1 9 105 0 10 0 5 0 10 5 103 0 11 11 8 97 0 8 8 74 77 6 4 2 3 0 0 3 95 7 1 3 3 69 3 78 91 90 84 83 76 74 36 69 21 55 34 66 23 44 37 12 11 31 
CALL[ ]	/* CallFunction */";
};
width = 1400;
}
);
note = Aring;
unicode = 197;
},
{
glyphname = Aringacute;
layers = (
{
layerId = m01;
shapes = (
{
closed = 1;
nodes = (
(942,1925,o),
(936,1912,o),
(932,1910,qs),
(643,1775,ls),
(612,1761,o),
(592,1761,qs),
(574,1761,o),
(541,1783,o),
(541,1802,qs),
(541,1816,o),
(563,1853,o),
(580,1865,qs),
(840,2064,l),
(846,2070,o),
(854,2070,qs),
(862,2070,o),
(887,2055,o),
(916,2008,o),
(942,1951,o),
(942,1935,q),
(942,1935,l)
);
},
{
closed = 1;
nodes = (
(1266,0,o),
(991,0,o),
(858,-6,qs),
(844,-6,o),
(844,39,qs),
(844,86,o),
(858,86,qs),
(954,86,o),
(954,152,qs),
(954,173,o),
(944,203,qs),
(844,500,ls),
(837,522,o),
(811,522,qs),
(436,522,ls),
(416,522,o),
(406,494,qs),
(297,201,ls),
(287,176,o),
(287,160,qs),
(287,86,o),
(434,86,qs),
(446,86,o),
(446,-6,o),
(434,-6,qs),
(295,0,o),
(113,0,o),
(-27,-6,qs),
(-41,-6,o),
(-41,86,o),
(-27,86,qs),
(124,86,o),
(174,217,qs),
(600,1333,l),
(531,1356,o),
(459,1462,o),
(459,1520,qs),
(459,1608,o),
(592,1719,o),
(686,1719,qs),
(796,1719,o),
(912,1599,o),
(918,1520,q),
(918,1461,o),
(849,1363,o),
(799,1343,q),
(803,1329,ls),
(823,1260,o),
(852,1178,qs),
(1196,203,ls),
(1217,143,o),
(1303,106,qs),
(1350,86,o),
(1399,86,qs),
(1413,86,o),
(1413,-6,o),
(1399,-6,q),
(1399,-6,l)
);
},
{
closed = 1;
nodes = (
(788,1576,o),
(734,1647,o),
(686,1647,qs),
(640,1644,o),
(588,1576,o),
(588,1520,qs),
(588,1472,o),
(634,1398,o),
(686,1398,qs),
(740,1398,o),
(788,1478,o),
(788,1520,q),
(788,1520,l)
);
},
{
closed = 1;
nodes = (
(649,1067,l),
(645,1083,o),
(625,1083,o),
(616,1067,q),
(459,641,ls),
(455,631,o),
(455,625,qs),
(455,609,o),
(481,606,q),
(768,606,ls),
(797,606,o),
(797,623,qs),
(797,633,o),
(793,643,q),
(793,643,l)
);
}
);
userData = {
assembly = "NPUSHB[ ]	/* 89 values pushed */
35 1 9 10 44 31 2 12 9 94 1 11 12 58 1 1 6 73 1 4 1 5 76 0 0 2 0 133 0 2 0 10 9 2 10 105 0 11 0 6 1 11 6 103 0 12 12 9 97 0 9 9 74 77 7 5 3 3 1 1 4 95 8 1 4 4 69 4 78 104 103 97 96 89 87 83 81 67 21 53 34 66 23 44 40 45 13 11 31 
CALL[ ]	/* CallFunction */";
};
width = 1400;
}
);
note = Aringacute;
unicode = 506;
},
{
glyphname = AE;
kernLeft = AE;
layers = (
{
layerId = m01;
shapes = (
{
closed = 1;
nodes = (
(1769,22,o),
(1763,14,qs),
(1745,-6,o),
(1669,-6,qs),
(1483,-6,o),
(1069,0,o),
(940,0,qs),
(784,0,o),
(678,-6,qs),
(664,-6,o),
(664,86,o),
(678,86,qs),
(831,86,o),
(831,195,qs),
(831,569,ls),
(831,600,o),
(803,600,qs),
(469,600,ls),
(442,600,o),
(432,582,qs),
(225,186,l),
(213,159,o),
(213,141,qs),
(213,86,o),
(352,86,qs),
(367,86,o),
(367,-6,o),
(352,-6,qs),
(235,0,o),
(137,0,qs),
(-13,0,o),
(-113,-6,qs),
(-127,-6,o),
(-127,86,o),
(-113,86,qs),
(-23,86,o),
(27,131,qs),
(56,158,o),
(88,213,qs),
(659,1180,ls),
(677,1209,o),
(678,1227,qs),
(678,1266,o),
(594,1266,qs),
(580,1266,o),
(580,1358,o),
(594,1358,qs),
(735,1352,o),
(973,1352,qs),
(1094,1352,o),
(1401,1358,o),
(1585,1358,qs),
(1657,1358,o),
(1671,1354,qs),
(1687,1348,o),
(1688,1313,qs),
(1688,1010,ls),
(1688,993,o),
(1587,993,o),
(1587,1010,qs),
(1587,1262,o),
(1358,1268,qs),
(1108,1272,ls),
(1077,1272,o),
(1077,1229,qs),
(1077,713,ls),
(1077,684,o),
(1106,684,qs),
(1286,684,ls),
(1364,684,o),
(1364,860,qs),
(1364,874,o),
(1460,874,o),
(1460,860,qs),
(1454,770,o),
(1452,645,qs),
(1452,510,o),
(1460,438,q),
(1460,426,o),
(1364,426,o),
(1364,438,qs),
(1364,596,o),
(1286,600,q),
(1106,600,ls),
(1077,600,o),
(1077,567,qs),
(1077,272,ls),
(1077,77,o),
(1206,78,qs),
(1450,86,ls),
(1667,92,o),
(1667,336,qs),
(1667,352,o),
(1769,352,o),
(1769,336,qs),
(1769,49,ls)
);
},
{
closed = 1;
nodes = (
(831,1210,ls),
(831,1226,o),
(821,1229,q),
(811,1229,o),
(801,1210,qs),
(514,713,ls),
(510,707,o),
(510,700,qs),
(510,684,o),
(526,684,qs),
(801,684,ls),
(831,684,o),
(831,713,q),
(831,713,l)
);
}
);
userData = {
assembly = "NPUSHB[ ]	/* 74 values pushed */
53 35 21 3 2 3 72 14 0 3 0 1 95 1 7 0 3 76 12 1 2 9 1 1 0 2 1 103 5 1 3 3 4 95 0 4 4 68 77 10 8 6 3 0 0 7 95 11 1 7 7 69 7 78 99 97 92 85 83 82 79 76 34 82 23 34 119 51 60 51 52 13 11 31 
CALL[ ]	/* CallFunction */";
};
width = 1847;
}
);
note = AE;
unicode = 198;
},
{
glyphname = B;
kernRight = B;
layers = (
{
layerId = m01;
shapes = (
{
closed = 1;
nodes = (
(62,-6,o),
(62,86,o),
(76,86,qs),
(160,86,o),
(238,160,o),
(238,203,qs),
(238,1155,ls),
(238,1264,o),
(66,1266,qs),
(52,1266,o),
(52,1358,o),
(66,1358,qs),
(209,1352,o),
(399,1352,o),
(578,1358,o),
(639,1358,qs),
(856,1358,o),
(1083,1174,o),
(1083,1018,qs),
(1083,932,o),
(981,788,o),
(903,752,q),
(885,742,o),
(885,727,o),
(905,719,qs),
(1022,680,o),
(1180,487,o),
(1180,371,qs),
(1180,219,o),
(952,-6,o),
(643,-6,qs),
(598,-6,o),
(430,0,o),
(291,0,o),
(76,-6,q),
(76,-6,l)
);
},
{
closed = 1;
nodes = (
(481,777,o),
(498,772,qs),
(516,768,o),
(553,768,qs),
(698,768,o),
(840,903,o),
(840,1014,qs),
(840,1143,o),
(668,1280,o),
(500,1280,qs),
(482,1280,o),
(481,1262,qs),
(481,797,ls)
);
},
{
closed = 1;
nodes = (
(481,76,o),
(631,76,q),
(909,86,o),
(909,371,qs),
(909,510,o),
(723,672,o),
(506,674,q),
(481,672,o),
(481,639,qs),
(481,250,ls)
);
}
);
userData = {
assembly = "PUSHB[ ]	/* 6 values pushed */
36 1 5 2 1 76 
MPPEM[ ]	/* MeasurePixelPerEm */
PUSHB[ ]	/* 1 value pushed */
18 
LT[ ]	/* LessThan */
IF[ ]	/* If */
NPUSHB[ ]	/* 32 values pushed */
0 5 0 6 3 5 6 105 4 1 2 2 1 95 0 1 1 68 77 7 1 3 3 0 95 8 1 0 0 69 0 78 
ELSE[ ]	/* Else */
MPPEM[ ]	/* MeasurePixelPerEm */
PUSHB[ ]	/* 1 value pushed */
20 
LT[ ]	/* LessThan */
IF[ ]	/* If */
NPUSHB[ ]	/* 38 values pushed */
0 2 4 5 4 2 114 0 5 0 6 3 5 6 105 0 4 4 1 95 0 1 1 68 77 7 1 3 3 0 95 8 1 0 0 69 0 78 
ELSE[ ]	/* Else */
MPPEM[ ]	/* MeasurePixelPerEm */
PUSHB[ ]	/* 1 value pushed */
34 
LT[ ]	/* LessThan */
IF[ ]	/* If */
NPUSHB[ ]	/* 32 values pushed */
0 5 0 6 3 5 6 105 4 1 2 2 1 95 0 1 1 68 77 7 1 3 3 0 95 8 1 0 0 69 0 78 
ELSE[ ]	/* Else */
NPUSHB[ ]	/* 38 values pushed */
0 2 4 5 4 2 114 0 5 0 6 3 5 6 105 0 4 4 1 95 0 1 1 68 77 7 1 3 3 0 95 8 1 0 0 69 0 78 
EIF[ ]	/* EndIf */
EIF[ ]	/* EndIf */
EIF[ ]	/* EndIf */
NPUSHB[ ]	/* 23 values pushed */
5 0 57 55 52 51 45 43 39 38 32 31 27 25 23 18 0 35 5 34 9 11 22 
CALL[ ]	/* CallFunction */";
};
width = 1298;
}
);
note = B;
unicode = 66;
},
{
glyphname = C;
kernLeft = C;
kernRight = C;
layers = (
{
layerId = m01;
shapes = (
{
closed = 1;
nodes = (
(55,960,o),
(465,1384,o),
(795,1384,qs),
(924,1384,o),
(1133,1341,qs),
(1188,1331,o),
(1239,1329,q),
(1272,1239,o),
(1280,1004,qs),
(1280,986,o),
(1188,979,o),
(1186,995,qs),
(1176,1106,o),
(1065,1239,o),
(897,1296,o),
(788,1296,qs),
(581,1296,o),
(328,961,o),
(328,705,qs),
(328,408,o),
(608,68,o),
(784,68,qs),
(1126,68,o),
(1225,344,qs),
(1231,362,o),
(1321,342,o),
(1321,322,qs),
(1317,265,o),
(1241,72,o),
(1217,37,q),
(1170,31,o),
(1128,16,q),
(974,-27,o),
(770,-27,qs),
(477,-27,o),
(55,352,o),
(55,647,q),
(55,647,l)
);
}
);
userData = {
assembly = "MPPEM[ ]	/* MeasurePixelPerEm */
PUSHB[ ]	/* 1 value pushed */
37 
LT[ ]	/* LessThan */
IF[ ]	/* If */
NPUSHB[ ]	/* 26 values pushed */
0 3 3 68 77 0 2 2 4 97 0 4 4 74 77 0 1 1 0 97 0 0 0 75 0 78 
ELSE[ ]	/* Else */
NPUSHB[ ]	/* 29 values pushed */
0 3 4 2 4 3 2 128 0 2 2 4 97 0 4 4 74 77 0 1 1 0 97 0 0 0 75 0 78 
EIF[ ]	/* EndIf */
PUSHB[ ]	/* 8 values pushed */
34 24 36 42 34 5 11 27 
CALL[ ]	/* CallFunction */";
};
width = 1347;
}
);
note = C;
unicode = 67;
},
{
glyphname = Ccedilla;
kernLeft = C;
kernRight = C;
layers = (
{
layerId = m01;
shapes = (
{
closed = 1;
nodes = (
(946,-422,o),
(784,-524,o),
(686,-526,qs),
(561,-526,o),
(537,-465,q),
(531,-453,o),
(530,-436,qs),
(530,-393,o),
(565,-375,qs),
(577,-369,o),
(596,-369,qs),
(627,-369,o),
(713,-444,o),
(735,-444,qs),
(788,-444,o),
(788,-393,qs),
(788,-315,o),
(645,-252,qs),
(627,-244,o),
(627,-233,qs),
(627,-229,o),
(633,-221,qs),
(764,-27,l),
(475,-25,o),
(55,354,o),
(55,647,qs),
(55,960,o),
(465,1384,o),
(795,1384,qs),
(924,1384,o),
(1133,1341,qs),
(1188,1331,o),
(1239,1329,q),
(1272,1239,o),
(1280,1004,qs),
(1280,986,o),
(1188,979,o),
(1186,995,qs),
(1176,1106,o),
(1065,1239,o),
(897,1296,o),
(788,1296,qs),
(581,1296,o),
(328,961,o),
(328,705,qs),
(328,408,o),
(608,68,o),
(784,68,qs),
(1126,68,o),
(1225,344,qs),
(1231,362,o),
(1321,342,o),
(1321,322,qs),
(1317,265,o),
(1241,72,o),
(1217,37,q),
(1170,31,o),
(1128,16,q),
(1013,-17,o),
(872,-25,q),
(805,-119,ls),
(795,-133,o),
(795,-137,qs),
(795,-145,o),
(823,-162,q),
(946,-227,o),
(946,-336,q),
(946,-336,l)
);
}
);
userData = {
assembly = "PUSHB[ ]	/* 6 values pushed */
60 1 6 7 1 76 
MPPEM[ ]	/* MeasurePixelPerEm */
PUSHB[ ]	/* 1 value pushed */
30 
LT[ ]	/* LessThan */
IF[ ]	/* If */
NPUSHB[ ]	/* 44 values pushed */
0 7 0 6 6 7 114 0 3 3 68 77 0 2 2 4 97 0 4 4 74 77 0 1 1 0 97 5 1 0 0 69 77 0 6 6 8 98 0 8 8 73 8 78 
ELSE[ ]	/* Else */
MPPEM[ ]	/* MeasurePixelPerEm */
PUSHB[ ]	/* 1 value pushed */
34 
LT[ ]	/* LessThan */
IF[ ]	/* If */
NPUSHB[ ]	/* 41 values pushed */
0 7 0 6 6 7 114 0 6 0 8 6 8 102 0 3 3 68 77 0 2 2 4 97 0 4 4 74 77 0 1 1 0 97 5 1 0 0 69 0 78 
ELSE[ ]	/* Else */
MPPEM[ ]	/* MeasurePixelPerEm */
PUSHB[ ]	/* 1 value pushed */
37 
LT[ ]	/* LessThan */
IF[ ]	/* If */
NPUSHB[ ]	/* 42 values pushed */
0 7 0 6 0 7 6 128 0 6 0 8 6 8 102 0 3 3 68 77 0 2 2 4 97 0 4 4 74 77 0 1 1 0 97 5 1 0 0 69 0 78 
ELSE[ ]	/* Else */
NPUSHB[ ]	/* 45 values pushed */
0 3 4 2 4 3 2 128 0 7 0 6 0 7 6 128 0 6 0 8 6 8 102 0 2 2 4 97 0 4 4 74 77 0 1 1 0 97 5 1 0 0 69 0 78 
EIF[ ]	/* EndIf */
EIF[ ]	/* EndIf */
EIF[ ]	/* EndIf */
NPUSHB[ ]	/* 12 values pushed */
39 17 40 20 34 24 36 42 23 9 11 31 
CALL[ ]	/* CallFunction */";
};
width = 1347;
}
);
note = Ccedilla;
unicode = 199;
},
{
glyphname = D;
kernRight = D;
layers = (
{
layerId = m01;
shapes = (
{
closed = 1;
nodes = (
(238,1155,ls),
(238,1264,o),
(66,1266,qs),
(52,1266,o),
(52,1358,o),
(66,1358,qs),
(209,1352,o),
(399,1352,o),
(645,1358,o),
(719,1358,qs),
(1049,1358,o),
(1487,1020,o),
(1487,725,qs),
(1487,387,o),
(1090,-6,o),
(766,-6,qs),
(703,-6,o),
(414,0,o),
(207,0,o),
(76,-6,qs),
(61,-6,o),
(61,86,o),
(76,86,qs),
(238,86,o),
(238,203,q),
(238,203,l)
);
},
{
closed = 1;
nodes = (
(481,122,o),
(567,86,qs),
(606,72,o),
(698,72,qs),
(915,72,o),
(1214,412,o),
(1214,717,qs),
(1214,930,o),
(909,1280,o),
(637,1280,qs),
(557,1280,ls),
(481,1280,o),
(481,1200,qs),
(481,272,ls)
);
}
);
userData = {
assembly = "MPPEM[ ]	/* MeasurePixelPerEm */
PUSHB[ ]	/* 1 value pushed */
18 
LT[ ]	/* LessThan */
IF[ ]	/* If */
NPUSHB[ ]	/* 23 values pushed */
4 1 3 3 2 95 0 2 2 68 77 5 1 0 0 1 95 0 1 1 69 1 78 
ELSE[ ]	/* Else */
MPPEM[ ]	/* MeasurePixelPerEm */
PUSHB[ ]	/* 1 value pushed */
20 
LT[ ]	/* LessThan */
IF[ ]	/* If */
NPUSHB[ ]	/* 29 values pushed */
0 3 4 0 4 3 114 0 4 4 2 95 0 2 2 68 77 5 1 0 0 1 95 0 1 1 69 1 78 
ELSE[ ]	/* Else */
MPPEM[ ]	/* MeasurePixelPerEm */
PUSHB[ ]	/* 1 value pushed */
34 
LT[ ]	/* LessThan */
IF[ ]	/* If */
NPUSHB[ ]	/* 23 values pushed */
4 1 3 3 2 95 0 2 2 68 77 5 1 0 0 1 95 0 1 1 69 1 78 
ELSE[ ]	/* Else */
MPPEM[ ]	/* MeasurePixelPerEm */
PUSHB[ ]	/* 1 value pushed */
35 
LT[ ]	/* LessThan */
IF[ ]	/* If */
NPUSHB[ ]	/* 34 values pushed */
0 3 4 0 4 3 114 0 0 5 5 0 112 0 4 4 2 95 0 2 2 68 77 0 5 5 1 96 0 1 1 69 1 78 
ELSE[ ]	/* Else */
MPPEM[ ]	/* MeasurePixelPerEm */
PUSHB[ ]	/* 1 value pushed */
37 
LT[ ]	/* LessThan */
IF[ ]	/* If */
NPUSHB[ ]	/* 29 values pushed */
0 3 4 0 4 3 114 0 4 4 2 95 0 2 2 68 77 5 1 0 0 1 95 0 1 1 69 1 78 
ELSE[ ]	/* Else */
NPUSHB[ ]	/* 34 values pushed */
0 3 4 0 4 3 114 0 0 5 5 0 112 0 4 4 2 95 0 2 2 68 77 0 5 5 1 96 0 1 1 69 1 78 
EIF[ ]	/* EndIf */
EIF[ ]	/* EndIf */
EIF[ ]	/* EndIf */
EIF[ ]	/* EndIf */
EIF[ ]	/* EndIf */
NPUSHB[ ]	/* 9 values pushed */
36 52 34 84 98 17 6 11 28 
CALL[ ]	/* CallFunction */";
};
width = 1566;
}
);
note = D;
unicode = 68;
},
{
glyphname = Eth;
layers = (
{
layerId = m01;
shapes = (
{
closed = 1;
nodes = (
(1487,387,o),
(1286,188,qs),
(1087,-9,o),
(766,-6,qs),
(657,-6,o),
(430,0,o),
(340,0,qs),
(174,0,o),
(76,-6,qs),
(62,-6,o),
(59,86,o),
(76,86,qs),
(238,86,o),
(238,203,qs),
(238,594,ls),
(238,625,o),
(209,625,qs),
(29,625,ls),
(15,625,o),
(14,719,o),
(29,719,qs),
(209,719,ls),
(238,719,o),
(238,748,qs),
(238,1155,ls),
(238,1264,o),
(66,1266,qs),
(52,1266,o),
(51,1358,o),
(66,1358,qs),
(209,1352,o),
(352,1352,qs),
(413,1352,o),
(614,1358,o),
(719,1358,qs),
(1022,1358,o),
(1229,1219,qs),
(1487,1044,o),
(1487,725,q),
(1487,725,l)
);
},
{
closed = 1;
nodes = (
(1214,893,o),
(1116,1040,qs),
(952,1280,o),
(637,1280,qs),
(557,1280,ls),
(481,1280,o),
(481,1200,qs),
(481,748,ls),
(481,719,o),
(508,719,qs),
(737,719,ls),
(749,719,o),
(752,625,o),
(737,625,qs),
(508,625,ls),
(481,625,o),
(481,594,qs),
(481,272,ls),
(481,122,o),
(567,86,qs),
(606,70,o),
(698,72,qs),
(911,72,o),
(1051,223,qs),
(1214,404,o),
(1214,717,q),
(1214,717,l)
);
}
);
userData = {
assembly = "MPPEM[ ]	/* MeasurePixelPerEm */
PUSHB[ ]	/* 1 value pushed */
18 
LT[ ]	/* LessThan */
IF[ ]	/* If */
NPUSHB[ ]	/* 33 values pushed */
8 1 2 7 1 3 4 2 3 103 9 1 1 1 0 95 0 0 0 68 77 6 1 4 4 5 95 0 5 5 69 5 78 
ELSE[ ]	/* Else */
MPPEM[ ]	/* MeasurePixelPerEm */
PUSHB[ ]	/* 1 value pushed */
20 
LT[ ]	/* LessThan */
IF[ ]	/* If */
NPUSHB[ ]	/* 45 values pushed */
0 1 9 2 9 1 114 0 4 3 6 6 4 114 8 1 2 7 1 3 4 2 3 103 0 9 9 0 95 0 0 0 68 77 0 6 6 5 96 0 5 5 69 5 78 
ELSE[ ]	/* Else */
MPPEM[ ]	/* MeasurePixelPerEm */
PUSHB[ ]	/* 1 value pushed */
34 
LT[ ]	/* LessThan */
IF[ ]	/* If */
NPUSHB[ ]	/* 33 values pushed */
8 1 2 7 1 3 4 2 3 103 9 1 1 1 0 95 0 0 0 68 77 6 1 4 4 5 95 0 5 5 69 5 78 
ELSE[ ]	/* Else */
NPUSHB[ ]	/* 45 values pushed */
0 1 9 2 9 1 114 0 4 3 6 6 4 114 8 1 2 7 1 3 4 2 3 103 0 9 9 0 95 0 0 0 68 77 0 6 6 5 96 0 5 5 69 5 78 
EIF[ ]	/* EndIf */
EIF[ ]	/* EndIf */
EIF[ ]	/* EndIf */
NPUSHB[ ]	/* 14 values pushed */
63 60 50 37 39 114 19 50 35 34 99 10 11 31 
CALL[ ]	/* CallFunction */";
};
width = 1566;
}
);
note = Eth;
unicode = 208;
},
{
glyphname = E;
layers = (
{
layerId = m01;
shapes = (
{
closed = 1;
nodes = (
(238,1155,ls),
(238,1264,o),
(66,1266,qs),
(52,1266,o),
(52,1358,o),
(66,1358,qs),
(209,1352,o),
(521,1352,o),
(950,1358,o),
(1071,1358,qs),
(1128,1358,o),
(1128,1307,qs),
(1128,1001,ls),
(1128,984,o),
(1028,984,o),
(1028,1001,qs),
(1028,1130,o),
(930,1206,qs),
(869,1253,o),
(805,1255,qs),
(508,1266,ls),
(481,1266,o),
(481,1225,qs),
(481,717,ls),
(481,688,o),
(510,686,q),
(645,686,ls),
(768,686,o),
(768,778,qs),
(768,877,ls),
(768,891,o),
(872,891,o),
(872,877,q),
(866,809,o),
(866,481,o),
(872,420,q),
(872,406,o),
(768,403,o),
(768,420,qs),
(768,506,ls),
(768,594,o),
(645,594,qs),
(510,594,ls),
(481,594,o),
(481,563,qs),
(481,221,ls),
(481,143,o),
(555,106,qs),
(594,86,o),
(637,86,qs),
(860,90,ls),
(1018,92,o),
(1065,227,qs),
(1083,276,o),
(1083,344,qs),
(1083,360,o),
(1186,360,o),
(1186,344,qs),
(1186,57,ls),
(1186,-6,o),
(1067,-6,qs),
(881,-6,o),
(535,0,o),
(211,0,o),
(76,-6,qs),
(61,-6,o),
(61,86,o),
(76,86,qs),
(238,86,o),
(238,203,q),
(238,203,l)
);
}
);
userData = {
assembly = "NPUSHB[ ]	/* 54 values pushed */
54 37 2 4 5 31 12 2 0 3 2 76 0 4 0 3 0 4 3 105 7 1 5 5 6 95 0 6 6 68 77 2 1 0 0 1 95 0 1 1 69 1 78 34 88 51 61 53 56 98 17 8 11 30 
CALL[ ]	/* CallFunction */";
};
width = 1249;
}
);
note = E;
unicode = 69;
},
{
glyphname = Eogonek;
layers = (
{
layerId = m01;
shapes = (
{
closed = 1;
nodes = (
(238,1155,ls),
(238,1264,o),
(66,1266,qs),
(52,1266,o),
(51,1358,o),
(66,1358,qs),
(209,1352,o),
(365,1352,qs),
(521,1352,o),
(950,1358,o),
(1071,1358,qs),
(1128,1358,o),
(1128,1307,qs),
(1128,1001,ls),
(1128,985,o),
(1028,983,o),
(1028,1001,qs),
(1028,1130,o),
(930,1206,qs),
(869,1253,o),
(805,1255,qs),
(508,1266,ls),
(481,1266,o),
(481,1225,qs),
(481,717,ls),
(481,688,o),
(510,686,q),
(645,686,ls),
(768,686,o),
(768,778,qs),
(768,877,ls),
(768,891,o),
(872,891,o),
(872,877,q),
(866,809,o),
(866,481,o),
(872,420,q),
(872,406,o),
(768,403,o),
(768,420,qs),
(768,506,ls),
(768,594,o),
(645,594,qs),
(510,594,ls),
(481,594,o),
(481,563,qs),
(481,221,ls),
(481,143,o),
(555,106,qs),
(594,86,o),
(637,86,qs),
(860,90,ls),
(1018,92,o),
(1065,227,qs),
(1083,276,o),
(1083,344,qs),
(1083,360,o),
(1186,360,o),
(1186,344,qs),
(1186,57,ls),
(1186,-6,o),
(1067,-6,qs),
(1001,-6,l),
(882,-143,o),
(883,-246,qs),
(883,-367,o),
(1006,-367,qs),
(1067,-367,o),
(1110,-336,q),
(1130,-342,o),
(1128,-375,q),
(1052,-488,o),
(911,-487,qs),
(706,-487,o),
(707,-303,qs),
(707,-164,o),
(883,-6,q),
(795,-6,o),
(709,-4,qs),
(535,0,o),
(373,0,qs),
(211,0,o),
(76,-6,qs),
(62,-6,o),
(59,86,o),
(76,86,qs),
(238,86,o),
(238,203,q),
(238,203,l)
);
}
);
userData = {
assembly = "NPUSHB[ ]	/* 75 values pushed */
71 54 2 7 8 48 29 2 0 6 19 1 3 1 17 1 2 3 4 76 0 7 0 6 0 7 6 105 0 3 0 2 3 2 101 10 1 8 8 9 95 0 9 9 68 77 5 1 0 0 1 97 4 1 1 1 69 1 78 86 84 82 76 51 61 53 56 35 36 35 114 17 11 11 31 
CALL[ ]	/* CallFunction */";
};
width = 1249;
}
);
note = Eogonek;
unicode = 280;
},
{
glyphname = F;
kernRight = F;
layers = (
{
layerId = m01;
shapes = (
{
closed = 1;
nodes = (
(238,1155,ls),
(238,1264,o),
(66,1266,qs),
(52,1266,o),
(52,1358,o),
(66,1358,qs),
(209,1352,o),
(497,1352,o),
(942,1358,o),
(1069,1358,qs),
(1128,1358,o),
(1128,1307,qs),
(1128,1001,ls),
(1128,984,o),
(1028,984,o),
(1028,1001,qs),
(1028,1114,o),
(885,1251,o),
(805,1255,qs),
(590,1265,o),
(508,1266,qs),
(481,1266,o),
(481,1225,qs),
(481,756,ls),
(481,725,o),
(510,725,qs),
(645,725,ls),
(737,725,o),
(737,815,qs),
(737,952,ls),
(737,967,o),
(842,967,o),
(842,952,q),
(836,884,o),
(836,469,o),
(842,399,q),
(842,386,o),
(737,386,o),
(737,399,qs),
(737,543,ls),
(737,631,o),
(645,633,qs),
(510,633,ls),
(481,633,o),
(481,602,qs),
(481,203,ls),
(481,86,o),
(635,86,qs),
(648,86,o),
(648,-6,o),
(635,-6,qs),
(541,0,o),
(180,0,o),
(76,-6,qs),
(61,-6,o),
(61,86,o),
(76,86,qs),
(238,86,o),
(238,203,q),
(238,203,l)
);
}
);
userData = {
assembly = "NPUSHB[ ]	/* 53 values pushed */
43 26 2 4 5 20 1 0 3 2 76 0 4 0 3 0 4 3 105 7 1 5 5 6 95 0 6 6 68 77 2 1 0 0 1 95 0 1 1 69 1 78 34 87 67 61 51 34 66 17 8 11 30 
CALL[ ]	/* CallFunction */";
};
width = 1189;
}
);
note = F;
unicode = 70;
},
{
glyphname = G;
kernLeft = C;
kernRight = G;
layers = (
{
layerId = m01;
shapes = (
{
closed = 1;
nodes = (
(905,563,o),
(1331,563,o),
(1391,569,q),
(1404,569,o),
(1404,477,o),
(1391,477,qs),
(1282,477,o),
(1282,401,qs),
(1282,160,ls),
(1282,115,o),
(1325,115,qs),
(1339,115,o),
(1339,35,o),
(1325,35,qs),
(1276,35,o),
(903,-27,o),
(770,-27,qs),
(508,-27,o),
(307,127,qs),
(55,326,o),
(55,647,qs),
(55,913,o),
(207,1110,qs),
(420,1384,o),
(795,1384,qs),
(926,1384,o),
(1112,1348,q),
(1182,1330,o),
(1239,1329,q),
(1268,1270,o),
(1278,1055,qs),
(1280,1004,ls),
(1280,986,o),
(1190,979,o),
(1186,995,q),
(1168,1204,o),
(975,1270,qs),
(895,1296,o),
(788,1296,qs),
(581,1296,o),
(328,961,o),
(328,705,qs),
(328,381,o),
(629,68,o),
(784,68,qs),
(895,68,o),
(1038,117,o),
(1038,160,qs),
(1038,401,ls),
(1038,477,o),
(926,477,qs),
(846,477,ls),
(832,477,o),
(832,569,o),
(846,569,q),
(846,569,l)
);
}
);
userData = {
assembly = "MPPEM[ ]	/* MeasurePixelPerEm */
PUSHB[ ]	/* 1 value pushed */
34 
LT[ ]	/* LessThan */
IF[ ]	/* If */
NPUSHB[ ]	/* 43 values pushed */
0 9 8 1 0 7 9 0 105 0 7 0 6 5 7 6 105 0 3 3 68 77 0 2 2 4 97 0 4 4 74 77 0 1 1 5 97 0 5 5 75 5 78 
ELSE[ ]	/* Else */
NPUSHB[ ]	/* 46 values pushed */
0 3 4 2 4 3 2 128 0 9 8 1 0 7 9 0 105 0 7 0 6 5 7 6 105 0 2 2 4 97 0 4 4 74 77 0 1 1 5 97 0 5 5 75 5 78 
EIF[ ]	/* EndIf */
NPUSHB[ ]	/* 14 values pushed */
54 53 19 34 17 38 34 25 36 36 50 10 11 31 
CALL[ ]	/* CallFunction */";
};
width = 1441;
}
);
note = G;
unicode = 71;
},
{
glyphname = uni0122;
layers = (
{
layerId = m01;
shapes = (
{
closed = 1;
nodes = (
(946,-422,o),
(858,-477,qs),
(784,-524,o),
(686,-526,qs),
(561,-526,o),
(537,-465,q),
(531,-453,o),
(530,-436,qs),
(530,-393,o),
(565,-375,qs),
(577,-369,o),
(596,-369,qs),
(627,-369,o),
(670,-408,qs),
(713,-445,o),
(735,-444,qs),
(788,-444,o),
(788,-393,qs),
(788,-315,o),
(645,-252,qs),
(625,-244,o),
(627,-233,q),
(627,-229,o),
(633,-221,qs),
(764,-27,l),
(506,-27,o),
(307,127,qs),
(53,326,o),
(55,647,qs),
(55,913,o),
(207,1110,qs),
(420,1384,o),
(795,1384,qs),
(926,1384,o),
(1112,1348,q),
(1182,1330,o),
(1239,1329,q),
(1268,1270,o),
(1278,1055,qs),
(1280,1004,ls),
(1280,986,o),
(1237,981,q),
(1190,979,o),
(1186,995,q),
(1168,1204,o),
(975,1270,qs),
(895,1297,o),
(788,1296,qs),
(581,1296,o),
(328,961,o),
(328,705,qs),
(328,381,o),
(500,203,qs),
(629,68,o),
(784,68,qs),
(895,68,o),
(977,92,q),
(1038,117,o),
(1038,160,qs),
(1038,401,ls),
(1038,479,o),
(926,477,qs),
(846,477,ls),
(832,477,o),
(831,569,o),
(846,569,q),
(905,563,o),
(1163,563,qs),
(1331,563,o),
(1391,569,q),
(1403,569,o),
(1405,477,o),
(1391,477,qs),
(1282,477,o),
(1282,401,qs),
(1282,160,ls),
(1282,115,o),
(1325,115,qs),
(1339,115,o),
(1339,76,qs),
(1339,35,o),
(1325,35,qs),
(1276,35,o),
(981,-14,o),
(874,-23,q),
(805,-119,ls),
(797,-131,o),
(795,-135,q),
(795,-145,o),
(823,-162,q),
(946,-227,o),
(946,-336,q),
(946,-336,l)
);
}
);
userData = {
assembly = "NPUSHB[ ]	/* 14 values pushed */
26 1 3 7 12 1 5 1 84 1 11 12 3 76 
MPPEM[ ]	/* MeasurePixelPerEm */
PUSHB[ ]	/* 1 value pushed */
30 
LT[ ]	/* LessThan */
IF[ ]	/* If */
NPUSHB[ ]	/* 65 values pushed */
0 12 10 11 11 12 114 0 3 4 1 2 1 3 2 105 0 1 0 0 10 1 0 105 0 6 6 9 97 0 9 9 74 77 0 7 7 8 97 0 8 8 68 77 0 5 5 10 97 0 10 10 75 77 0 11 11 13 98 0 13 13 73 13 78 
ELSE[ ]	/* Else */
MPPEM[ ]	/* MeasurePixelPerEm */
PUSHB[ ]	/* 1 value pushed */
34 
LT[ ]	/* LessThan */
IF[ ]	/* If */
NPUSHB[ ]	/* 62 values pushed */
0 12 10 11 11 12 114 0 3 4 1 2 1 3 2 105 0 1 0 0 10 1 0 105 0 11 0 13 11 13 102 0 6 6 9 97 0 9 9 74 77 0 7 7 8 97 0 8 8 68 77 0 5 5 10 97 0 10 10 75 10 78 
ELSE[ ]	/* Else */
NPUSHB[ ]	/* 61 values pushed */
0 12 10 11 10 12 11 128 0 8 0 7 3 8 7 105 0 3 4 1 2 1 3 2 105 0 1 0 0 10 1 0 105 0 11 0 13 11 13 102 0 6 6 9 97 0 9 9 74 77 0 5 5 10 97 0 10 10 75 10 78 
EIF[ ]	/* EndIf */
EIF[ ]	/* EndIf */
NPUSHB[ ]	/* 22 values pushed */
89 87 80 79 77 75 67 66 60 58 21 20 37 37 51 36 19 35 25 14 11 31 
CALL[ ]	/* CallFunction */";
};
width = 1441;
}
);
note = uni0122;
unicode = 290;
},
{
glyphname = uni021C;
layers = (
{
layerId = m01;
shapes = (
{
closed = 1;
nodes = (
(920,209,o),
(647,68,qs),
(444,-38,o),
(137,-39,qs),
(123,-39,o),
(123,55,o),
(137,55,qs),
(373,55,o),
(520,182,qs),
(651,295,o),
(651,444,qs),
(651,567,o),
(588,629,qs),
(549,666,o),
(494,666,qs),
(433,666,o),
(328,600,q),
(305,588,ls),
(285,578,o),
(264,618,qs),
(248,647,o),
(262,655,qs),
(365,719,ls),
(506,805,o),
(549,874,qs),
(598,952,o),
(598,1051,qs),
(598,1139,o),
(545,1200,qs),
(500,1251,o),
(430,1251,qs),
(194,1251,o),
(195,946,qs),
(195,932,o),
(90,932,o),
(90,946,qs),
(90,1341,ls),
(90,1355,o),
(195,1356,o),
(195,1341,qs),
(195,1298,o),
(225,1296,qs),
(243,1296,o),
(301,1327,qs),
(412,1384,o),
(508,1384,qs),
(627,1384,o),
(725,1323,qs),
(844,1245,o),
(842,1122,qs),
(842,952,o),
(707,809,qs),
(695,797,o),
(694,791,q),
(694,779,o),
(719,768,qs),
(924,678,o),
(922,504,q),
(922,504,l)
);
}
);
userData = {
assembly = "NPUSHB[ ]	/* 51 values pushed */
18 1 1 0 22 1 3 2 2 76 0 3 2 4 2 3 4 128 0 1 0 2 3 1 2 106 0 0 0 74 77 0 4 4 5 97 0 5 5 75 5 78 34 22 46 41 34 43 6 11 28 
CALL[ ]	/* CallFunction */";
};
width = 999;
}
);
note = uni021C;
unicode = 540;
},
{
glyphname = H;
layers = (
{
layerId = m01;
shapes = (
{
closed = 1;
nodes = (
(1432,86,o),
(1591,86,qs),
(1606,86,o),
(1606,-6,o),
(1591,-6,qs),
(1464,0,o),
(1159,0,o),
(1026,-6,qs),
(1012,-6,o),
(1012,86,o),
(1026,86,qs),
(1188,86,o),
(1188,203,qs),
(1188,618,ls),
(1188,653,o),
(1153,653,qs),
(516,653,ls),
(481,653,o),
(481,618,qs),
(481,203,ls),
(481,86,o),
(639,86,qs),
(653,86,o),
(653,-6,o),
(639,-6,qs),
(506,0,o),
(200,0,o),
(76,-6,qs),
(61,-6,o),
(61,86,o),
(76,86,qs),
(238,86,o),
(238,203,qs),
(238,1153,ls),
(238,1270,o),
(76,1270,qs),
(62,1270,o),
(62,1364,o),
(76,1364,q),
(123,1359,o),
(596,1359,o),
(643,1364,q),
(658,1364,o),
(658,1270,o),
(643,1270,qs),
(481,1270,o),
(481,1153,qs),
(481,782,ls),
(481,748,o),
(516,748,qs),
(1153,748,ls),
(1188,748,o),
(1188,782,qs),
(1188,1153,ls),
(1188,1270,o),
(1028,1270,qs),
(1014,1270,o),
(1014,1364,o),
(1028,1364,q),
(1073,1358,o),
(1549,1358,o),
(1595,1364,q),
(1610,1364,o),
(1610,1270,o),
(1595,1270,qs),
(1432,1270,o),
(1432,1153,qs),
(1432,203,ls)
);
}
);
userData = {
assembly = "NPUSHB[ ]	/* 64 values pushed */
28 8 2 1 74 0 3 0 10 7 3 10 103 6 4 2 3 0 0 1 97 5 1 1 1 68 77 13 11 9 3 7 7 8 95 12 1 8 8 69 8 78 66 64 62 58 56 55 52 49 46 44 66 19 35 20 19 51 35 20 17 14 11 31 
CALL[ ]	/* CallFunction */";
};
width = 1685;
}
);
note = H;
unicode = 72;
},
{
glyphname = Hbar;
layers = (
{
layerId = m01;
shapes = (
{
closed = 1;
nodes = (
(1432,86,o),
(1591,86,qs),
(1605,86,o),
(1606,-6,o),
(1591,-6,qs),
(1464,0,o),
(1313,0,qs),
(1159,0,o),
(1026,-6,qs),
(1012,-6,o),
(1012,86,o),
(1026,86,qs),
(1188,86,o),
(1188,203,qs),
(1188,618,ls),
(1188,653,o),
(1153,653,qs),
(516,653,ls),
(481,653,o),
(481,618,qs),
(481,203,ls),
(479,86,o),
(639,86,qs),
(653,86,o),
(653,41,qs),
(651,-6,o),
(639,-6,qs),
(506,0,o),
(354,0,qs),
(200,0,o),
(76,-6,qs),
(62,-6,o),
(59,86,o),
(76,86,qs),
(238,86,o),
(238,203,qs),
(238,952,l),
(170,952,ls),
(152,952,o),
(152,1053,o),
(170,1053,qs),
(238,1053,l),
(238,1153,ls),
(238,1270,o),
(76,1270,qs),
(62,1270,o),
(61,1364,o),
(76,1364,qs),
(123,1360,o),
(360,1358,qs),
(596,1358,o),
(643,1364,q),
(657,1364,o),
(657,1270,o),
(643,1270,qs),
(479,1270,o),
(481,1153,qs),
(481,1053,l),
(1188,1053,l),
(1188,1153,ls),
(1188,1270,o),
(1028,1270,qs),
(1014,1270,o),
(1014,1364,o),
(1028,1364,q),
(1071,1360,o),
(1311,1358,qs),
(1549,1358,o),
(1595,1364,q),
(1609,1364,o),
(1610,1270,o),
(1595,1270,qs),
(1431,1270,o),
(1432,1153,qs),
(1432,1053,l),
(1511,1053,ls),
(1531,1053,o),
(1532,952,o),
(1509,952,qs),
(1432,952,l),
(1432,203,ls)
);
},
{
closed = 1;
nodes = (
(481,952,l),
(481,782,ls),
(481,747,o),
(516,748,qs),
(1153,748,ls),
(1188,748,o),
(1188,782,qs),
(1188,952,l)
);
}
);
userData = {
assembly = "NPUSHB[ ]	/* 89 values pushed */
55 1 12 11 1 76 9 5 2 1 19 10 2 0 18 1 0 105 0 18 0 14 11 18 14 103 8 6 4 3 2 2 3 97 7 1 3 3 68 77 17 15 13 3 11 11 12 95 16 1 12 12 69 12 78 88 87 85 82 79 77 75 70 68 67 64 61 58 56 53 48 46 45 43 41 39 38 35 36 18 18 35 36 18 33 32 20 11 31 
CALL[ ]	/* CallFunction */";
};
width = 1685;
}
);
note = Hbar;
unicode = 294;
},
{
glyphname = I;
layers = (
{
layerId = m01;
shapes = (
{
closed = 1;
nodes = (
(61,-6,o),
(61,86,o),
(76,86,qs),
(238,86,o),
(238,203,qs),
(238,1153,ls),
(238,1270,o),
(76,1270,qs),
(62,1270,o),
(62,1364,o),
(76,1364,q),
(123,1358,o),
(596,1358,o),
(643,1364,q),
(657,1364,o),
(657,1270,o),
(643,1270,qs),
(481,1270,o),
(481,1153,qs),
(481,203,ls),
(481,86,o),
(639,86,qs),
(653,86,o),
(653,-6,o),
(639,-6,qs),
(506,0,o),
(200,0,o),
(76,-6,q),
(76,-6,l)
);
}
);
userData = {
assembly = "NPUSHB[ ]	/* 47 values pushed */
17 1 3 74 4 1 2 2 3 97 0 3 3 68 77 5 1 1 1 0 95 6 1 0 0 69 0 78 3 0 25 24 21 19 16 15 11 10 7 5 0 28 3 27 7 11 22 
CALL[ ]	/* CallFunction */";
};
width = 733;
}
);
note = I;
unicode = 73;
},
{
glyphname = Iogonek;
layers = (
{
layerId = m01;
shapes = (
{
closed = 1;
nodes = (
(298,-189,o),
(558,10,q),
(659,10,l),
(475,-174,o),
(474,-301,qs),
(474,-422,o),
(597,-422,qs),
(658,-422,o),
(700,-391,q),
(720,-397,o),
(720,-430,q),
(644,-543,o),
(503,-543,qs),
(298,-543,o),
(298,-359,q),
(298,-359,l)
);
},
{
closed = 1;
nodes = (
(76,-6,l),
(61,-6,o),
(61,86,o),
(76,86,qs),
(238,86,o),
(238,203,qs),
(238,1153,ls),
(238,1270,o),
(76,1270,qs),
(62,1270,o),
(62,1364,o),
(76,1364,q),
(123,1358,o),
(596,1358,o),
(643,1364,q),
(657,1364,o),
(657,1270,o),
(643,1270,qs),
(481,1270,o),
(481,1153,qs),
(481,203,ls),
(481,86,o),
(639,86,qs),
(653,86,o),
(653,-6,o),
(639,-6,qs),
(506,0,o),
(200,0,o),
(76,-6,q),
(76,-6,l)
);
}
);
userData = {
assembly = "NPUSHB[ ]	/* 14 values pushed */
6 1 1 3 4 1 0 1 2 76 33 1 6 74 
MPPEM[ ]	/* MeasurePixelPerEm */
PUSHB[ ]	/* 1 value pushed */
34 
LT[ ]	/* LessThan */
IF[ ]	/* If */
NPUSHB[ ]	/* 41 values pushed */
0 2 4 3 4 2 114 7 1 5 5 6 97 0 6 6 68 77 8 1 4 4 3 95 9 1 3 3 69 77 0 1 1 0 97 0 0 0 73 0 78 
ELSE[ ]	/* Else */
NPUSHB[ ]	/* 42 values pushed */
0 2 4 3 4 2 3 128 7 1 5 5 6 97 0 6 6 68 77 8 1 4 4 3 95 9 1 3 3 69 77 0 1 1 0 97 0 0 0 73 0 78 
EIF[ ]	/* EndIf */
NPUSHB[ ]	/* 22 values pushed */
19 16 41 40 37 35 32 31 27 26 23 21 16 45 19 43 19 36 33 10 11 25 
CALL[ ]	/* CallFunction */";
};
width = 733;
}
);
note = Iogonek;
unicode = 302;
},
{
glyphname = J;
kernRight = J;
layers = (
{
layerId = m01;
shapes = (
{
closed = 1;
nodes = (
(-131,-216,o),
(-48,-158,o),
(8,-158,qs),
(82,-158,o),
(137,-215,qs),
(162,-242,o),
(174,-276,q),
(207,-251,o),
(231,-195,q),
(256,-107,o),
(256,254,qs),
(256,1153,ls),
(256,1270,o),
(86,1270,qs),
(72,1270,o),
(72,1364,o),
(86,1364,q),
(133,1359,o),
(627,1359,o),
(674,1364,q),
(688,1364,o),
(688,1270,o),
(674,1270,qs),
(502,1270,o),
(502,1153,qs),
(502,629,ls),
(502,523,o),
(492,195,q),
(492,-33,o),
(332,-299,o),
(205,-371,qs),
(119,-418,o),
(33,-420,qs),
(-18,-420,o),
(-131,-344,o),
(-131,-276,q),
(-131,-276,l)
);
}
);
userData = {
assembly = "NPUSHB[ ]	/* 37 values pushed */
29 1 0 4 1 76 19 1 2 74 0 4 0 0 4 0 101 3 1 1 1 2 97 0 2 2 68 1 78 41 35 20 24 34 5 11 27 
CALL[ ]	/* CallFunction */";
};
width = 716;
}
);
note = J;
unicode = 74;
},
{
glyphname = K;
kernRight = K;
layers = (
{
layerId = m01;
shapes = (
{
closed = 1;
nodes = (
(1223,100,o),
(1323,88,qs),
(1346,86,o),
(1382,86,qs),
(1397,86,o),
(1397,-6,o),
(1382,-6,qs),
(1249,0,o),
(944,0,o),
(805,-6,qs),
(791,-6,o),
(791,86,o),
(805,86,qs),
(889,86,o),
(889,125,qs),
(889,152,o),
(848,203,qs),
(590,524,ls),
(527,598,o),
(481,598,o),
(481,569,qs),
(481,203,ls),
(481,86,o),
(637,86,qs),
(650,86,o),
(650,-6,o),
(637,-6,qs),
(504,0,o),
(200,0,o),
(76,-6,qs),
(61,-6,o),
(61,86,o),
(76,86,qs),
(238,86,o),
(238,203,qs),
(238,1153,ls),
(238,1270,o),
(66,1270,qs),
(51,1270,o),
(51,1364,o),
(66,1364,q),
(113,1358,o),
(594,1358,o),
(641,1364,q),
(655,1364,o),
(655,1270,o),
(641,1270,qs),
(481,1270,o),
(481,1153,qs),
(481,797,ls),
(481,770,o),
(498,770,qs),
(527,770,o),
(573,825,qs),
(850,1155,ls),
(903,1218,o),
(903,1270,o),
(842,1270,qs),
(829,1270,o),
(829,1364,o),
(842,1364,q),
(891,1359,o),
(1190,1359,o),
(1237,1364,q),
(1251,1364,o),
(1251,1270,o),
(1237,1270,qs),
(1149,1270,o),
(1063,1229,o),
(1024,1186,qs),
(686,793,ls),
(672,775,o),
(672,742,o),
(686,725,qs),
(1145,190,ls)
);
}
);
userData = {
assembly = "NPUSHB[ ]	/* 70 values pushed */
24 1 3 0 1 76 33 13 2 1 74 0 3 0 10 7 3 10 105 6 4 2 3 0 0 1 97 5 1 1 1 68 77 13 11 9 3 7 7 8 95 12 1 8 8 69 8 78 71 69 67 63 61 60 55 54 51 49 66 19 35 20 20 20 35 20 22 14 11 31 
CALL[ ]	/* CallFunction */";
};
width = 1380;
}
);
note = K;
unicode = 75;
},
{
glyphname = L;
kernRight = L;
layers = (
{
layerId = m01;
shapes = (
{
closed = 1;
nodes = (
(481,139,o),
(549,96,q),
(584,78,o),
(623,78,qs),
(954,90,ls),
(1030,92,o),
(1098,172,qs),
(1180,276,o),
(1180,391,qs),
(1180,409,o),
(1280,409,o),
(1280,391,qs),
(1280,57,ls),
(1280,14,o),
(1266,4,q),
(1258,-6,o),
(1163,-6,qs),
(977,-6,o),
(463,0,o),
(282,0,o),
(76,-6,qs),
(61,-6,o),
(61,86,o),
(76,86,qs),
(238,86,o),
(238,213,qs),
(238,1153,ls),
(238,1270,o),
(66,1270,qs),
(51,1270,o),
(51,1364,o),
(66,1364,q),
(113,1359,o),
(588,1359,o),
(637,1364,q),
(650,1364,o),
(650,1270,o),
(637,1270,qs),
(481,1270,o),
(481,1153,qs),
(481,250,ls)
);
}
);
userData = {
assembly = "NPUSHB[ ]	/* 42 values pushed */
28 1 3 0 1 76 8 1 1 74 2 1 0 0 1 97 0 1 1 68 77 5 1 3 3 4 95 0 4 4 69 4 78 58 98 19 35 20 17 6 11 28 
CALL[ ]	/* CallFunction */";
};
width = 1357;
}
);
note = L;
unicode = 76;
},
{
glyphname = uni013B;
layers = (
{
layerId = m01;
shapes = (
{
closed = 1;
nodes = (
(481,139,o),
(549,96,qs),
(584,76,o),
(623,78,qs),
(954,90,ls),
(1030,92,o),
(1098,172,qs),
(1180,276,o),
(1180,391,qs),
(1180,409,o),
(1280,410,o),
(1280,391,qs),
(1280,57,ls),
(1280,14,o),
(1266,4,q),
(1258,-8,o),
(1163,-6,qs),
(979,-6,o),
(711,-2,q),
(635,-106,ls),
(627,-118,o),
(625,-125,q),
(625,-135,o),
(653,-150,qs),
(778,-216,o),
(776,-324,qs),
(776,-410,o),
(688,-467,qs),
(614,-514,o),
(516,-514,qs),
(391,-514,o),
(367,-453,q),
(361,-441,o),
(360,-424,qs),
(360,-381,o),
(395,-362,qs),
(407,-356,o),
(426,-356,qs),
(457,-356,o),
(500,-395,qs),
(543,-432,o),
(565,-432,qs),
(618,-432,o),
(618,-381,qs),
(618,-303,o),
(475,-240,qs),
(455,-232,o),
(457,-221,q),
(457,-217,o),
(463,-209,qs),
(602,-2,l),
(436,0,o),
(354,0,qs),
(282,0,o),
(76,-6,qs),
(62,-6,o),
(59,86,o),
(76,86,qs),
(238,86,o),
(238,213,qs),
(238,1153,ls),
(238,1270,o),
(66,1270,qs),
(52,1270,o),
(51,1364,o),
(66,1364,qs),
(113,1360,o),
(352,1358,qs),
(588,1358,o),
(637,1364,q),
(651,1364,o),
(649,1270,o),
(637,1270,qs),
(481,1270,o),
(481,1153,qs),
(481,250,ls)
);
}
);
userData = {
assembly = "NPUSHB[ ]	/* 10 values pushed */
63 1 3 0 41 1 5 6 2 76 
MPPEM[ ]	/* MeasurePixelPerEm */
PUSHB[ ]	/* 1 value pushed */
23 
LT[ ]	/* LessThan */
IF[ ]	/* If */
NPUSHB[ ]	/* 41 values pushed */
0 6 4 5 5 6 114 2 1 0 0 1 97 0 1 1 68 77 9 1 3 3 4 95 8 1 4 4 69 77 0 5 5 7 98 0 7 7 73 7 78 
ELSE[ ]	/* Else */
MPPEM[ ]	/* MeasurePixelPerEm */
PUSHB[ ]	/* 1 value pushed */
34 
LT[ ]	/* LessThan */
IF[ ]	/* If */
NPUSHB[ ]	/* 38 values pushed */
0 6 4 5 5 6 114 0 5 0 7 5 7 102 2 1 0 0 1 97 0 1 1 68 77 9 1 3 3 4 95 8 1 4 4 69 4 78 
ELSE[ ]	/* Else */
NPUSHB[ ]	/* 39 values pushed */
0 6 4 5 4 6 5 128 0 5 0 7 5 7 102 2 1 0 0 1 97 0 1 1 68 77 9 1 3 3 4 95 8 1 4 4 69 4 78 
EIF[ ]	/* EndIf */
EIF[ ]	/* EndIf */
NPUSHB[ ]	/* 14 values pushed */
72 69 58 39 18 40 82 19 35 36 17 10 11 31 
CALL[ ]	/* CallFunction */";
};
width = 1357;
}
);
note = uni013B;
unicode = 315;
},
{
glyphname = Lslash;
layers = (
{
layerId = m01;
shapes = (
{
closed = 1;
nodes = (
(1280,14,o),
(1266,4,q),
(1241,-8,o),
(1163,-6,qs),
(995,-6,o),
(590,0,o),
(465,0,qs),
(340,0,o),
(76,-6,qs),
(62,-6,o),
(59,86,o),
(76,86,qs),
(238,86,o),
(238,213,qs),
(238,483,l),
(59,373,ls),
(39,361,o),
(4,420,qs),
(-12,449,o),
(-10,465,qs),
(-10,475,o),
(-6,477,qs),
(238,631,l),
(238,1153,ls),
(238,1270,o),
(66,1270,qs),
(52,1270,o),
(51,1364,o),
(66,1364,qs),
(113,1360,o),
(350,1358,qs),
(588,1358,o),
(637,1364,q),
(651,1364,o),
(649,1270,o),
(637,1270,qs),
(481,1270,o),
(481,1153,qs),
(481,782,l),
(733,940,ls),
(751,952,o),
(817,848,o),
(799,836,qs),
(481,637,l),
(481,250,ls),
(481,187,o),
(518,115,o),
(578,76,o),
(623,78,qs),
(954,90,ls),
(1030,92,o),
(1130,215,o),
(1180,324,o),
(1180,391,qs),
(1180,409,o),
(1280,410,o),
(1280,391,qs),
(1280,57,ls)
);
}
);
userData = {
assembly = "NPUSHB[ ]	/* 42 values pushed */
42 34 18 13 0 5 0 1 1 76 3 1 1 1 2 97 0 2 2 68 77 4 1 0 0 5 95 0 5 5 69 5 78 114 28 35 36 27 54 6 11 28 
CALL[ ]	/* CallFunction */";
};
width = 1357;
}
);
note = Lslash;
unicode = 321;
},
{
glyphname = M;
layers = (
{
layerId = m01;
shapes = (
{
closed = 1;
nodes = (
(1610,86,o),
(1769,86,qs),
(1784,86,o),
(1784,-6,o),
(1769,-6,qs),
(1642,0,o),
(1362,0,o),
(1221,-6,qs),
(1206,-6,o),
(1206,86,o),
(1221,86,qs),
(1374,86,o),
(1374,209,qs),
(1368,877,ls),
(1368,897,o),
(1354,897,o),
(1346,881,qs),
(895,4,ls),
(883,-18,o),
(842,-18,o),
(834,4,q),
(375,969,ls),
(365,989,o),
(352,989,o),
(348,963,q),
(299,207,l),
(299,174,ls),
(299,86,o),
(469,86,qs),
(482,86,o),
(482,-6,o),
(469,-6,qs),
(336,0,o),
(103,0,o),
(41,-6,q),
(27,-6,o),
(27,86,o),
(41,86,qs),
(188,86,o),
(193,211,q),
(254,1116,l),
(254,1161,ls),
(254,1270,o),
(80,1270,qs),
(68,1270,o),
(68,1364,o),
(80,1364,qs),
(162,1358,o),
(254,1358,qs),
(350,1358,ls),
(416,1358,o),
(469,1270,q),
(907,356,ls),
(917,336,o),
(946,336,o),
(958,358,qs),
(1427,1276,ls),
(1470,1358,o),
(1538,1358,qs),
(1591,1358,ls),
(1695,1358,o),
(1755,1364,q),
(1769,1364,o),
(1769,1270,o),
(1755,1270,qs),
(1651,1270,o),
(1597,1182,o),
(1597,1124,qs),
(1608,209,ls)
);
}
);
userData = {
assembly = "NPUSHB[ ]	/* 11 values pushed */
54 43 2 2 0 1 76 21 1 1 74 
MPPEM[ ]	/* MeasurePixelPerEm */
PUSHB[ ]	/* 1 value pushed */
18 
LT[ ]	/* LessThan */
IF[ ]	/* If */
NPUSHB[ ]	/* 36 values pushed */
0 2 0 5 0 2 5 128 4 1 0 0 1 97 3 1 1 1 68 77 11 9 7 3 5 5 6 97 10 8 2 6 6 69 6 78 
ELSE[ ]	/* Else */
MPPEM[ ]	/* MeasurePixelPerEm */
PUSHB[ ]	/* 1 value pushed */
20 
LT[ ]	/* LessThan */
IF[ ]	/* If */
NPUSHB[ ]	/* 40 values pushed */
0 2 0 5 0 2 5 128 4 1 0 0 1 97 3 1 1 1 68 77 11 9 7 3 5 5 6 97 10 1 6 6 69 77 0 8 8 69 8 78 
ELSE[ ]	/* Else */
MPPEM[ ]	/* MeasurePixelPerEm */
PUSHB[ ]	/* 1 value pushed */
34 
LT[ ]	/* LessThan */
IF[ ]	/* If */
NPUSHB[ ]	/* 36 values pushed */
0 2 0 5 0 2 5 128 4 1 0 0 1 97 3 1 1 1 68 77 11 9 7 3 5 5 6 97 10 8 2 6 6 69 6 78 
ELSE[ ]	/* Else */
NPUSHB[ ]	/* 40 values pushed */
0 2 0 5 0 2 5 128 4 1 0 0 1 97 3 1 1 1 68 77 11 9 7 3 5 5 6 97 10 1 6 6 69 77 0 8 8 69 8 78 
EIF[ ]	/* EndIf */
EIF[ ]	/* EndIf */
EIF[ ]	/* EndIf */
NPUSHB[ ]	/* 18 values pushed */
67 65 63 59 57 56 24 34 36 20 35 51 19 52 18 12 11 31 
CALL[ ]	/* CallFunction */";
};
width = 1814;
}
);
note = M;
unicode = 77;
},
{
glyphname = N;
layers = (
{
layerId = m01;
shapes = (
{
closed = 1;
nodes = (
(1288,-20,o),
(1257,-20,qs),
(1230,-20,o),
(1184,37,qs),
(360,1014,l),
(348,1030,o),
(342,1030,qs),
(330,1030,o),
(328,1008,q),
(328,203,ls),
(328,86,o),
(479,86,qs),
(493,86,o),
(494,-8,o),
(479,-6,qs),
(387,0,o),
(279,0,qs),
(177,0,o),
(66,-6,q),
(52,-8,o),
(51,86,o),
(66,86,qs),
(226,86,o),
(223,203,qs),
(223,1155,ls),
(223,1270,o),
(51,1270,qs),
(39,1270,o),
(39,1364,o),
(51,1364,qs),
(100,1360,o),
(227,1358,qs),
(311,1358,o),
(326,1356,qs),
(385,1348,o),
(426,1298,qs),
(1137,432,l),
(1147,418,o),
(1161,418,qs),
(1186,418,o),
(1186,449,qs),
(1186,1151,ls),
(1186,1270,o),
(1032,1270,qs),
(1018,1270,o),
(1018,1364,o),
(1032,1364,qs),
(1134,1360,o),
(1231,1358,qs),
(1331,1358,o),
(1423,1364,qs),
(1437,1364,o),
(1438,1270,o),
(1423,1270,qs),
(1288,1270,o),
(1288,1151,qs),
(1288,76,ls)
);
}
);
userData = {
assembly = "PUSHB[ ]	/* 6 values pushed */
47 1 3 0 1 76 
MPPEM[ ]	/* MeasurePixelPerEm */
PUSHB[ ]	/* 1 value pushed */
10 
LT[ ]	/* LessThan */
IF[ ]	/* If */
NPUSHB[ ]	/* 34 values pushed */
0 3 0 6 0 3 6 128 5 2 2 0 0 1 97 4 1 1 1 68 77 8 1 6 6 7 97 9 1 7 7 69 7 78 
ELSE[ ]	/* Else */
MPPEM[ ]	/* MeasurePixelPerEm */
PUSHB[ ]	/* 1 value pushed */
20 
LT[ ]	/* LessThan */
IF[ ]	/* If */
NPUSHB[ ]	/* 38 values pushed */
0 3 0 6 0 3 6 128 5 2 2 0 0 1 97 4 1 1 1 68 77 8 1 6 6 7 95 0 7 7 69 77 0 9 9 69 9 78 
ELSE[ ]	/* Else */
MPPEM[ ]	/* MeasurePixelPerEm */
PUSHB[ ]	/* 1 value pushed */
23 
LT[ ]	/* LessThan */
IF[ ]	/* If */
NPUSHB[ ]	/* 34 values pushed */
0 3 0 6 0 3 6 128 5 2 2 0 0 1 97 4 1 1 1 68 77 8 1 6 6 7 97 9 1 7 7 69 7 78 
ELSE[ ]	/* Else */
NPUSHB[ ]	/* 38 values pushed */
0 3 0 6 0 3 6 128 5 2 2 0 0 1 97 4 1 1 1 68 77 8 1 6 6 7 95 0 7 7 69 77 0 9 9 69 9 78 
EIF[ ]	/* EndIf */
EIF[ ]	/* EndIf */
EIF[ ]	/* EndIf */
NPUSHB[ ]	/* 14 values pushed */
55 53 34 82 19 35 53 19 34 82 17 10 11 31 
CALL[ ]	/* CallFunction */";
};
width = 1480;
}
);
note = N;
unicode = 78;
},
{
glyphname = Eng;
layers = (
{
layerId = m01;
shapes = (
{
closed = 1;
nodes = (
(1288,63,l),
(1286,-111,ls),
(1286,-228,o),
(1169,-420,o),
(1038,-518,o),
(926,-518,qs),
(867,-518,o),
(795,-451,o),
(795,-403,qs),
(795,-376,o),
(813,-342,o),
(854,-313,o),
(893,-313,qs),
(946,-313,o),
(1020,-385,o),
(1034,-385,qs),
(1073,-385,o),
(1178,-229,o),
(1178,-135,qs),
(1178,43,l),
(360,1014,ls),
(348,1030,o),
(342,1030,qs),
(330,1030,o),
(328,1008,q),
(328,203,ls),
(328,86,o),
(479,86,qs),
(493,86,o),
(494,-8,o),
(479,-6,q),
(375,0,o),
(279,0,qs),
(177,0,o),
(66,-6,q),
(52,-8,o),
(51,86,o),
(66,86,qs),
(226,86,o),
(223,203,qs),
(223,1155,ls),
(223,1270,o),
(51,1270,qs),
(39,1270,o),
(39,1364,o),
(51,1364,qs),
(100,1360,o),
(227,1358,qs),
(311,1358,o),
(326,1356,qs),
(385,1348,o),
(426,1298,qs),
(1137,432,l),
(1147,418,o),
(1161,418,qs),
(1186,418,o),
(1186,449,qs),
(1186,1151,ls),
(1186,1270,o),
(1032,1270,qs),
(1018,1270,o),
(1018,1364,o),
(1032,1364,qs),
(1134,1360,o),
(1231,1358,qs),
(1331,1358,o),
(1423,1364,qs),
(1437,1364,o),
(1438,1270,o),
(1423,1270,qs),
(1288,1270,o),
(1288,1151,qs),
(1288,76,l)
);
}
);
userData = {
assembly = "NPUSHB[ ]	/* 10 values pushed */
47 1 3 0 52 1 7 6 2 76 
MPPEM[ ]	/* MeasurePixelPerEm */
PUSHB[ ]	/* 1 value pushed */
25 
LT[ ]	/* LessThan */
IF[ ]	/* If */
NPUSHB[ ]	/* 51 values pushed */
0 3 0 6 0 3 6 128 0 9 10 11 10 9 11 128 5 2 2 0 0 1 97 4 1 1 1 68 77 8 1 6 6 7 95 0 7 7 69 77 0 10 10 11 97 0 11 11 73 11 78 
ELSE[ ]	/* Else */
NPUSHB[ ]	/* 48 values pushed */
0 3 0 6 0 3 6 128 0 9 10 11 10 9 11 128 0 10 0 11 10 11 101 5 2 2 0 0 1 97 4 1 1 1 68 77 8 1 6 6 7 95 0 7 7 69 7 78 
EIF[ ]	/* EndIf */
NPUSHB[ ]	/* 18 values pushed */
67 65 60 58 56 55 34 82 19 35 53 19 34 82 17 12 11 31 
CALL[ ]	/* CallFunction */";
};
width = 1480;
}
);
note = Eng;
unicode = 330;
},
{
glyphname = O;
kernLeft = C;
kernRight = O;
layers = (
{
layerId = m01;
shapes = (
{
closed = 1;
nodes = (
(1430,445,o),
(1284,246,qs),
(1081,-26,o),
(741,-27,qs),
(516,-27,o),
(336,96,qs),
(55,291,o),
(55,668,qs),
(55,920,o),
(231,1141,qs),
(426,1385,o),
(745,1384,qs),
(991,1384,o),
(1171,1231,qs),
(1430,1006,o),
(1430,664,q),
(1430,664,l)
);
},
{
closed = 1;
nodes = (
(1157,905,o),
(1032,1087,qs),
(891,1298,o),
(739,1296,qs),
(585,1296,o),
(473,1167,qs),
(328,1001,o),
(328,725,qs),
(328,422,o),
(481,229,qs),
(610,67,o),
(756,68,qs),
(1020,68,o),
(1112,346,qs),
(1157,477,o),
(1157,649,q),
(1157,649,l)
);
}
);
userData = {
assembly = "NPUSHB[ ]	/* 28 values pushed */
0 3 3 0 97 0 0 0 74 77 0 2 2 1 97 0 1 1 75 1 78 38 39 38 35 4 11 26 
CALL[ ]	/* CallFunction */";
};
width = 1523;
}
);
note = O;
unicode = 79;
},
{
glyphname = uni01EA;
kernLeft = C;
layers = (
{
layerId = m01;
shapes = (
{
closed = 1;
nodes = (
(1157,905,o),
(891,1296,o),
(739,1296,qs),
(577,1296,o),
(328,991,o),
(328,725,qs),
(328,430,o),
(602,68,o),
(756,68,qs),
(877,68,o),
(1051,184,o),
(1157,456,o),
(1157,649,q),
(1157,649,l)
);
},
{
closed = 1;
nodes = (
(1430,445,o),
(1159,70,o),
(737,-80,o),
(737,-246,qs),
(737,-367,o),
(860,-367,qs),
(921,-367,o),
(965,-336,q),
(985,-342,o),
(983,-375,q),
(907,-488,o),
(768,-487,q),
(563,-473,o),
(561,-303,qs),
(561,-153,o),
(741,-27,q),
(520,-27,o),
(195,188,o),
(55,483,o),
(55,668,qs),
(55,920,o),
(426,1384,o),
(745,1384,qs),
(1015,1384,o),
(1430,977,o),
(1430,664,q),
(1430,664,l)
);
}
);
userData = {
assembly = "NPUSHB[ ]	/* 47 values pushed */
32 1 5 3 30 1 4 5 2 76 0 5 0 4 5 4 101 0 1 1 2 97 0 2 2 74 77 0 0 0 3 97 0 3 3 75 3 78 36 35 21 37 36 35 6 11 28 
CALL[ ]	/* CallFunction */";
};
width = 1523;
}
);
note = uni01EA;
},
{
glyphname = Oslash;
kernRight = O;
layers = (
{
layerId = m01;
shapes = (
{
closed = 1;
nodes = (
(285,-98,o),
(274,-100,q),
(249,-100,o),
(213,-72,qs),
(172,-41,o),
(172,-25,qs),
(172,-19,o),
(174,-14,q),
(283,137,l),
(56,327,o),
(55,668,qs),
(55,920,o),
(231,1141,qs),
(426,1385,o),
(745,1384,qs),
(935,1384,o),
(1087,1290,q),
(1184,1427,l),
(1186,1431,o),
(1194,1432,q),
(1225,1432,o),
(1268,1397,qs),
(1301,1370,o),
(1298,1358,q),
(1298,1354,o),
(1296,1352,q),
(1196,1206,l),
(1429,989,o),
(1430,664,qs),
(1430,445,o),
(1284,246,qs),
(1081,-26,o),
(741,-27,qs),
(553,-27,o),
(395,59,q),
(289,-92,ls)
);
},
{
closed = 1;
nodes = (
(619,68,o),
(756,68,qs),
(1020,68,o),
(1112,346,qs),
(1155,475,o),
(1157,649,qs),
(1157,862,o),
(1069,1026,q),
(498,209,l)
);
},
{
closed = 1;
nodes = (
(987,1149,l),
(866,1299,o),
(739,1296,qs),
(585,1296,o),
(473,1167,qs),
(328,1001,o),
(328,725,qs),
(330,496,o),
(416,330,q),
(416,330,l)
);
}
);
userData = {
assembly = "NPUSHB[ ]	/* 10 values pushed */
53 44 26 18 8 5 4 5 1 76 
MPPEM[ ]	/* MeasurePixelPerEm */
PUSHB[ ]	/* 1 value pushed */
20 
LT[ ]	/* LessThan */
IF[ ]	/* If */
NPUSHB[ ]	/* 31 values pushed */
0 3 0 3 134 0 1 1 74 77 0 5 5 2 97 0 2 2 74 77 0 4 4 0 97 0 0 0 75 0 78 
ELSE[ ]	/* Else */
NPUSHB[ ]	/* 31 values pushed */
0 1 2 1 133 0 3 0 3 134 0 5 5 2 97 0 2 2 74 77 0 4 4 0 97 0 0 0 75 0 78 
EIF[ ]	/* EndIf */
NPUSHB[ ]	/* 9 values pushed */
39 40 27 36 27 33 6 11 28 
CALL[ ]	/* CallFunction */";
};
width = 1523;
}
);
note = Oslash;
unicode = 216;
},
{
glyphname = Oslashacute;
kernLeft = C;
layers = (
{
layerId = m01;
shapes = (
{
closed = 1;
nodes = (
(1040,1639,o),
(1032,1626,o),
(1028,1624,qs),
(741,1489,ls),
(710,1475,o),
(688,1475,qs),
(670,1475,o),
(637,1497,o),
(637,1516,qs),
(637,1530,o),
(659,1567,o),
(678,1579,q),
(936,1778,l),
(942,1784,o),
(950,1784,qs),
(958,1784,o),
(983,1769,o),
(1014,1722,o),
(1040,1665,o),
(1040,1649,q),
(1040,1649,l)
);
},
{
closed = 1;
nodes = (
(285,-98,o),
(274,-100,q),
(249,-100,o),
(213,-72,qs),
(172,-41,o),
(172,-25,qs),
(172,-19,o),
(174,-14,q),
(283,137,l),
(56,327,o),
(55,668,qs),
(55,920,o),
(231,1141,qs),
(426,1385,o),
(745,1384,qs),
(935,1384,o),
(1087,1290,q),
(1184,1427,l),
(1186,1431,o),
(1194,1432,q),
(1225,1432,o),
(1268,1397,qs),
(1301,1370,o),
(1298,1358,q),
(1298,1354,o),
(1296,1352,q),
(1196,1206,l),
(1429,989,o),
(1430,664,qs),
(1430,445,o),
(1284,246,qs),
(1081,-26,o),
(741,-27,qs),
(553,-27,o),
(395,59,q),
(289,-92,ls)
);
},
{
closed = 1;
nodes = (
(619,68,o),
(756,68,qs),
(1020,68,o),
(1112,346,qs),
(1155,475,o),
(1157,649,qs),
(1157,862,o),
(1069,1026,q),
(498,209,l)
);
},
{
closed = 1;
nodes = (
(987,1149,l),
(866,1299,o),
(739,1296,qs),
(585,1296,o),
(473,1167,qs),
(328,1001,o),
(328,725,qs),
(330,496,o),
(416,330,q),
(416,330,l)
);
}
);
userData = {
assembly = "NPUSHB[ ]	/* 10 values pushed */
74 65 47 39 29 5 5 6 1 76 
MPPEM[ ]	/* MeasurePixelPerEm */
PUSHB[ ]	/* 1 value pushed */
20 
LT[ ]	/* LessThan */
IF[ ]	/* If */
NPUSHB[ ]	/* 36 values pushed */
0 0 2 0 133 0 4 1 4 134 0 2 2 74 77 0 6 6 3 97 0 3 3 74 77 0 5 5 1 97 0 1 1 75 1 78 
ELSE[ ]	/* Else */
NPUSHB[ ]	/* 36 values pushed */
0 0 2 0 133 0 2 3 2 133 0 4 1 4 134 0 6 6 3 97 0 3 3 74 77 0 5 5 1 97 0 1 1 75 1 78 
EIF[ ]	/* EndIf */
NPUSHB[ ]	/* 10 values pushed */
39 40 27 36 27 39 45 7 11 29 
CALL[ ]	/* CallFunction */";
};
width = 1523;
}
);
note = Oslashacute;
unicode = 510;
},
{
glyphname = OE;
kernLeft = C;
layers = (
{
layerId = m01;
shapes = (
{
closed = 1;
nodes = (
(1946,14,o),
(1929,4,q),
(1902,-8,o),
(1829,-6,qs),
(1692,-6,o),
(1268,0,o),
(1122,0,qs),
(1054,0,o),
(768,-10,o),
(719,-10,qs),
(443,-10,o),
(53,371,o),
(53,662,qs),
(53,926,o),
(432,1358,o),
(723,1358,qs),
(819,1358,o),
(1049,1352,o),
(1133,1352,qs),
(1219,1352,o),
(1614,1356,o),
(1784,1358,qs),
(1868,1358,o),
(1878,1343,q),
(1888,1333,o),
(1888,1307,qs),
(1888,1001,ls),
(1888,985,o),
(1788,983,o),
(1788,1001,qs),
(1788,1130,o),
(1690,1206,qs),
(1629,1251,o),
(1565,1255,qs),
(1522,1257,o),
(1268,1266,qs),
(1241,1266,o),
(1241,1225,qs),
(1241,717,l),
(1247,690,o),
(1270,686,q),
(1407,686,ls),
(1528,686,o),
(1528,778,qs),
(1528,877,ls),
(1528,891,o),
(1632,891,o),
(1632,877,q),
(1626,809,o),
(1626,643,qs),
(1626,481,o),
(1632,420,q),
(1632,406,o),
(1528,403,o),
(1528,420,qs),
(1528,506,ls),
(1528,594,o),
(1407,594,qs),
(1270,594,ls),
(1241,594,o),
(1241,563,qs),
(1241,221,ls),
(1241,145,o),
(1315,106,qs),
(1356,86,o),
(1403,86,qs),
(1620,90,ls),
(1778,94,o),
(1825,227,qs),
(1843,276,o),
(1843,344,qs),
(1843,362,o),
(1946,362,o),
(1946,344,qs),
(1946,57,ls)
);
},
{
closed = 1;
nodes = (
(997,1155,ls),
(997,1208,o),
(895,1264,o),
(768,1272,o),
(717,1272,qs),
(561,1272,o),
(326,969,o),
(326,719,qs),
(326,424,o),
(602,80,o),
(731,80,qs),
(872,80,o),
(997,135,o),
(997,203,q),
(997,203,l)
);
}
);
userData = {
assembly = "NPUSHB[ ]	/* 13 values pushed */
44 35 26 3 2 3 19 0 2 0 1 2 76 
MPPEM[ ]	/* MeasurePixelPerEm */
PUSHB[ ]	/* 1 value pushed */
48 
LT[ ]	/* LessThan */
IF[ ]	/* If */
NPUSHB[ ]	/* 31 values pushed */
0 2 0 1 0 2 1 105 7 1 3 3 4 95 0 4 4 68 77 6 1 0 0 5 95 0 5 5 69 5 78 
ELSE[ ]	/* Else */
NPUSHB[ ]	/* 43 values pushed */
0 3 7 2 7 3 114 0 0 1 6 6 0 114 0 2 0 1 0 2 1 105 0 7 7 4 95 0 4 4 68 77 0 6 6 5 96 0 5 5 69 5 78 
EIF[ ]	/* EndIf */
NPUSHB[ ]	/* 11 values pushed */
52 38 132 138 68 46 53 54 8 11 30 
CALL[ ]	/* CallFunction */";
};
width = 2009;
}
);
note = OE;
unicode = 338;
},
{
glyphname = P;
kernRight = P;
layers = (
{
layerId = m01;
shapes = (
{
closed = 1;
nodes = (
(481,86,o),
(649,86,qs),
(663,86,o),
(664,-6,o),
(649,-6,qs),
(522,0,o),
(360,0,qs),
(213,0,o),
(80,-6,qs),
(68,-6,o),
(68,86,o),
(80,86,qs),
(238,86,o),
(238,203,qs),
(238,1155,ls),
(238,1264,o),
(68,1266,qs),
(54,1266,o),
(53,1358,o),
(68,1358,qs),
(211,1352,o),
(354,1352,qs),
(413,1352,o),
(578,1358,o),
(659,1358,qs),
(876,1358,o),
(1022,1257,qs),
(1180,1146,o),
(1180,969,qs),
(1180,779,o),
(1008,678,qs),
(869,596,o),
(653,596,qs),
(563,596,o),
(516,600,qs),
(481,602,o),
(481,569,qs),
(481,203,ls)
);
},
{
closed = 1;
nodes = (
(924,1090,o),
(842,1174,qs),
(744,1278,o),
(563,1278,qs),
(497,1278,o),
(485,1264,qs),
(481,1258,o),
(481,1249,qs),
(481,717,ls),
(481,686,o),
(512,680,q),
(549,676,o),
(592,676,qs),
(842,676,o),
(903,848,qs),
(924,901,o),
(924,969,q),
(924,969,l)
);
}
);
userData = {
assembly = "PUSHB[ ]	/* 6 values pushed */
47 1 7 3 1 76 
MPPEM[ ]	/* MeasurePixelPerEm */
PUSHB[ ]	/* 1 value pushed */
39 
LT[ ]	/* LessThan */
IF[ ]	/* If */
NPUSHB[ ]	/* 32 values pushed */
0 7 1 1 0 4 7 0 105 8 1 3 3 2 95 0 2 2 68 77 6 1 4 4 5 95 0 5 5 69 5 78 
ELSE[ ]	/* Else */
NPUSHB[ ]	/* 38 values pushed */
0 3 8 7 8 3 114 0 7 1 1 0 4 7 0 105 0 8 8 2 95 0 2 2 68 77 6 1 4 4 5 95 0 5 5 69 5 78 
EIF[ ]	/* EndIf */
NPUSHB[ ]	/* 12 values pushed */
39 37 34 82 19 34 102 33 17 9 11 31 
CALL[ ]	/* CallFunction */";
};
width = 1212;
}
);
note = P;
unicode = 80;
},
{
glyphname = Thorn;
layers = (
{
layerId = m01;
shapes = (
{
closed = 1;
nodes = (
(1135,512,o),
(993,317,qs),
(862,133,o),
(659,43,qs),
(567,2,o),
(469,-12,qs),
(432,-18,o),
(432,-51,qs),
(432,-244,ls),
(432,-316,o),
(291,-418,qs),
(145,-516,ls),
(139,-520,o),
(133,-520,qs),
(94,-520,o),
(57,-459,qs),
(43,-436,o),
(43,-420,qs),
(43,-412,o),
(47,-408,qs),
(129,-336,o),
(152,-309,qs),
(187,-264,o),
(186,-209,qs),
(186,1092,ls),
(186,1227,o),
(27,1229,qs),
(13,1229,o),
(12,1321,o),
(27,1321,qs),
(203,1321,o),
(352,1380,qs),
(372,1388,o),
(393,1389,qs),
(434,1389,o),
(436,1354,q),
(430,1157,ls),
(430,1134,o),
(446,1135,qs),
(456,1135,o),
(467,1139,qs),
(483,1145,o),
(602,1245,qs),
(704,1329,o),
(788,1329,qs),
(831,1329,o),
(866,1307,q),
(1024,1184,o),
(1092,985,qs),
(1135,860,o),
(1135,727,q),
(1135,727,l)
);
},
{
closed = 1;
nodes = (
(862,1010,o),
(709,1171,qs),
(691,1191,o),
(680,1192,qs),
(668,1192,o),
(657,1186,qs),
(651,1182,o),
(596,1133,qs),
(524,1067,o),
(453,1030,qs),
(430,1018,o),
(430,983,qs),
(430,119,ls),
(430,82,o),
(459,82,qs),
(465,82,o),
(473,84,qs),
(676,141,o),
(780,356,qs),
(862,522,o),
(862,727,q),
(862,727,l)
);
}
);
userData = {
assembly = "PUSHB[ ]	/* 7 values pushed */
14 12 2 5 6 1 76 
MPPEM[ ]	/* MeasurePixelPerEm */
PUSHB[ ]	/* 1 value pushed */
25 
LT[ ]	/* LessThan */
IF[ ]	/* If */
NPUSHB[ ]	/* 37 values pushed */
0 6 3 5 3 6 5 128 0 5 4 3 5 4 126 0 1 1 74 77 0 3 3 0 97 2 1 0 0 68 77 0 4 4 73 4 78 
ELSE[ ]	/* Else */
MPPEM[ ]	/* MeasurePixelPerEm */
PUSHB[ ]	/* 1 value pushed */
34 
LT[ ]	/* LessThan */
IF[ ]	/* If */
NPUSHB[ ]	/* 36 values pushed */
0 6 3 5 3 6 5 128 0 5 4 3 5 4 126 0 4 4 132 0 1 1 74 77 0 3 3 0 97 2 1 0 0 68 3 78 
ELSE[ ]	/* Else */
NPUSHB[ ]	/* 34 values pushed */
0 6 3 5 3 6 5 128 0 5 4 3 5 4 126 0 4 4 132 2 1 0 0 3 6 0 3 105 0 1 1 74 1 78 
EIF[ ]	/* EndIf */
EIF[ ]	/* EndIf */
NPUSHB[ ]	/* 12 values pushed */
70 68 59 56 27 34 18 41 37 7 11 27 
CALL[ ]	/* CallFunction */";
};
width = 1224;
}
);
note = Thorn;
unicode = 222;
},
{
glyphname = Q;
kernLeft = C;
kernRight = O;
layers = (
{
layerId = m01;
shapes = (
{
closed = 1;
nodes = (
(1430,444,o),
(1282,238,qs),
(1212,140,o),
(1092,59,qs),
(1069,45,o),
(1069,20,o),
(1092,4,qs),
(1350,-166,o),
(1632,-248,qs),
(1663,-256,ls),
(1683,-262,o),
(1686,-291,qs),
(1686,-301,o),
(1681,-315,qs),
(1667,-364,o),
(1640,-358,qs),
(1239,-282,o),
(653,-59,qs),
(500,0,ls),
(467,12,o),
(344,86,qs),
(213,168,o),
(53,475,o),
(55,662,qs),
(55,924,o),
(233,1139,qs),
(438,1385,o),
(745,1384,qs),
(1005,1384,o),
(1171,1231,qs),
(1430,991,o),
(1430,659,q),
(1430,659,l)
);
},
{
closed = 1;
nodes = (
(1157,893,o),
(1036,1087,qs),
(907,1298,o),
(739,1296,qs),
(542,1296,o),
(426,1104,qs),
(328,942,o),
(328,717,qs),
(328,410,o),
(481,219,qs),
(608,63,o),
(756,66,qs),
(1010,66,o),
(1106,330,qs),
(1157,467,o),
(1157,641,q),
(1157,641,l)
);
}
);
userData = {
assembly = "NPUSHB[ ]	/* 24 values pushed */
0 1 2 1 134 0 2 2 0 97 0 0 0 74 2 78 46 44 38 36 35 3 11 23 
CALL[ ]	/* CallFunction */";
};
width = 1488;
}
);
note = Q;
unicode = 81;
},
{
glyphname = R;
kernRight = R;
layers = (
{
layerId = m01;
shapes = (
{
closed = 1;
nodes = (
(1212,717,o),
(930,633,q),
(912,629,o),
(911,612,qs),
(911,602,o),
(924,586,q),
(1055,363,o),
(1249,162,qs),
(1343,62,o),
(1430,45,qs),
(1457,41,o),
(1454,16,q),
(1454,-23,o),
(1432,-20,q),
(1339,-25,l),
(1183,-25,o),
(1102,31,q),
(961,119,o),
(840,291,qs),
(709,477,l),
(646,553,o),
(631,565,qs),
(606,585,o),
(567,588,q),
(500,588,ls),
(482,588,o),
(481,567,qs),
(481,203,ls),
(481,86,o),
(637,86,qs),
(651,86,o),
(649,-6,o),
(637,-6,qs),
(504,0,o),
(360,0,qs),
(208,0,o),
(76,-6,qs),
(62,-6,o),
(59,86,o),
(76,86,qs),
(238,86,o),
(238,203,qs),
(238,1155,ls),
(238,1264,o),
(66,1266,qs),
(52,1266,o),
(51,1358,o),
(66,1358,qs),
(209,1352,o),
(354,1352,qs),
(409,1352,o),
(567,1358,o),
(659,1358,qs),
(997,1358,o),
(1141,1184,qs),
(1212,1094,o),
(1212,969,q),
(1212,969,l)
);
},
{
closed = 1;
nodes = (
(958,1104,o),
(842,1196,qs),
(736,1278,o),
(563,1278,qs),
(502,1278,o),
(481,1262,o),
(481,1237,qs),
(481,713,ls),
(481,680,o),
(506,674,qs),
(553,666,o),
(592,666,qs),
(856,666,o),
(932,831,qs),
(958,893,o),
(958,969,q),
(958,969,l)
);
}
);
userData = {
assembly = "PUSHB[ ]	/* 6 values pushed */
45 1 3 2 1 76 
MPPEM[ ]	/* MeasurePixelPerEm */
PUSHB[ ]	/* 1 value pushed */
39 
LT[ ]	/* LessThan */
IF[ ]	/* If */
NPUSHB[ ]	/* 36 values pushed */
0 7 0 5 2 7 5 105 8 1 1 1 0 95 0 0 0 68 77 4 1 2 2 3 95 0 3 3 69 77 0 6 6 69 6 78 
ELSE[ ]	/* Else */
NPUSHB[ ]	/* 42 values pushed */
0 1 8 7 8 1 114 0 7 0 5 2 7 5 105 0 8 8 0 95 0 0 0 68 77 4 1 2 2 3 95 0 3 3 69 77 0 6 6 69 6 78 
EIF[ ]	/* EndIf */
NPUSHB[ ]	/* 14 values pushed */
71 69 63 61 40 35 34 82 19 34 99 9 11 29 
CALL[ ]	/* CallFunction */";
};
width = 1419;
}
);
note = R;
unicode = 82;
},
{
glyphname = S;
kernLeft = S;
kernRight = S;
layers = (
{
layerId = m01;
shapes = (
{
closed = 1;
nodes = (
(981,223,o),
(870,102,qs),
(751,-27,o),
(555,-27,qs),
(412,-27,o),
(307,8,q),
(164,72,l),
(111,234,o),
(111,385,qs),
(111,410,o),
(158,410,qs),
(205,412,o),
(209,391,q),
(219,274,o),
(299,184,qs),
(403,65,o),
(571,68,qs),
(643,68,o),
(700,125,qs),
(772,195,o),
(770,307,qs),
(770,514,o),
(502,584,qs),
(105,684,o),
(104,1032,qs),
(104,1173,o),
(233,1290,qs),
(337,1384,o),
(524,1384,qs),
(645,1384,o),
(737,1364,qs),
(792,1352,o),
(801,1352,qs),
(836,1354,l),
(838,1354,l),
(875,1235,o),
(887,1083,qs),
(889,1056,o),
(842,1051,qs),
(797,1045,o),
(791,1063,qs),
(760,1180,o),
(625,1300,o),
(506,1300,qs),
(412,1300,o),
(352,1217,qs),
(311,1162,o),
(311,1075,qs),
(311,895,o),
(559,834,qs),
(981,733,o),
(981,403,q),
(981,403,l)
);
}
);
userData = {
assembly = "NPUSHB[ ]	/* 43 values pushed */
0 4 0 3 0 4 3 128 0 1 1 68 77 0 0 0 2 97 0 2 2 74 77 0 3 3 5 97 0 5 5 75 5 78 37 36 42 35 40 39 6 11 28 
CALL[ ]	/* CallFunction */";
};
width = 1075;
}
);
note = S;
unicode = 83;
},
{
glyphname = Scedilla;
layers = (
{
layerId = m01;
shapes = (
{
closed = 1;
nodes = (
(674,-420,o),
(586,-475,qs),
(512,-522,o),
(414,-524,qs),
(289,-524,o),
(262,-463,qs),
(256,-451,o),
(256,-434,qs),
(256,-391,o),
(293,-373,qs),
(305,-367,o),
(322,-367,qs),
(353,-367,o),
(397,-406,qs),
(440,-443,o),
(463,-442,qs),
(516,-442,o),
(514,-391,qs),
(514,-313,o),
(373,-250,qs),
(353,-242,o),
(352,-231,qs),
(352,-227,o),
(358,-219,qs),
(489,-25,l),
(387,-19,o),
(307,8,q),
(164,72,l),
(111,234,o),
(111,385,qs),
(111,410,o),
(158,410,qs),
(205,412,o),
(209,391,q),
(219,274,o),
(299,184,qs),
(403,65,o),
(571,68,qs),
(643,68,o),
(700,125,qs),
(772,195,o),
(770,307,qs),
(770,514,o),
(502,584,qs),
(105,684,o),
(104,1032,qs),
(104,1173,o),
(233,1290,qs),
(337,1384,o),
(524,1384,qs),
(645,1384,o),
(737,1364,qs),
(792,1352,o),
(801,1352,qs),
(836,1354,l),
(838,1354,l),
(875,1235,o),
(887,1083,qs),
(889,1056,o),
(842,1051,qs),
(797,1045,o),
(791,1063,qs),
(760,1180,o),
(625,1300,o),
(506,1300,qs),
(412,1300,o),
(352,1217,qs),
(311,1162,o),
(311,1075,qs),
(311,895,o),
(559,834,qs),
(981,732,o),
(981,403,qs),
(981,223,o),
(870,102,qs),
(766,-13,o),
(598,-25,q),
(530,-117,ls),
(522,-129,o),
(522,-133,qs),
(522,-143,o),
(551,-160,qs),
(674,-225,o),
(674,-334,q),
(674,-334,l)
);
}
);
userData = {
assembly = "PUSHB[ ]	/* 6 values pushed */
76 1 6 7 1 76 
MPPEM[ ]	/* MeasurePixelPerEm */
PUSHB[ ]	/* 1 value pushed */
27 
LT[ ]	/* LessThan */
IF[ ]	/* If */
NPUSHB[ ]	/* 51 values pushed */
0 4 0 3 0 4 3 128 0 7 5 6 6 7 114 0 1 1 68 77 0 0 0 2 97 0 2 2 74 77 0 3 3 5 97 0 5 5 69 77 0 6 6 8 98 0 8 8 73 8 78 
ELSE[ ]	/* Else */
MPPEM[ ]	/* MeasurePixelPerEm */
PUSHB[ ]	/* 1 value pushed */
34 
LT[ ]	/* LessThan */
IF[ ]	/* If */
NPUSHB[ ]	/* 48 values pushed */
0 4 0 3 0 4 3 128 0 7 5 6 6 7 114 0 6 0 8 6 8 102 0 1 1 68 77 0 0 0 2 97 0 2 2 74 77 0 3 3 5 97 0 5 5 69 5 78 
ELSE[ ]	/* Else */
NPUSHB[ ]	/* 49 values pushed */
0 4 0 3 0 4 3 128 0 7 5 6 5 7 6 128 0 6 0 8 6 8 102 0 1 1 68 77 0 0 0 2 97 0 2 2 74 77 0 3 3 5 97 0 5 5 69 5 78 
EIF[ ]	/* EndIf */
EIF[ ]	/* EndIf */
NPUSHB[ ]	/* 21 values pushed */
81 79 72 71 69 67 59 58 53 51 47 45 35 33 30 28 20 18 9 11 22 
CALL[ ]	/* CallFunction */";
};
width = 1075;
}
);
note = Scedilla;
unicode = 350;
},
{
glyphname = uni1E9E;
layers = (
{
layerId = m01;
shapes = (
{
closed = 1;
nodes = (
(1438,185,o),
(1200,-27,o),
(1036,-27,qs),
(954,-27,o),
(788,29,o),
(739,74,q),
(690,230,o),
(690,346,qs),
(690,356,o),
(692,365,qs),
(696,383,o),
(786,383,o),
(786,375,q),
(806,201,o),
(885,133,qs),
(963,67,o),
(1055,68,qs),
(1125,68,o),
(1229,182,o),
(1229,340,qs),
(1229,496,o),
(1022,664,o),
(848,664,qs),
(797,664,o),
(799,705,qs),
(799,723,o),
(819,762,q),
(1063,1178,ls),
(1088,1219,o),
(1085,1241,q),
(1085,1268,o),
(1063,1276,qs),
(989,1299,o),
(915,1296,q),
(667,1296,o),
(502,995,o),
(502,737,qs),
(502,203,ls),
(502,86,o),
(662,86,qs),
(674,86,o),
(674,-6,o),
(662,-6,qs),
(576,0,o),
(178,0,o),
(92,-6,qs),
(80,-6,o),
(80,86,o),
(92,86,qs),
(256,86,o),
(256,203,qs),
(256,770,ls),
(256,1073,o),
(662,1384,o),
(965,1384,qs),
(1205,1384,o),
(1360,1329,qs),
(1376,1323,o),
(1376,1303,qs),
(1376,1287,o),
(1354,1247,q),
(1055,756,l),
(1059,739,l),
(1219,739,o),
(1438,531,o),
(1438,373,q),
(1438,373,l)
);
}
);
userData = {
assembly = "NPUSHB[ ]	/* 69 values pushed */
36 1 0 5 58 1 2 6 2 76 0 0 5 6 5 0 6 128 0 6 2 5 6 2 126 0 5 5 1 97 0 1 1 74 77 4 1 2 2 3 95 0 3 3 69 77 0 7 7 8 98 0 8 8 75 8 78 44 36 41 36 34 66 20 39 18 9 11 31 
CALL[ ]	/* CallFunction */";
};
width = 1499;
}
);
note = uni1E9E;
unicode = 7838;
},
{
glyphname = T;
kernLeft = T;
kernRight = T;
layers = (
{
layerId = m01;
shapes = (
{
closed = 1;
nodes = (
(772,86,o),
(944,86,qs),
(956,86,o),
(956,-6,o),
(944,-6,qs),
(858,0,o),
(444,0,o),
(348,-6,qs),
(334,-6,o),
(336,86,o),
(348,86,qs),
(528,86,o),
(528,203,qs),
(528,1237,ls),
(528,1266,o),
(502,1266,qs),
(358,1266,ls),
(272,1266,o),
(135,1120,o),
(135,1008,qs),
(135,992,o),
(35,991,o),
(35,1008,qs),
(35,1307,ls),
(35,1342,o),
(49,1348,qs),
(74,1358,o),
(147,1358,qs),
(335,1352,o),
(950,1352,o),
(1163,1358,qs),
(1247,1358,o),
(1260,1341,qs),
(1268,1331,o),
(1268,1307,qs),
(1268,1008,ls),
(1268,992,o),
(1165,991,o),
(1165,1008,qs),
(1165,1137,o),
(1010,1266,o),
(934,1266,qs),
(807,1266,ls),
(774,1266,o),
(772,1237,q),
(772,203,ls)
);
}
);
userData = {
assembly = "NPUSHB[ ]	/* 39 values pushed */
22 6 2 3 0 1 76 2 1 0 0 1 95 0 1 1 68 77 5 1 3 3 4 95 0 4 4 69 4 78 34 66 19 57 89 49 6 11 28 
CALL[ ]	/* CallFunction */";
};
width = 1298;
}
);
note = T;
unicode = 84;
},
{
glyphname = uni0162;
kernRight = T;
layers = (
{
layerId = m01;
shapes = (
{
closed = 1;
nodes = (
(764,-399,o),
(676,-457,qs),
(602,-504,o),
(504,-504,qs),
(379,-504,o),
(352,-442,qs),
(346,-430,o),
(346,-414,qs),
(346,-371,o),
(383,-352,qs),
(395,-346,o),
(412,-346,qs),
(443,-346,o),
(487,-385,qs),
(530,-422,o),
(553,-422,qs),
(606,-422,o),
(604,-371,qs),
(604,-293,o),
(463,-229,qs),
(443,-221,o),
(442,-213,qs),
(442,-209,o),
(449,-199,qs),
(584,0,l),
(455,0,o),
(348,-6,qs),
(334,-6,o),
(336,86,o),
(348,86,qs),
(528,86,o),
(528,203,qs),
(528,1237,ls),
(528,1266,o),
(502,1266,qs),
(358,1266,ls),
(272,1266,o),
(135,1120,o),
(135,1008,qs),
(135,992,o),
(35,991,o),
(35,1008,qs),
(35,1307,ls),
(35,1342,o),
(49,1348,qs),
(74,1358,o),
(147,1358,qs),
(335,1352,o),
(950,1352,o),
(1163,1358,qs),
(1247,1358,o),
(1260,1341,qs),
(1268,1331,o),
(1268,1307,qs),
(1268,1008,ls),
(1268,992,o),
(1165,991,o),
(1165,1008,qs),
(1165,1137,o),
(1010,1266,o),
(934,1266,qs),
(807,1266,ls),
(774,1266,o),
(772,1237,q),
(772,203,ls),
(772,86,o),
(944,86,qs),
(956,86,o),
(956,-6,o),
(944,-6,qs),
(833,0,o),
(692,0,q),
(621,-96,ls),
(613,-108,o),
(612,-115,qs),
(610,-125,o),
(639,-139,qs),
(762,-204,o),
(764,-313,q),
(764,-313,l)
);
}
);
userData = {
assembly = "NPUSHB[ ]	/* 15 values pushed */
37 21 2 1 2 57 1 8 0 71 1 7 8 3 76 
MPPEM[ ]	/* MeasurePixelPerEm */
PUSHB[ ]	/* 1 value pushed */
34 
LT[ ]	/* LessThan */
IF[ ]	/* If */
NPUSHB[ ]	/* 38 values pushed */
0 8 0 7 7 8 114 0 7 0 9 7 9 102 4 1 2 2 3 95 0 3 3 68 77 5 1 1 1 0 95 6 1 0 0 69 0 78 
ELSE[ ]	/* Else */
NPUSHB[ ]	/* 39 values pushed */
0 8 0 7 0 8 7 128 0 7 0 9 7 9 102 4 1 2 2 3 95 0 3 3 68 77 5 1 1 1 0 95 6 1 0 0 69 0 78 
EIF[ ]	/* EndIf */
NPUSHB[ ]	/* 14 values pushed */
76 74 18 40 50 19 57 89 51 34 39 10 11 31 
CALL[ ]	/* CallFunction */";
};
width = 1298;
}
);
note = uni0162;
unicode = 354;
},
{
glyphname = U;
kernLeft = U;
kernRight = U;
layers = (
{
layerId = m01;
shapes = (
{
closed = 1;
nodes = (
(1323,605,o),
(1311,465,qs),
(1295,219,o),
(1155,90,qs),
(1028,-29,o),
(772,-27,qs),
(616,-27,o),
(506,14,qs),
(348,75,o),
(287,201,qs),
(236,307,o),
(223,545,q),
(223,1153,ls),
(223,1270,o),
(68,1270,qs),
(54,1270,o),
(53,1364,o),
(68,1364,qs),
(215,1360,o),
(348,1358,qs),
(493,1358,o),
(641,1364,qs),
(655,1364,o),
(655,1270,o),
(641,1270,qs),
(467,1270,o),
(469,1153,qs),
(469,686,l),
(479,406,ls),
(481,281,o),
(535,203,qs),
(625,68,o),
(811,68,qs),
(983,68,o),
(1087,172,qs),
(1177,264,o),
(1178,496,qs),
(1178,1153,ls),
(1178,1270,o),
(1020,1270,qs),
(1006,1270,o),
(1006,1364,o),
(1020,1364,qs),
(1157,1360,o),
(1249,1358,qs),
(1341,1358,o),
(1477,1364,qs),
(1491,1364,o),
(1491,1270,o),
(1477,1270,qs),
(1323,1270,o),
(1323,1153,qs),
(1323,881,ls)
);
}
);
userData = {
assembly = "NPUSHB[ ]	/* 42 values pushed */
50 1 3 0 1 76 6 4 2 3 0 0 1 95 5 1 1 1 68 77 0 3 3 7 97 0 7 7 75 7 78 39 34 82 22 37 34 82 17 8 11 30 
CALL[ ]	/* CallFunction */";
};
width = 1511;
}
);
note = U;
unicode = 85;
},
{
glyphname = Uogonek;
kernLeft = U;
layers = (
{
layerId = m01;
shapes = (
{
closed = 1;
nodes = (
(1323,605,o),
(1292,219,o),
(1155,90,qs),
(1100,39,o),
(1020,10,qs),
(770,-80,o),
(770,-246,qs),
(770,-367,o),
(893,-367,qs),
(954,-367,o),
(995,-336,q),
(1015,-342,o),
(1016,-375,q),
(940,-488,o),
(799,-487,qs),
(690,-487,o),
(594,-385,o),
(594,-303,qs),
(594,-141,o),
(782,-27,q),
(618,-27,o),
(348,76,o),
(223,307,o),
(223,545,qs),
(223,1153,ls),
(223,1270,o),
(68,1270,qs),
(54,1270,o),
(53,1364,o),
(68,1364,qs),
(215,1360,o),
(367,1358,qs),
(521,1358,o),
(641,1364,qs),
(655,1364,o),
(655,1270,o),
(641,1270,qs),
(467,1270,o),
(469,1153,qs),
(469,686,ls),
(469,278,o),
(625,68,o),
(811,68,qs),
(983,68,o),
(1178,266,o),
(1178,496,qs),
(1178,1153,ls),
(1178,1270,o),
(1020,1270,qs),
(1006,1270,o),
(1006,1364,o),
(1020,1364,qs),
(1104,1360,o),
(1247,1358,qs),
(1390,1358,o),
(1477,1364,qs),
(1491,1364,o),
(1491,1270,o),
(1477,1270,qs),
(1323,1270,o),
(1323,1153,qs),
(1323,881,ls)
);
}
);
userData = {
assembly = "NPUSHB[ ]	/* 56 values pushed */
50 1 9 7 48 1 8 9 2 76 0 9 0 8 9 8 101 6 4 2 3 0 0 1 95 5 1 1 1 68 77 0 3 3 7 97 0 7 7 75 7 78 53 51 36 21 34 82 20 36 34 82 17 10 11 31 
CALL[ ]	/* CallFunction */";
};
width = 1511;
}
);
note = Uogonek;
unicode = 370;
},
{
glyphname = V;
kernLeft = V;
kernRight = V;
layers = (
{
layerId = m01;
shapes = (
{
closed = 1;
nodes = (
(678,-39,o),
(647,-39,qs),
(612,-39,o),
(596,6,qs),
(172,1153,ls),
(131,1270,o),
(31,1270,qs),
(17,1270,o),
(16,1364,o),
(31,1364,q),
(76,1360,o),
(262,1358,qs),
(471,1358,o),
(518,1364,q),
(530,1364,o),
(530,1270,o),
(518,1270,qs),
(393,1270,o),
(393,1206,qs),
(393,1183,o),
(406,1153,q),
(686,379,ls),
(694,359,o),
(713,358,qs),
(729,358,o),
(737,383,q),
(1032,1147,l),
(1042,1178,o),
(1042,1198,qs),
(1038,1270,o),
(944,1270,qs),
(930,1270,o),
(930,1364,o),
(944,1364,qs),
(991,1360,o),
(1151,1358,qs),
(1317,1358,o),
(1364,1364,q),
(1378,1364,o),
(1378,1270,o),
(1364,1270,qs),
(1217,1270,o),
(1182,1186,qs),
(698,6,ls)
);
}
);
userData = {
assembly = "NPUSHB[ ]	/* 39 values pushed */
0 3 0 7 0 3 7 128 6 4 2 3 0 0 1 97 5 1 1 1 68 77 0 7 7 75 7 78 35 35 36 21 37 35 36 17 8 11 30 
CALL[ ]	/* CallFunction */";
};
width = 1357;
}
);
note = V;
unicode = 86;
},
{
glyphname = W;
kernLeft = V;
kernRight = V;
layers = (
{
layerId = m01;
shapes = (
{
closed = 1;
nodes = (
(1323,6,l),
(1300,-39,o),
(1272,-39,qs),
(1245,-39,o),
(1214,25,qs),
(1010,481,ls),
(1002,499,o),
(995,500,qs),
(987,500,o),
(979,479,q),
(762,6,ls),
(742,-39,o),
(684,-39,o),
(655,25,qs),
(150,1153,ls),
(99,1270,o),
(6,1270,qs),
(-8,1270,o),
(-8,1364,o),
(6,1364,qs),
(53,1360,o),
(221,1358,qs),
(407,1358,o),
(457,1364,q),
(471,1364,o),
(471,1270,o),
(457,1270,qs),
(387,1270,o),
(385,1225,q),
(389,1184,o),
(406,1153,q),
(756,375,ls),
(764,359,o),
(778,356,q),
(790,356,o),
(799,375,qs),
(920,639,ls),
(926,653,o),
(926,670,o),
(920,686,q),
(684,1208,ls),
(655,1269,o),
(602,1270,qs),
(588,1270,o),
(588,1364,o),
(602,1364,qs),
(649,1360,o),
(811,1358,qs),
(967,1358,o),
(1014,1364,q),
(1028,1364,o),
(1028,1270,o),
(1014,1270,qs),
(944,1270,o),
(944,1229,qs),
(944,1196,o),
(965,1153,qs),
(1038,991,ls),
(1046,973,o),
(1057,973,qs),
(1069,973,o),
(1081,997,qs),
(1151,1147,ls),
(1178,1202,o),
(1176,1231,qs),
(1176,1270,o),
(1122,1270,qs),
(1108,1270,o),
(1110,1364,o),
(1122,1364,qs),
(1171,1360,o),
(1298,1358,qs),
(1433,1358,o),
(1483,1364,q),
(1497,1364,o),
(1497,1270,o),
(1483,1270,qs),
(1338,1270,o),
(1298,1186,qs),
(1141,838,ls),
(1131,813,o),
(1130,799,qs),
(1130,787,o),
(1135,774,qs),
(1317,377,ls),
(1325,359,o),
(1339,358,qs),
(1351,358,o),
(1358,375,qs),
(1710,1147,ls),
(1730,1192,o),
(1731,1221,qs),
(1731,1270,o),
(1665,1270,qs),
(1651,1270,o),
(1651,1364,o),
(1665,1364,q),
(1710,1360,o),
(1853,1358,qs),
(1994,1358,o),
(2042,1364,q),
(2056,1364,o),
(2056,1270,o),
(2042,1270,qs),
(1899,1272,o),
(1860,1186,q),
(1860,1186,l)
);
}
);
userData = {
assembly = "NPUSHB[ ]	/* 78 values pushed */
77 1 7 0 24 1 3 7 2 76 0 7 0 3 0 7 3 128 0 3 14 0 3 14 126 13 11 10 8 6 4 2 7 0 0 1 97 12 9 5 3 1 1 68 77 15 1 14 14 75 14 78 104 102 94 93 90 88 85 83 79 78 64 62 59 57 21 37 35 36 24 37 35 36 17 16 11 31 
CALL[ ]	/* CallFunction */";
};
width = 2011;
}
);
note = W;
unicode = 87;
},
{
glyphname = X;
kernRight = X;
layers = (
{
layerId = m01;
shapes = (
{
closed = 1;
nodes = (
(1233,86,o),
(1368,86,qs),
(1382,86,o),
(1384,-6,o),
(1368,-6,qs),
(1288,0,o),
(1096,0,qs),
(922,0,o),
(825,-6,qs),
(811,-6,o),
(811,86,o),
(825,86,qs),
(934,86,o),
(934,133,qs),
(934,162,o),
(897,209,qs),
(655,526,ls),
(645,540,o),
(633,543,q),
(619,543,o),
(606,526,qs),
(436,299,ls),
(370,211,o),
(369,156,qs),
(367,86,o),
(469,86,qs),
(483,86,o),
(481,-6,o),
(469,-6,qs),
(391,0,o),
(238,0,qs),
(11,0,o),
(-33,-6,q),
(-45,-6,o),
(-45,86,o),
(-33,86,qs),
(119,86,o),
(188,172,qs),
(555,631,ls),
(567,647,o),
(567,664,qs),
(567,678,o),
(555,694,qs),
(199,1194,ls),
(146,1270,o),
(20,1270,qs),
(6,1270,o),
(6,1364,o),
(20,1364,qs),
(67,1360,o),
(311,1358,qs),
(553,1358,o),
(602,1364,q),
(616,1364,o),
(616,1270,o),
(602,1270,qs),
(477,1270,o),
(477,1214,qs),
(477,1191,o),
(506,1153,qs),
(702,879,ls),
(712,865,o),
(723,864,qs),
(735,864,o),
(745,879,q),
(961,1147,ls),
(996,1190,o),
(995,1217,qs),
(995,1270,o),
(913,1270,qs),
(899,1270,o),
(899,1364,o),
(913,1364,qs),
(960,1360,o),
(1135,1358,qs),
(1307,1358,o),
(1356,1364,q),
(1370,1364,o),
(1370,1270,o),
(1356,1270,qs),
(1239,1270,o),
(1147,1186,qs),
(1114,1155,o),
(1063,1092,qs),
(811,782,ls),
(795,762,o),
(793,745,qs),
(793,731,o),
(805,713,qs),
(1151,203,ls)
);
}
);
userData = {
assembly = "PUSHB[ ]	/* 5 values pushed */
84 60 2 8 73 
MPPEM[ ]	/* MeasurePixelPerEm */
PUSHB[ ]	/* 1 value pushed */
44 
LT[ ]	/* LessThan */
IF[ ]	/* If */
NPUSHB[ ]	/* 34 values pushed */
6 4 2 3 0 0 1 97 5 1 1 1 68 77 0 3 3 71 77 12 10 9 3 7 7 8 97 11 1 8 8 69 8 78 
ELSE[ ]	/* Else */
NPUSHB[ ]	/* 31 values pushed */
12 10 9 3 7 11 1 8 7 8 101 6 4 2 3 0 0 1 97 5 1 1 1 68 77 0 3 3 71 3 78 
EIF[ ]	/* EndIf */
NPUSHB[ ]	/* 20 values pushed */
88 86 83 79 77 76 64 62 36 24 35 36 21 37 35 36 24 13 11 31 
CALL[ ]	/* CallFunction */";
};
width = 1380;
}
);
note = X;
unicode = 88;
},
{
glyphname = Y;
kernLeft = Y;
kernRight = Y;
layers = (
{
layerId = m01;
shapes = (
{
closed = 1;
nodes = (
(758,86,o),
(905,86,qs),
(917,86,o),
(920,-6,o),
(905,-6,q),
(839,0,o),
(438,0,o),
(367,-6,q),
(353,-6,o),
(352,86,o),
(367,86,qs),
(514,86,o),
(514,203,qs),
(514,494,ls),
(514,562,o),
(504,588,qs),
(496,611,o),
(449,684,qs),
(152,1153,ls),
(101,1235,o),
(49,1257,qs),
(20,1269,o),
(-12,1270,qs),
(-26,1270,o),
(-29,1364,o),
(-12,1364,q),
(35,1360,o),
(248,1358,qs),
(463,1358,o),
(514,1364,q),
(528,1364,o),
(528,1270,o),
(514,1270,qs),
(403,1270,o),
(403,1217,qs),
(403,1186,o),
(424,1153,qs),
(678,750,ls),
(688,734,o),
(698,731,q),
(708,731,o),
(721,752,qs),
(987,1147,ls),
(1010,1182,o),
(1012,1206,q),
(1012,1269,o),
(905,1270,qs),
(891,1270,o),
(891,1364,o),
(905,1364,q),
(950,1360,o),
(1126,1358,qs),
(1310,1358,o),
(1360,1364,q),
(1374,1364,o),
(1374,1270,o),
(1360,1270,qs),
(1251,1270,o),
(1182,1202,qs),
(1149,1167,l),
(811,686,ls),
(772,631,o),
(766,608,qs),
(758,579,o),
(758,500,qs),
(758,203,ls)
);
}
);
userData = {
assembly = "NPUSHB[ ]	/* 48 values pushed */
20 1 6 0 1 76 60 1 7 73 5 3 2 3 0 0 1 97 4 1 1 1 68 77 8 1 6 6 7 97 0 7 7 69 7 78 35 50 26 35 36 28 35 36 23 9 11 31 
CALL[ ]	/* CallFunction */";
};
width = 1323;
}
);
note = Y;
unicode = 89;
},
{
glyphname = Z;
kernLeft = Z;
layers = (
{
layerId = m01;
shapes = (
{
closed = 1;
nodes = (
(1270,-29,o),
(1253,-29,qs),
(1228,-29,o),
(1176,-20,qs),
(1045,0,o),
(594,0,qs),
(145,0,ls),
(75,0,o),
(76,49,qs),
(76,76,o),
(92,96,qs),
(965,1237,ls),
(975,1249,o),
(975,1257,qs),
(975,1273,o),
(934,1274,qs),
(422,1274,ls),
(379,1274,o),
(350,1247,q),
(311,1216,o),
(254,1075,qs),
(223,999,o),
(219,975,q),
(219,965,o),
(195,963,qs),
(179,963,o),
(162,967,qs),
(137,975,o),
(137,987,q),
(168,1223,o),
(168,1321,qs),
(168,1368,o),
(209,1368,qs),
(211,1368,o),
(268,1360,qs),
(315,1354,o),
(330,1352,q),
(838,1352,l),
(1219,1358,ls),
(1285,1358,o),
(1284,1325,qs),
(1284,1300,o),
(1260,1268,qs),
(426,125,l),
(420,115,o),
(420,106,qs),
(420,86,o),
(453,86,qs),
(865,86,o),
(1044,98,qs),
(1097,102,o),
(1184,250,qs),
(1225,320,o),
(1235,354,qs),
(1237,360,o),
(1253,362,q),
(1288,362,o),
(1309,344,qs),
(1315,338,o),
(1315,330,q),
(1270,157,o),
(1270,18,q),
(1270,18,l)
);
}
);
userData = {
assembly = "NPUSHB[ ]	/* 15 values pushed */
33 1 4 5 16 2 2 1 0 62 1 6 1 3 76 
MPPEM[ ]	/* MeasurePixelPerEm */
PUSHB[ ]	/* 1 value pushed */
39 
LT[ ]	/* LessThan */
IF[ ]	/* If */
NPUSHB[ ]	/* 46 values pushed */
0 0 4 1 4 0 1 128 0 5 5 2 97 3 1 2 2 68 77 0 4 4 2 97 3 1 2 2 68 77 0 1 1 6 95 0 6 6 69 77 0 7 7 75 7 78 
ELSE[ ]	/* Else */
MPPEM[ ]	/* MeasurePixelPerEm */
PUSHB[ ]	/* 1 value pushed */
44 
LT[ ]	/* LessThan */
IF[ ]	/* If */
NPUSHB[ ]	/* 44 values pushed */
0 0 4 1 4 0 1 128 0 5 5 2 95 0 2 2 68 77 0 4 4 3 97 0 3 3 68 77 0 1 1 6 95 0 6 6 69 77 0 7 7 75 7 78 
ELSE[ ]	/* Else */
NPUSHB[ ]	/* 42 values pushed */
0 0 4 1 4 0 1 128 0 1 0 6 7 1 6 103 0 5 5 2 95 0 2 2 68 77 0 4 4 3 97 0 3 3 68 77 0 7 7 75 7 78 
EIF[ ]	/* EndIf */
EIF[ ]	/* EndIf */
NPUSHB[ ]	/* 11 values pushed */
18 55 54 38 35 55 54 21 8 11 30 
CALL[ ]	/* CallFunction */";
};
width = 1316;
}
);
note = Z;
unicode = 90;
},
{
glyphname = uni0186;
layers = (
{
layerId = m01;
shapes = (
{
closed = 1;
nodes = (
(59,1093,o),
(106,1214,qs),
(135,1286,o),
(158,1323,q),
(205,1329,o),
(246,1341,qs),
(400,1384,o),
(604,1384,qs),
(866,1384,o),
(1063,1235,qs),
(1321,1036,o),
(1321,711,qs),
(1321,441,o),
(1167,244,qs),
(954,-26,o),
(580,-27,qs),
(451,-27,o),
(242,16,qs),
(187,26,o),
(135,29,q),
(106,88,o),
(96,303,qs),
(94,354,ls),
(94,372,o),
(137,377,q),
(184,379,o),
(188,362,q),
(206,153,o),
(399,88,qs),
(479,61,o),
(586,61,qs),
(793,61,o),
(1047,397,o),
(1047,653,qs),
(1047,977,o),
(877,1155,qs),
(748,1290,o),
(590,1290,qs),
(248,1290,o),
(150,1014,qs),
(144,996,o),
(92,1008,qs),
(55,1016,o),
(55,1036,q),
(55,1036,l)
);
}
);
userData = {
assembly = "MPPEM[ ]	/* MeasurePixelPerEm */
PUSHB[ ]	/* 1 value pushed */
10 
LT[ ]	/* LessThan */
IF[ ]	/* If */
NPUSHB[ ]	/* 29 values pushed */
0 2 0 3 4 2 3 105 0 0 0 5 97 0 5 5 74 77 0 1 1 4 97 0 4 4 75 4 78 
ELSE[ ]	/* Else */
MPPEM[ ]	/* MeasurePixelPerEm */
PUSHB[ ]	/* 1 value pushed */
14 
LT[ ]	/* LessThan */
IF[ ]	/* If */
NPUSHB[ ]	/* 31 values pushed */
0 0 0 5 97 0 5 5 74 77 0 2 2 3 97 0 3 3 69 77 0 1 1 4 97 0 4 4 75 4 78 
ELSE[ ]	/* Else */
MPPEM[ ]	/* MeasurePixelPerEm */
PUSHB[ ]	/* 1 value pushed */
18 
LT[ ]	/* LessThan */
IF[ ]	/* If */
NPUSHB[ ]	/* 29 values pushed */
0 2 0 3 4 2 3 105 0 0 0 5 97 0 5 5 74 77 0 1 1 4 97 0 4 4 75 4 78 
ELSE[ ]	/* Else */
MPPEM[ ]	/* MeasurePixelPerEm */
PUSHB[ ]	/* 1 value pushed */
20 
LT[ ]	/* LessThan */
IF[ ]	/* If */
NPUSHB[ ]	/* 31 values pushed */
0 0 0 5 97 0 5 5 74 77 0 2 2 3 97 0 3 3 69 77 0 1 1 4 97 0 4 4 75 4 78 
ELSE[ ]	/* Else */
NPUSHB[ ]	/* 29 values pushed */
0 2 0 3 4 2 3 105 0 0 0 5 97 0 5 5 74 77 0 1 1 4 97 0 4 4 75 4 78 
EIF[ ]	/* EndIf */
EIF[ ]	/* EndIf */
EIF[ ]	/* EndIf */
EIF[ ]	/* EndIf */
NPUSHB[ ]	/* 9 values pushed */
38 34 21 20 37 37 6 11 28 
CALL[ ]	/* CallFunction */";
};
width = 1347;
}
);
note = uni0186;
unicode = 390;
},
{
glyphname = uni0190;
layers = (
{
layerId = m01;
shapes = (
{
closed = 1;
nodes = (
(850,918,o),
(768,918,o),
(768,930,qs),
(768,1043,o),
(649,1182,o),
(571,1182,qs),
(436,1182,o),
(383,1104,qs),
(354,1061,o),
(354,1004,qs),
(354,881,o),
(457,821,qs),
(514,788,o),
(668,788,qs),
(709,788,o),
(709,727,qs),
(709,643,o),
(666,664,q),
(621,680,o),
(549,674,qs),
(438,664,o),
(385,610,qs),
(305,530,o),
(305,395,qs),
(305,286,o),
(352,217,qs),
(405,139,o),
(455,115,qs),
(494,95,o),
(590,96,qs),
(699,98,o),
(782,166,qs),
(794,176,o),
(852,115,o),
(838,100,qs),
(715,-25,o),
(561,-23,qs),
(358,-23,o),
(61,231,o),
(61,422,qs),
(61,701,o),
(344,754,qs),
(375,760,o),
(377,768,q),
(377,776,o),
(340,795,qs),
(135,899,o),
(135,1071,qs),
(135,1184,o),
(313,1356,o),
(436,1356,qs),
(518,1356,o),
(633,1311,o),
(723,1243,o),
(733,1243,qs),
(753,1243,o),
(774,1296,o),
(774,1321,qs),
(774,1335,o),
(850,1333,o),
(850,1321,qs),
(850,928,ls)
);
}
);
userData = {
assembly = "NPUSHB[ ]	/* 56 values pushed */
0 1 0 1 58 1 4 5 2 76 0 0 1 5 1 0 5 128 0 4 5 3 5 4 3 128 0 5 5 1 97 0 1 1 68 77 0 3 3 2 98 0 2 2 69 2 78 38 46 37 44 35 21 6 11 28 
CALL[ ]	/* CallFunction */";
};
width = 954;
}
);
note = uni0190;
unicode = 400;
},
{
glyphname = uni019D;
layers = (
{
layerId = m01;
shapes = (
{
closed = 1;
nodes = (
(223,1270,o),
(51,1270,qs),
(39,1270,o),
(39,1364,o),
(51,1364,qs),
(114,1360,o),
(227,1358,qs),
(311,1358,o),
(326,1356,qs),
(387,1348,o),
(426,1298,qs),
(1137,432,l),
(1147,418,o),
(1161,418,qs),
(1186,418,o),
(1186,449,qs),
(1186,1151,ls),
(1186,1270,o),
(1032,1270,qs),
(1018,1270,o),
(1018,1364,o),
(1032,1364,qs),
(1130,1360,o),
(1231,1358,qs),
(1299,1358,o),
(1423,1364,qs),
(1437,1364,o),
(1438,1270,o),
(1423,1270,qs),
(1288,1270,o),
(1288,1151,qs),
(1288,76,ls),
(1288,-20,o),
(1257,-20,qs),
(1230,-20,o),
(1184,37,qs),
(360,1014,l),
(348,1030,o),
(342,1030,qs),
(330,1030,o),
(328,1008,q),
(328,63,l),
(326,-111,ls),
(326,-224,o),
(260,-334,q),
(246,-361,o),
(229,-385,qs),
(135,-520,o),
(-29,-518,qs),
(-86,-518,o),
(-123,-483,qs),
(-158,-450,o),
(-158,-403,qs),
(-158,-376,o),
(-139,-342,o),
(-125,-330,q),
(-98,-312,o),
(-61,-313,qs),
(-8,-315,o),
(39,-356,qs),
(66,-379,o),
(78,-385,q),
(82,-385,ls),
(119,-383,o),
(164,-319,qs),
(225,-231,o),
(223,-135,qs),
(223,1155,ls)
);
}
);
userData = {
assembly = "PUSHB[ ]	/* 6 values pushed */
26 1 7 4 1 76 
MPPEM[ ]	/* MeasurePixelPerEm */
PUSHB[ ]	/* 1 value pushed */
25 
LT[ ]	/* LessThan */
IF[ ]	/* If */
NPUSHB[ ]	/* 44 values pushed */
0 7 4 3 4 7 3 128 0 1 3 0 0 1 114 9 6 2 4 4 5 95 8 1 5 5 68 77 0 3 3 69 77 0 0 0 2 98 0 2 2 73 2 78 
ELSE[ ]	/* Else */
MPPEM[ ]	/* MeasurePixelPerEm */
PUSHB[ ]	/* 1 value pushed */
37 
LT[ ]	/* LessThan */
IF[ ]	/* If */
NPUSHB[ ]	/* 41 values pushed */
0 7 4 3 4 7 3 128 0 1 3 0 0 1 114 0 0 0 2 0 2 102 9 6 2 4 4 5 95 8 1 5 5 68 77 0 3 3 69 3 78 
ELSE[ ]	/* Else */
NPUSHB[ ]	/* 42 values pushed */
0 7 4 3 4 7 3 128 0 1 3 0 3 1 0 128 0 0 0 2 0 2 102 9 6 2 4 4 5 95 8 1 5 5 68 77 0 3 3 69 3 78 
EIF[ ]	/* EndIf */
EIF[ ]	/* EndIf */
NPUSHB[ ]	/* 14 values pushed */
66 64 69 19 34 82 19 45 39 36 19 10 11 31 
CALL[ ]	/* CallFunction */";
};
width = 1480;
}
);
note = uni019D;
unicode = 413;
},
{
glyphname = uni01E4;
layers = (
{
layerId = m01;
shapes = (
{
closed = 1;
nodes = (
(1282,115,o),
(1325,115,qs),
(1339,115,o),
(1339,35,o),
(1325,35,qs),
(1276,35,o),
(1128,10,qs),
(903,-29,o),
(770,-27,qs),
(506,-27,o),
(307,127,qs),
(53,326,o),
(55,647,qs),
(55,913,o),
(207,1110,qs),
(420,1384,o),
(795,1384,qs),
(938,1384,o),
(1112,1348,qs),
(1194,1330,o),
(1239,1329,q),
(1270,1266,o),
(1278,1055,qs),
(1280,1004,ls),
(1280,986,o),
(1188,979,o),
(1186,995,qs),
(1166,1206,o),
(975,1270,qs),
(895,1297,o),
(788,1296,qs),
(581,1296,o),
(328,961,o),
(328,705,qs),
(328,381,o),
(500,203,qs),
(629,68,o),
(784,68,qs),
(901,68,o),
(977,92,qs),
(1038,112,o),
(1038,160,qs),
(1038,279,l),
(844,279,ls),
(826,279,o),
(825,383,o),
(844,383,qs),
(1038,383,l),
(1038,459,ls),
(1038,537,o),
(926,537,qs),
(846,537,ls),
(832,537,o),
(831,629,o),
(846,627,qs),
(920,621,o),
(1319,621,o),
(1391,627,qs),
(1403,627,o),
(1405,537,o),
(1391,537,qs),
(1282,537,o),
(1282,459,qs),
(1282,383,l),
(1417,383,ls),
(1437,383,o),
(1438,279,o),
(1415,279,qs),
(1282,279,l),
(1282,160,ls)
);
}
);
userData = {
assembly = "PUSHB[ ]	/* 6 values pushed */
14 1 3 8 1 76 
MPPEM[ ]	/* MeasurePixelPerEm */
PUSHB[ ]	/* 1 value pushed */
34 
LT[ ]	/* LessThan */
IF[ ]	/* If */
NPUSHB[ ]	/* 53 values pushed */
0 3 4 1 2 1 3 2 105 5 1 1 6 1 0 13 1 0 105 0 13 0 12 11 13 12 105 0 9 9 68 77 0 8 8 10 97 0 10 10 74 77 0 7 7 11 97 0 11 11 75 11 78 
ELSE[ ]	/* Else */
NPUSHB[ ]	/* 56 values pushed */
0 9 10 8 10 9 8 128 0 3 4 1 2 1 3 2 105 5 1 1 6 1 0 13 1 0 105 0 13 0 12 11 13 12 105 0 8 8 10 97 0 10 10 74 77 0 7 7 11 97 0 11 11 75 11 78 
EIF[ ]	/* EndIf */
NPUSHB[ ]	/* 22 values pushed */
68 66 64 63 61 59 53 51 49 48 37 36 34 18 51 20 18 33 32 14 11 31 
CALL[ ]	/* CallFunction */";
};
width = 1441;
}
);
note = uni01E4;
unicode = 484;
},
{
glyphname = uni01F6;
layers = (
{
layerId = m01;
shapes = (
{
closed = 1;
nodes = (
(1700,-31,o),
(1913,66,o),
(2044,259,o),
(2044,397,qs),
(2044,500,o),
(1978,695,o),
(1846,821,o),
(1752,821,qs),
(1718,821,o),
(1639,785,o),
(1586,729,o),
(1587,703,q),
(1686,682,o),
(1793,521,o),
(1793,392,qs),
(1793,307,o),
(1735,149,o),
(1635,51,o),
(1575,51,qs),
(1510,51,o),
(1432,144,o),
(1432,225,qs),
(1432,1153,ls),
(1432,1270,o),
(1595,1270,qs),
(1602,1270,o),
(1610,1299,o),
(1610,1318,qs),
(1610,1337,o),
(1602,1364,o),
(1595,1364,q),
(1548,1358,o),
(1311,1358,qs),
(1073,1358,o),
(1028,1364,q),
(1021,1364,o),
(1013,1336,o),
(1013,1316,qs),
(1013,1297,o),
(1021,1270,o),
(1028,1270,qs),
(1188,1270,o),
(1188,1153,qs),
(1188,782,ls),
(1188,748,o),
(1153,748,qs),
(516,748,ls),
(481,748,o),
(481,782,qs),
(481,1153,ls),
(481,1270,o),
(643,1270,qs),
(650,1270,o),
(658,1299,o),
(658,1318,qs),
(658,1337,o),
(650,1364,o),
(643,1364,qs),
(591,1359,o),
(360,1359,qs),
(128,1359,o),
(76,1364,qs),
(69,1364,o),
(61,1336,o),
(61,1316,qs),
(61,1297,o),
(69,1270,o),
(76,1270,qs),
(238,1270,o),
(238,1153,qs),
(238,203,ls),
(238,86,o),
(76,86,qs),
(69,86,o),
(61,58,o),
(61,39,qs),
(61,20,o),
(69,-6,o),
(76,-6,qs),
(200,0,o),
(353,0,qs),
(506,0,o),
(639,-6,qs),
(646,-6,o),
(654,22,o),
(654,41,qs),
(654,60,o),
(646,86,o),
(639,86,qs),
(481,86,o),
(481,203,qs),
(481,618,ls),
(481,653,o),
(516,653,qs),
(1153,653,ls),
(1188,653,o),
(1188,618,qs),
(1188,225,ls),
(1188,144,o),
(1300,28,o),
(1478,-31,o),
(1577,-31,qs)
);
}
);
userData = {
assembly = "NPUSHB[ ]	/* 11 values pushed */
89 1 0 7 1 76 70 43 2 5 74 
MPPEM[ ]	/* MeasurePixelPerEm */
PUSHB[ ]	/* 1 value pushed */
14 
LT[ ]	/* LessThan */
IF[ ]	/* If */
NPUSHB[ ]	/* 50 values pushed */
0 7 0 0 1 7 0 103 10 8 6 3 4 4 5 97 9 1 5 5 68 77 0 12 12 71 77 3 1 1 1 2 95 0 2 2 69 77 0 11 11 13 97 14 1 13 13 75 13 78 
ELSE[ ]	/* Else */
MPPEM[ ]	/* MeasurePixelPerEm */
PUSHB[ ]	/* 1 value pushed */
15 
LT[ ]	/* LessThan */
IF[ ]	/* If */
NPUSHB[ ]	/* 53 values pushed */
0 12 4 7 4 12 7 128 0 7 0 0 1 7 0 103 10 8 6 3 4 4 5 97 9 1 5 5 68 77 3 1 1 1 2 95 0 2 2 69 77 0 11 11 13 97 14 1 13 13 75 13 78 
ELSE[ ]	/* Else */
MPPEM[ ]	/* MeasurePixelPerEm */
PUSHB[ ]	/* 1 value pushed */
20 
LT[ ]	/* LessThan */
IF[ ]	/* If */
NPUSHB[ ]	/* 50 values pushed */
0 7 0 0 1 7 0 103 10 8 6 3 4 4 5 97 9 1 5 5 68 77 0 12 12 71 77 3 1 1 1 2 95 0 2 2 69 77 0 11 11 13 97 14 1 13 13 75 13 78 
ELSE[ ]	/* Else */
NPUSHB[ ]	/* 53 values pushed */
0 12 4 7 4 12 7 128 0 7 0 0 1 7 0 103 10 8 6 3 4 4 5 97 9 1 5 5 68 77 3 1 1 1 2 95 0 2 2 69 77 0 11 11 13 97 14 1 13 13 75 13 78 
EIF[ ]	/* EndIf */
EIF[ ]	/* EndIf */
EIF[ ]	/* EndIf */
NPUSHB[ ]	/* 26 values pushed */
0 0 0 101 0 100 94 92 83 81 77 75 69 67 19 51 38 39 19 37 85 19 53 15 11 31 
CALL[ ]	/* CallFunction */";
};
width = 2105;
}
);
note = uni01F6;
unicode = 502;
},
{
glyphname = uni01F7;
layers = (
{
layerId = m01;
shapes = (
{
closed = 1;
nodes = (
(500,176,ls),
(451,100,o),
(438,41,o),
(438,-6,qs),
(438,-236,ls),
(438,-310,o),
(303,-416,qs),
(170,-518,l),
(166,-520,o),
(160,-520,qs),
(133,-520,o),
(63,-444,o),
(63,-422,qs),
(63,-414,o),
(70,-408,qs),
(168,-322,o),
(186,-260,qs),
(194,-237,o),
(195,-213,qs),
(195,1155,ls),
(195,1237,o),
(109,1257,qs),
(74,1265,o),
(25,1266,qs),
(11,1266,o),
(10,1358,o),
(25,1358,qs),
(168,1352,o),
(350,1352,qs),
(532,1352,o),
(905,1358,o),
(1087,1358,qs),
(1173,1358,o),
(1174,1300,qs),
(1173,1256,o),
(1159,1233,q),
(1159,1233,l)
);
},
{
closed = 1;
nodes = (
(1044,1239,o),
(1044,1245,qs),
(1044,1265,o),
(1012,1266,qs),
(479,1264,ls),
(438,1264,o),
(438,1231,qs),
(438,346,ls),
(438,328,o),
(465,328,o),
(471,340,q),
(1040,1233,ls)
);
}
);
userData = {
assembly = "PUSHB[ ]	/* 7 values pushed */
46 23 2 2 1 1 76 
MPPEM[ ]	/* MeasurePixelPerEm */
PUSHB[ ]	/* 1 value pushed */
25 
LT[ ]	/* LessThan */
IF[ ]	/* If */
NPUSHB[ ]	/* 17 values pushed */
3 1 1 1 0 95 0 0 0 68 77 0 2 2 73 2 78 
ELSE[ ]	/* Else */
NPUSHB[ ]	/* 17 values pushed */
0 2 1 2 134 3 1 1 1 0 95 0 0 0 68 1 78 
EIF[ ]	/* EndIf */
PUSHB[ ]	/* 8 values pushed */
45 42 28 34 99 4 11 25 
CALL[ ]	/* CallFunction */";
};
width = 1148;
}
);
note = uni01F7;
unicode = 503;
},
{
glyphname = uni0228;
layers = (
{
layerId = m01;
shapes = (
{
closed = 1;
nodes = (
(690,-399,o),
(602,-457,qs),
(528,-504,o),
(430,-504,qs),
(305,-504,o),
(281,-442,q),
(275,-430,o),
(274,-414,qs),
(274,-371,o),
(309,-352,qs),
(321,-346,o),
(340,-346,qs),
(371,-346,o),
(414,-385,qs),
(457,-422,o),
(479,-422,qs),
(532,-422,o),
(532,-371,qs),
(532,-293,o),
(389,-229,qs),
(369,-221,o),
(371,-213,q),
(371,-209,o),
(377,-199,qs),
(510,0,l),
(373,0,ls),
(211,0,o),
(76,-6,qs),
(62,-6,o),
(59,86,o),
(76,86,qs),
(238,86,o),
(238,203,qs),
(238,1155,ls),
(238,1264,o),
(66,1266,qs),
(52,1266,o),
(51,1358,o),
(66,1358,qs),
(209,1352,o),
(365,1352,qs),
(521,1352,o),
(950,1358,o),
(1071,1358,qs),
(1128,1358,o),
(1128,1307,qs),
(1128,1001,ls),
(1128,985,o),
(1028,983,o),
(1028,1001,qs),
(1028,1130,o),
(930,1206,qs),
(869,1253,o),
(805,1255,qs),
(508,1266,ls),
(481,1266,o),
(481,1225,qs),
(481,717,ls),
(481,688,o),
(510,686,q),
(645,686,ls),
(768,686,o),
(768,778,qs),
(768,877,ls),
(768,891,o),
(872,891,o),
(872,877,q),
(866,809,o),
(866,481,o),
(872,420,q),
(872,406,o),
(768,403,o),
(768,420,qs),
(768,506,ls),
(768,594,o),
(645,594,qs),
(510,594,ls),
(481,594,o),
(481,563,qs),
(481,221,ls),
(481,143,o),
(555,106,qs),
(594,86,o),
(637,86,qs),
(860,90,ls),
(1018,92,o),
(1065,227,qs),
(1083,276,o),
(1083,344,qs),
(1083,360,o),
(1186,360,o),
(1186,344,qs),
(1186,57,ls),
(1186,-6,o),
(1067,-6,qs),
(881,-6,o),
(709,-4,qs),
(664,-4,o),
(616,-2,q),
(549,-96,ls),
(541,-108,o),
(539,-115,q),
(539,-125,o),
(567,-139,qs),
(690,-204,o),
(690,-313,q),
(690,-313,l)
);
}
);
userData = {
assembly = "NPUSHB[ ]	/* 20 values pushed */
56 39 2 3 4 33 14 2 1 2 84 1 10 0 98 1 9 10 4 76 
MPPEM[ ]	/* MeasurePixelPerEm */
PUSHB[ ]	/* 1 value pushed */
34 
LT[ ]	/* LessThan */
IF[ ]	/* If */
NPUSHB[ ]	/* 46 values pushed */
0 10 0 9 9 10 114 0 3 0 2 1 3 2 105 0 9 0 11 9 11 102 6 1 4 4 5 95 0 5 5 68 77 7 1 1 1 0 95 8 1 0 0 69 0 78 
ELSE[ ]	/* Else */
NPUSHB[ ]	/* 47 values pushed */
0 10 0 9 0 10 9 128 0 3 0 2 1 3 2 105 0 9 0 11 9 11 102 6 1 4 4 5 95 0 5 5 68 77 7 1 1 1 0 95 8 1 0 0 69 0 78 
EIF[ ]	/* EndIf */
NPUSHB[ ]	/* 18 values pushed */
103 101 94 93 91 89 66 19 34 104 51 61 53 56 87 12 11 31 
CALL[ ]	/* CallFunction */";
};
width = 1249;
}
);
note = uni0228;
unicode = 552;
},
{
glyphname = T.alt;
kernRight = T;
layers = (
{
layerId = m01;
shapes = (
{
closed = 1;
nodes = (
(930,86,o),
(1102,86,qs),
(1114,86,o),
(1114,41,qs),
(1114,-6,o),
(1102,-6,qs),
(963,0,o),
(811,0,qs),
(639,0,o),
(506,-6,qs),
(492,-6,o),
(492,39,qs),
(492,86,o),
(506,86,qs),
(686,86,o),
(686,203,qs),
(686,1237,ls),
(686,1266,o),
(659,1266,qs),
(464,1260,o),
(358,1255,qs),
(307,1253,o),
(244,1204,qs),
(142,1120,o),
(135,1008,qs),
(135,992,o),
(88,991,qs),
(35,991,o),
(35,1008,qs),
(35,1307,ls),
(35,1342,o),
(49,1348,qs),
(67,1358,o),
(147,1358,qs),
(575,1352,o),
(807,1352,qs),
(1036,1352,o),
(1479,1358,qs),
(1563,1358,o),
(1575,1341,qs),
(1583,1331,o),
(1581,1307,q),
(1581,1008,ls),
(1581,992,o),
(1534,991,qs),
(1481,991,o),
(1481,1008,qs),
(1481,1137,o),
(1366,1210,qs),
(1303,1253,o),
(1249,1255,qs),
(1143,1259,o),
(963,1266,qs),
(930,1266,o),
(930,1237,qs),
(930,203,ls)
);
}
);
userData = {
assembly = "PUSHB[ ]	/* 8 values pushed */
51 43 26 13 8 5 2 73 
MPPEM[ ]	/* MeasurePixelPerEm */
PUSHB[ ]	/* 1 value pushed */
10 
LT[ ]	/* LessThan */
IF[ ]	/* If */
NPUSHB[ ]	/* 28 values pushed */
3 1 1 5 0 0 1 117 4 1 0 0 2 0 2 100 7 1 5 5 6 95 0 6 6 33 5 78 
ELSE[ ]	/* Else */
NPUSHB[ ]	/* 29 values pushed */
3 1 1 5 0 5 1 0 131 4 1 0 0 2 0 2 100 7 1 5 5 6 95 0 6 6 33 5 78 
EIF[ ]	/* EndIf */
NPUSHB[ ]	/* 11 values pushed */
35 83 19 68 22 101 21 65 8 7 30 
CALL[ ]	/* CallFunction */";
};
width = 1613;
}
);
note = T.alt;
},
{
glyphname = Thorn.nordic;
layers = (
{
layerId = m01;
shapes = (
{
closed = 1;
nodes = (
(924,799,o),
(842,885,qs),
(744,989,o),
(563,987,qs),
(497,987,o),
(485,975,q),
(481,969,o),
(481,958,qs),
(481,426,ls),
(481,393,o),
(512,389,qs),
(549,385,o),
(592,385,qs),
(836,385,o),
(903,557,qs),
(924,610,o),
(924,678,q),
(924,678,l)
);
},
{
closed = 1;
nodes = (
(1180,488,o),
(1008,387,qs),
(869,305,o),
(653,305,qs),
(585,305,o),
(516,309,qs),
(481,311,o),
(481,279,qs),
(481,203,ls),
(479,86,o),
(639,86,qs),
(653,86,o),
(653,41,qs),
(651,-6,o),
(639,-6,qs),
(533,0,o),
(360,0,qs),
(161,0,o),
(76,-6,qs),
(62,-6,o),
(59,86,o),
(76,86,qs),
(238,86,o),
(238,203,qs),
(238,1153,ls),
(238,1270,o),
(76,1270,qs),
(62,1270,o),
(61,1364,o),
(76,1364,qs),
(137,1360,o),
(582,1358,o),
(643,1364,q),
(657,1364,o),
(657,1270,o),
(643,1270,qs),
(479,1270,o),
(481,1153,qs),
(481,1065,l),
(659,1067,ls),
(872,1071,o),
(1022,969,qs),
(1180,858,o),
(1180,678,q),
(1180,678,l)
);
}
);
userData = {
assembly = "NPUSHB[ ]	/* 55 values pushed */
49 9 2 4 73 0 9 0 0 1 9 0 109 0 1 0 2 3 1 2 107 5 1 3 0 4 3 4 101 8 1 6 6 7 95 0 7 7 33 6 78 59 55 35 82 19 34 36 18 39 39 35 10 7 31 
CALL[ ]	/* CallFunction */";
};
width = 1212;
}
);
note = Thorn.nordic;
},
{
glyphname = a;
kernLeft = a;
kernRight = a;
layers = (
{
layerId = m01;
shapes = (
{
closed = 1;
nodes = (
(809,-25,o),
(676,-25,qs),
(584,-25,o),
(514,57,qs),
(500,75,o),
(494,76,q),
(482,76,o),
(465,59,qs),
(383,-23,o),
(266,-23,qs),
(141,-23,o),
(88,61,qs),
(61,104,o),
(63,162,qs),
(63,283,o),
(274,393,q),
(426,465,l),
(461,485,o),
(461,512,qs),
(461,702,ls),
(461,774,o),
(356,774,qs),
(276,774,o),
(240,723,q),
(232,709,o),
(229,647,qs),
(229,612,o),
(225,596,qs),
(200,508,o),
(133,508,qs),
(43,508,o),
(43,586,qs),
(43,654,o),
(98,729,qs),
(129,772,o),
(164,795,qs),
(285,871,o),
(428,870,qs),
(541,870,o),
(623,813,qs),
(689,770,o),
(690,707,qs),
(690,199,ls),
(690,84,o),
(758,86,q),
(789,84,o),
(829,121,qs),
(837,129,o),
(856,113,q),
(870,98,o),
(866,88,q),
(866,88,l)
);
},
{
closed = 1;
nodes = (
(461,375,ls),
(461,398,o),
(446,397,qs),
(440,397,o),
(434,395,q),
(293,323,o),
(293,205,qs),
(293,88,o),
(365,88,qs),
(461,89,o),
(461,193,q),
(461,193,l)
);
}
);
userData = {
assembly = "NPUSHB[ ]	/* 41 values pushed */
0 2 3 0 3 2 0 128 0 3 3 1 97 0 1 1 71 77 6 1 0 0 4 97 5 1 4 4 69 4 78 35 38 42 38 38 37 37 7 11 29 
CALL[ ]	/* CallFunction */";
};
width = 858;
}
);
note = a;
unicode = 97;
},
{
glyphname = aogonek;
layers = (
{
layerId = m01;
shapes = (
{
closed = 1;
nodes = (
(461,375,ls),
(461,398,o),
(446,397,qs),
(440,397,o),
(434,395,q),
(293,323,o),
(293,205,qs),
(293,88,o),
(365,88,qs),
(461,89,o),
(461,193,q),
(461,193,l)
);
},
{
closed = 1;
nodes = (
(545,20,o),
(514,57,qs),
(500,75,o),
(494,76,q),
(482,76,o),
(465,59,qs),
(383,-23,o),
(266,-23,qs),
(141,-23,o),
(88,61,qs),
(61,104,o),
(63,162,qs),
(63,283,o),
(274,393,q),
(426,465,l),
(461,485,o),
(461,512,qs),
(461,702,ls),
(461,774,o),
(356,774,qs),
(276,774,o),
(240,723,q),
(232,709,o),
(229,647,qs),
(229,612,o),
(225,596,qs),
(200,508,o),
(133,508,qs),
(43,508,o),
(43,586,qs),
(43,654,o),
(98,729,qs),
(129,772,o),
(164,795,qs),
(285,871,o),
(428,870,qs),
(541,870,o),
(623,813,qs),
(689,770,o),
(690,707,qs),
(690,199,ls),
(690,84,o),
(758,86,q),
(789,84,o),
(829,121,qs),
(837,129,o),
(856,113,qs),
(870,99,o),
(866,88,q),
(809,-25,o),
(678,-25,q),
(576,-152,o),
(573,-246,qs),
(573,-367,o),
(696,-367,qs),
(757,-367,o),
(801,-336,q),
(821,-342,o),
(819,-375,q),
(743,-488,o),
(602,-487,qs),
(397,-487,o),
(397,-303,qs),
(398,-162,o),
(580,0,q),
(580,0,l)
);
}
);
userData = {
assembly = "NPUSHB[ ]	/* 65 values pushed */
20 1 2 3 18 1 1 2 2 76 28 1 0 1 75 0 6 7 0 7 6 0 128 0 2 0 1 2 1 101 0 7 7 5 97 0 5 5 71 77 4 1 0 0 3 97 8 1 3 3 69 3 78 42 38 38 37 38 19 36 44 33 9 11 31 
CALL[ ]	/* CallFunction */";
};
width = 858;
}
);
note = aogonek;
unicode = 261;
},
{
glyphname = ae;
layers = (
{
layerId = m01;
shapes = (
{
closed = 1;
nodes = (
(1029,-22,o),
(815,-23,qs),
(711,-23,o),
(618,45,qs),
(589,65,o),
(569,92,qs),
(553,115,o),
(543,115,qs),
(535,115,o),
(510,92,q),
(451,24,o),
(393,4,qs),
(352,-10,o),
(297,-10,qs),
(145,-10,o),
(90,78,qs),
(67,115,o),
(68,162,qs),
(68,316,o),
(227,381,qs),
(434,471,ls),
(469,485,o),
(469,530,qs),
(469,678,ls),
(469,789,o),
(371,788,qs),
(305,788,o),
(260,727,qs),
(252,715,o),
(252,678,qs),
(252,637,ls),
(252,561,o),
(207,526,qs),
(182,508,o),
(147,508,qs),
(59,508,o),
(59,588,qs),
(59,654,o),
(115,727,qs),
(146,768,o),
(176,788,qs),
(313,870,o),
(426,870,qs),
(530,870,o),
(602,813,q),
(629,788,o),
(653,788,o),
(676,809,q),
(754,870,o),
(856,870,qs),
(1038,870,o),
(1133,782,q),
(1172,741,o),
(1171,717,qs),
(1171,690,o),
(1114,666,qs),
(727,504,ls),
(686,488,o),
(686,424,qs),
(686,336,o),
(739,250,qs),
(813,133,o),
(934,133,qs),
(1014,133,o),
(1094,180,qs),
(1108,188,o),
(1116,199,q),
(1130,211,o),
(1157,190,q),
(1184,164,o),
(1176,154,q),
(1176,154,l)
);
},
{
closed = 1;
nodes = (
(975,742,o),
(936,768,qs),
(903,788,o),
(866,788,qs),
(807,788,o),
(748,713,qs),
(703,654,o),
(700,606,qs),
(700,590,o),
(715,590,q),
(958,688,ls),
(975,695,o),
(975,713,q),
(975,713,l)
);
},
{
closed = 1;
nodes = (
(480,264,o),
(469,367,qs),
(467,390,o),
(455,389,qs),
(447,389,o),
(436,383,qs),
(297,305,o),
(297,190,qs),
(297,129,o),
(342,102,qs),
(360,92,o),
(381,92,qs),
(426,92,o),
(479,160,qs),
(497,185,o),
(498,205,qs),
(498,215,o),
(494,225,q),
(494,225,l)
);
}
);
userData = {
assembly = "NPUSHB[ ]	/* 13 values pushed */
85 77 75 3 4 2 100 88 2 0 4 2 76 
MPPEM[ ]	/* MeasurePixelPerEm */
PUSHB[ ]	/* 1 value pushed */
39 
LT[ ]	/* LessThan */
IF[ ]	/* If */
NPUSHB[ ]	/* 47 values pushed */
0 2 5 4 5 2 4 128 0 4 0 5 4 0 126 0 9 0 6 0 9 6 128 8 1 5 5 1 97 3 1 1 1 71 77 0 0 0 6 97 7 1 6 6 69 6 78 
ELSE[ ]	/* Else */
NPUSHB[ ]	/* 51 values pushed */
0 2 5 4 5 2 4 128 0 4 0 5 4 0 126 0 9 0 6 0 9 6 128 8 1 5 5 1 97 3 1 1 1 71 77 0 6 6 69 77 0 0 0 7 97 0 7 7 69 7 78 
EIF[ ]	/* EndIf */
NPUSHB[ ]	/* 14 values pushed */
93 91 42 42 42 39 38 34 18 43 39 10 11 31 
CALL[ ]	/* CallFunction */";
};
width = 1236;
}
);
note = ae;
unicode = 230;
},
{
glyphname = b;
kernLeft = b;
layers = (
{
layerId = m01;
shapes = (
{
closed = 1;
nodes = (
(981,233,o),
(868,104,qs),
(757,-23,o),
(537,-23,qs),
(480,-23,o),
(408,6,qs),
(353,31,o),
(303,31,qs),
(287,31,o),
(248,-2,qs),
(229,-18,l),
(225,-20,o),
(215,-20,qs),
(184,-20,o),
(141,12,qs),
(123,26,o),
(123,35,q),
(129,66,o),
(129,279,qs),
(129,1161,ls),
(129,1286,o),
(35,1286,qs),
(19,1286,o),
(18,1323,qs),
(18,1362,o),
(35,1360,q),
(84,1360,o),
(221,1425,qs),
(289,1458,o),
(309,1477,qs),
(321,1487,o),
(338,1487,qs),
(365,1487,o),
(367,1462,q),
(358,1286,l),
(358,840,ls),
(358,811,o),
(375,811,qs),
(383,811,o),
(393,819,qs),
(467,870,o),
(561,870,qs),
(737,870,o),
(856,752,qs),
(981,626,o),
(981,440,q),
(981,440,l)
);
},
{
closed = 1;
nodes = (
(727,586,o),
(659,682,qs),
(600,768,o),
(502,770,qs),
(430,770,o),
(389,727,qs),
(358,696,o),
(358,647,qs),
(358,297,ls),
(358,180,o),
(430,111,qs),
(485,58,o),
(565,57,qs),
(727,57,o),
(727,428,q),
(727,428,l)
);
}
);
userData = {
assembly = "NPUSHB[ ]	/* 76 values pushed */
12 1 2 1 22 1 3 2 10 8 2 8 0 29 1 5 7 4 76 0 5 7 4 7 5 4 128 0 1 1 70 77 0 3 3 2 97 0 2 2 68 77 0 8 8 0 97 0 0 0 71 77 0 7 7 4 97 6 1 4 4 69 4 78 39 37 34 36 23 35 21 24 35 9 11 31 
CALL[ ]	/* CallFunction */";
};
width = 1048;
}
);
note = b;
unicode = 98;
},
{
glyphname = c;
kernLeft = c;
layers = (
{
layerId = m01;
shapes = (
{
closed = 1;
nodes = (
(672,621,o),
(653,649,q),
(614,715,ls),
(575,774,o),
(502,774,qs),
(420,774,o),
(360,682,qs),
(294,580,o),
(295,436,qs),
(295,303,o),
(383,209,qs),
(463,125,o),
(563,125,qs),
(672,125,o),
(750,180,qs),
(766,192,o),
(797,150,q),
(824,107,o),
(805,96,qs),
(723,43,l),
(606,-23,o),
(457,-23,qs),
(318,-23,o),
(207,76,qs),
(68,199,o),
(66,387,qs),
(66,557,o),
(172,694,qs),
(307,870,o),
(522,870,qs),
(657,870,o),
(745,825,qs),
(784,805,o),
(799,780,q),
(805,764,o),
(805,739,qs),
(805,688,o),
(774,655,qs),
(740,621,o),
(709,621,q),
(709,621,l)
);
}
);
userData = {
assembly = "NPUSHB[ ]	/* 47 values pushed */
5 1 0 4 3 4 0 3 128 0 4 4 1 97 0 1 1 71 77 0 3 3 2 97 0 2 2 69 2 78 1 0 36 34 28 26 19 17 11 9 0 40 1 39 6 11 22 
CALL[ ]	/* CallFunction */";
};
width = 878;
}
);
note = c;
unicode = 99;
},
{
glyphname = ccedilla;
layers = (
{
layerId = m01;
shapes = (
{
closed = 1;
nodes = (
(575,-424,o),
(487,-479,qs),
(413,-526,o),
(315,-528,qs),
(190,-528,o),
(166,-467,q),
(160,-455,o),
(160,-438,qs),
(160,-395,o),
(195,-377,qs),
(207,-371,o),
(223,-371,qs),
(254,-371,o),
(299,-410,qs),
(342,-447,o),
(365,-446,qs),
(418,-446,o),
(418,-395,qs),
(418,-317,o),
(274,-254,qs),
(254,-246,o),
(256,-236,q),
(256,-232,o),
(260,-223,q),
(399,-18,l),
(295,-2,o),
(207,76,qs),
(68,199,o),
(66,387,qs),
(66,557,o),
(172,694,qs),
(307,870,o),
(522,870,qs),
(657,870,o),
(745,825,qs),
(784,805,o),
(799,780,q),
(805,764,o),
(805,739,qs),
(805,688,o),
(774,655,qs),
(739,620,o),
(709,621,qs),
(672,621,o),
(653,649,q),
(614,715,ls),
(575,774,o),
(502,774,qs),
(420,774,o),
(360,682,qs),
(294,580,o),
(295,436,qs),
(295,303,o),
(383,209,qs),
(463,125,o),
(563,125,qs),
(672,125,o),
(750,180,qs),
(766,192,o),
(797,150,q),
(824,107,o),
(805,96,qs),
(723,43,l),
(627,-12,o),
(506,-20,q),
(432,-121,ls),
(424,-133,o),
(424,-137,qs),
(424,-147,o),
(453,-164,qs),
(575,-229,o),
(575,-338,q),
(575,-338,l)
);
}
);
userData = {
assembly = "NPUSHB[ ]	/* 10 values pushed */
47 1 6 0 64 1 5 6 2 76 
MPPEM[ ]	/* MeasurePixelPerEm */
PUSHB[ ]	/* 1 value pushed */
32 
LT[ ]	/* LessThan */
IF[ ]	/* If */
NPUSHB[ ]	/* 46 values pushed */
0 3 2 1 2 3 1 128 0 6 0 5 5 6 114 0 2 2 4 97 0 4 4 71 77 0 1 1 0 97 0 0 0 69 77 0 5 5 7 98 0 7 7 73 7 78 
ELSE[ ]	/* Else */
MPPEM[ ]	/* MeasurePixelPerEm */
PUSHB[ ]	/* 1 value pushed */
34 
LT[ ]	/* LessThan */
IF[ ]	/* If */
NPUSHB[ ]	/* 43 values pushed */
0 3 2 1 2 3 1 128 0 6 0 5 5 6 114 0 5 0 7 5 7 102 0 2 2 4 97 0 4 4 71 77 0 1 1 0 97 0 0 0 69 0 78 
ELSE[ ]	/* Else */
NPUSHB[ ]	/* 44 values pushed */
0 3 2 1 2 3 1 128 0 6 0 5 0 6 5 128 0 5 0 7 5 7 102 0 2 2 4 97 0 4 4 71 77 0 1 1 0 97 0 0 0 69 0 78 
EIF[ ]	/* EndIf */
EIF[ ]	/* EndIf */
NPUSHB[ ]	/* 11 values pushed */
39 18 47 40 35 38 39 23 8 11 30 
CALL[ ]	/* CallFunction */";
};
width = 878;
}
);
note = ccedilla;
unicode = 231;
},
{
glyphname = d;
kernLeft = d;
layers = (
{
layerId = m01;
shapes = (
{
closed = 1;
nodes = (
(993,19,o),
(866,-4,q),
(764,-31,o),
(735,-35,q),
(723,-35,ls),
(713,-35,o),
(713,10,qs),
(713,39,ls),
(713,62,o),
(702,61,qs),
(690,61,o),
(674,47,q),
(580,-23,o),
(479,-23,qs),
(235,-23,o),
(125,152,qs),
(53,263,o),
(53,418,qs),
(53,594,o),
(174,721,qs),
(321,871,o),
(567,870,qs),
(616,870,o),
(647,866,qs),
(674,864,o),
(674,889,qs),
(674,1161,ls),
(674,1286,o),
(582,1286,qs),
(566,1286,o),
(565,1323,qs),
(565,1362,o),
(582,1360,q),
(631,1360,o),
(768,1427,qs),
(834,1460,o),
(852,1477,qs),
(864,1487,o),
(879,1487,qs),
(910,1487,o),
(909,1454,qs),
(903,1384,o),
(903,1286,qs),
(903,256,ls),
(903,166,o),
(913,139,qs),
(927,98,o),
(967,98,qs),
(979,98,o),
(999,104,qs),
(1015,108,o),
(1026,74,q),
(1034,35,o),
(1022,31,q),
(1022,31,l)
);
},
{
closed = 1;
nodes = (
(674,694,ls),
(674,737,o),
(670,745,qs),
(666,755,o),
(653,764,qs),
(606,793,o),
(541,793,qs),
(408,793,o),
(344,649,qs),
(305,561,o),
(307,444,qs),
(307,251,o),
(385,141,qs),
(444,59,o),
(530,61,qs),
(616,61,o),
(659,113,qs),
(674,131,o),
(674,141,q),
(674,141,l)
);
}
);
userData = {
assembly = "NPUSHB[ ]	/* 18 values pushed */
13 1 2 1 23 1 3 2 74 1 0 9 2 1 6 0 4 76 
MPPEM[ ]	/* MeasurePixelPerEm */
PUSHB[ ]	/* 1 value pushed */
41 
LT[ ]	/* LessThan */
IF[ ]	/* If */
NPUSHB[ ]	/* 52 values pushed */
0 0 9 6 9 0 6 128 0 6 8 9 6 8 126 0 1 1 70 77 0 3 3 2 97 0 2 2 68 77 0 9 9 4 97 0 4 4 71 77 0 8 8 5 97 7 1 5 5 69 5 78 
ELSE[ ]	/* Else */
NPUSHB[ ]	/* 56 values pushed */
0 0 9 6 9 0 6 128 0 6 8 9 6 8 126 0 1 1 70 77 0 3 3 2 97 0 2 2 68 77 0 9 9 4 97 0 4 4 71 77 0 8 8 5 97 0 5 5 69 77 0 7 7 75 7 78 
EIF[ ]	/* EndIf */
NPUSHB[ ]	/* 14 values pushed */
68 66 40 35 34 38 37 35 21 23 37 10 11 31 
CALL[ ]	/* CallFunction */";
};
width = 1034;
}
);
note = d;
unicode = 100;
},
{
glyphname = eth;
layers = (
{
layerId = m01;
shapes = (
{
closed = 1;
nodes = (
(745,608,o),
(672,711,qs),
(617,793,o),
(543,793,qs),
(465,793,o),
(399,709,qs),
(317,603,o),
(319,444,qs),
(319,264,o),
(399,150,qs),
(460,62,o),
(543,61,qs),
(637,61,o),
(694,182,qs),
(745,288,o),
(745,444,q),
(745,444,l)
);
},
{
closed = 1;
nodes = (
(749,-25,o),
(543,-23,qs),
(336,-23,o),
(203,100,qs),
(66,229,o),
(66,449,qs),
(66,599,o),
(170,717,qs),
(307,871,o),
(532,870,q),
(456,946,o),
(332,1026,qs),
(316,1036,o),
(287,1036,o),
(268,1022,qs),
(68,864,l),
(56,856,o),
(2,936,qs),
(-39,1002,o),
(-41,1014,q),
(-41,1022,o),
(-33,1018,qs),
(30,985,o),
(63,985,qs),
(86,985,o),
(100,997,qs),
(188,1067,ls),
(206,1081,o),
(207,1098,o),
(188,1108,qs),
(59,1176,o),
(8,1196,qs),
(-10,1202,o),
(14,1255,qs),
(34,1298,o),
(53,1292,q),
(205,1231,o),
(283,1188,qs),
(303,1178,o),
(315,1178,qs),
(329,1178,o),
(354,1196,qs),
(649,1425,ls),
(663,1435,o),
(719,1364,qs),
(764,1309,o),
(772,1292,q),
(772,1284,o),
(766,1284,q),
(649,1309,l),
(629,1309,o),
(618,1300,qs),
(432,1153,ls),
(414,1139,o),
(414,1130,qs),
(414,1120,o),
(436,1106,qs),
(770,909,o),
(893,733,qs),
(999,579,o),
(999,451,qs),
(999,229,o),
(872,100,q),
(872,100,l)
);
}
);
userData = {
assembly = "NPUSHB[ ]	/* 69 values pushed */
31 1 3 2 58 1 4 5 2 76 0 2 3 2 133 0 4 5 6 5 4 6 128 0 3 0 5 4 3 5 105 0 1 1 6 97 0 6 6 71 77 0 0 0 7 97 0 7 7 69 7 78 79 77 71 70 67 66 57 55 41 39 30 29 38 35 8 11 24 
CALL[ ]	/* CallFunction */";
};
width = 1073;
}
);
note = eth;
unicode = 240;
},
{
glyphname = dcroat;
layers = (
{
layerId = m01;
shapes = (
{
closed = 1;
nodes = (
(903,1200,ls),
(903,1163,o),
(940,1163,qs),
(1073,1163,ls),
(1089,1163,o),
(1090,1059,o),
(1073,1059,qs),
(940,1059,ls),
(903,1059,o),
(903,1022,qs),
(903,256,ls),
(903,166,o),
(913,139,qs),
(927,98,o),
(967,98,qs),
(979,98,o),
(999,104,qs),
(1017,108,o),
(1034,35,o),
(1022,31,q),
(952,17,o),
(866,-4,qs),
(764,-29,o),
(735,-35,qs),
(729,-37,o),
(723,-35,qs),
(713,-31,o),
(713,10,qs),
(713,39,ls),
(713,62,o),
(702,61,qs),
(694,61,o),
(674,47,qs),
(580,-23,o),
(479,-23,qs),
(248,-23,o),
(139,145,qs),
(65,258,o),
(66,418,qs),
(66,594,o),
(186,721,qs),
(329,871,o),
(567,870,qs),
(612,870,o),
(666,864,q),
(674,866,o),
(674,889,qs),
(674,1022,ls),
(674,1059,o),
(637,1059,qs),
(481,1059,ls),
(467,1059,o),
(467,1163,o),
(481,1163,qs),
(637,1163,ls),
(674,1163,o),
(674,1180,q),
(664,1286,o),
(582,1286,qs),
(566,1286,o),
(565,1360,o),
(582,1360,qs),
(631,1360,o),
(768,1427,qs),
(834,1460,o),
(852,1477,qs),
(864,1487,o),
(879,1487,qs),
(910,1487,o),
(909,1454,qs),
(903,1286,l)
);
},
{
closed = 1;
nodes = (
(674,694,ls),
(674,737,o),
(670,745,qs),
(666,755,o),
(653,764,qs),
(606,793,o),
(541,793,qs),
(412,793,o),
(344,662,qs),
(295,568,o),
(295,444,qs),
(295,264,o),
(375,152,qs),
(441,62,o),
(530,61,qs),
(616,61,o),
(659,113,qs),
(674,131,o),
(674,141,q),
(674,141,l)
);
}
);
userData = {
assembly = "NPUSHB[ ]	/* 95 values pushed */
13 1 3 2 90 1 8 12 50 1 6 11 3 76 0 8 12 7 12 8 7 128 0 7 11 12 7 11 126 10 1 3 9 1 4 5 3 4 105 0 0 0 70 77 0 2 2 1 97 0 1 1 68 77 0 12 12 5 97 0 5 5 71 77 0 11 11 6 97 0 6 6 69 6 78 84 82 76 74 68 65 63 61 46 34 38 67 50 19 34 21 17 13 11 31 
CALL[ ]	/* CallFunction */";
};
width = 1034;
}
);
note = dcroat;
unicode = 273;
},
{
glyphname = e;
kernLeft = c;
kernRight = e;
layers = (
{
layerId = m01;
shapes = (
{
closed = 1;
nodes = (
(809,536,o),
(719,537,qs),
(334,537,ls),
(297,537,o),
(297,510,qs),
(297,272,o),
(410,176,qs),
(471,123,o),
(561,123,qs),
(643,123,o),
(727,178,q),
(747,188,o),
(776,152,qs),
(803,117,o),
(791,106,qs),
(744,57,o),
(657,18,qs),
(569,-23,o),
(455,-23,qs),
(320,-23,o),
(213,86,qs),
(70,229,o),
(68,436,qs),
(68,602,o),
(174,727,qs),
(297,870,o),
(461,870,qs),
(639,870,o),
(743,752,q),
(809,661,o),
(809,612,q),
(809,612,l)
);
},
{
closed = 1;
nodes = (
(309,626,o),
(346,627,qs),
(549,627,ls),
(586,627,o),
(586,651,qs),
(586,719,o),
(530,764,qs),
(495,793,o),
(463,791,qs),
(400,791,o),
(350,748,q),
(309,708,o),
(309,653,q),
(309,653,l)
);
}
);
userData = {
assembly = "NPUSHB[ ]	/* 38 values pushed */
0 5 0 3 2 5 3 103 0 4 4 0 97 0 0 0 71 77 0 2 2 1 97 0 1 1 69 1 78 52 37 52 40 38 35 6 11 28 
CALL[ ]	/* CallFunction */";
};
width = 874;
}
);
note = e;
unicode = 101;
},
{
glyphname = eogonek;
layers = (
{
layerId = m01;
shapes = (
{
closed = 1;
nodes = (
(586,708,o),
(504,791,o),
(463,791,qs),
(400,791,o),
(309,713,o),
(309,653,qs),
(309,626,o),
(346,627,qs),
(549,627,ls),
(586,626,o),
(586,651,q),
(586,651,l)
);
},
{
closed = 1;
nodes = (
(809,536,o),
(719,537,qs),
(334,537,ls),
(297,537,o),
(297,510,qs),
(297,399,o),
(348,227,o),
(471,123,o),
(561,123,qs),
(643,123,o),
(727,178,q),
(747,188,o),
(805,115,o),
(791,106,qs),
(734,69,o),
(631,-37,o),
(543,-182,o),
(543,-246,qs),
(543,-367,o),
(666,-367,qs),
(727,-367,o),
(768,-336,q),
(788,-342,o),
(788,-375,q),
(712,-488,o),
(571,-487,qs),
(483,-487,o),
(367,-395,o),
(367,-303,qs),
(367,-240,o),
(459,-96,o),
(532,-37,qs),
(561,-14,o),
(522,-18,qs),
(491,-22,o),
(455,-23,qs),
(344,-23,o),
(168,117,o),
(68,313,o),
(68,436,qs),
(68,608,o),
(303,870,o),
(459,870,qs),
(563,870,o),
(723,791,o),
(809,653,o),
(809,614,q),
(809,614,l)
);
}
);
userData = {
assembly = "NPUSHB[ ]	/* 57 values pushed */
37 1 5 3 35 1 4 5 2 76 0 0 0 7 6 0 7 103 0 5 0 4 5 4 101 0 1 1 2 97 0 2 2 71 77 0 6 6 3 97 0 3 3 69 3 78 52 41 36 40 37 38 35 49 8 11 30 
CALL[ ]	/* CallFunction */";
};
width = 874;
}
);
note = eogonek;
unicode = 281;
},
{
glyphname = uni0259;
layers = (
{
layerId = m01;
shapes = (
{
closed = 1;
nodes = (
(68,312,o),
(158,309,q),
(543,309,ls),
(580,309,o),
(580,338,qs),
(580,576,o),
(469,672,qs),
(408,725,o),
(315,725,qs),
(233,725,o),
(150,670,q),
(130,660,o),
(100,694,qs),
(73,729,o),
(86,741,qs),
(133,790,o),
(219,829,qs),
(307,870,o),
(422,870,qs),
(557,870,o),
(666,762,qs),
(809,619,o),
(809,412,qs),
(809,246,o),
(702,121,qs),
(579,-22,o),
(416,-23,qs),
(238,-23,o),
(133,96,q),
(68,187,o),
(68,236,q),
(68,236,l)
);
},
{
closed = 1;
nodes = (
(567,222,o),
(530,219,q),
(328,219,ls),
(291,219,o),
(291,197,qs),
(291,129,o),
(346,84,qs),
(381,55,o),
(414,55,qs),
(477,55,o),
(526,98,q),
(567,140,o),
(567,195,q),
(567,195,l)
);
}
);
userData = {
assembly = "NPUSHB[ ]	/* 38 values pushed */
0 3 0 5 4 3 5 103 0 2 2 1 97 0 1 1 71 77 0 4 4 0 97 0 0 0 69 0 78 36 37 52 40 38 35 6 11 28 
CALL[ ]	/* CallFunction */";
};
width = 874;
}
);
note = uni0259;
unicode = 601;
},
{
glyphname = uni025A;
layers = (
{
layerId = m01;
shapes = (
{
closed = 1;
nodes = (
(582,264,o),
(563,276,o),
(545,272,qs),
(328,219,ls),
(291,211,o),
(291,197,qs),
(291,138,o),
(373,55,o),
(414,55,qs),
(484,55,o),
(576,146,o),
(582,246,q),
(582,246,l)
);
},
{
closed = 1;
nodes = (
(956,362,o),
(981,231,o),
(1042,231,qs),
(1081,231,o),
(1106,260,qs),
(1110,264,o),
(1149,231,o),
(1145,227,qs),
(1090,159,o),
(1014,160,qs),
(957,160,o),
(866,244,o),
(852,336,q),
(852,344,o),
(850,354,q),
(805,344,l),
(789,211,o),
(567,-23,o),
(416,-23,qs),
(322,-23,o),
(178,37,o),
(68,176,o),
(68,236,qs),
(68,287,o),
(158,309,qs),
(537,410,ls),
(578,420,o),
(573,436,q),
(546,596,o),
(406,725,o),
(315,725,qs),
(237,725,o),
(150,670,qs),
(132,658,o),
(100,694,qs),
(73,729,o),
(86,741,qs),
(133,790,o),
(307,870,o),
(422,870,qs),
(557,870,o),
(784,641,o),
(805,481,q),
(926,512,ls),
(956,520,o),
(956,477,q),
(956,477,l)
);
}
);
userData = {
assembly = "NPUSHB[ ]	/* 50 values pushed */
44 16 2 5 2 51 6 2 4 5 2 76 0 5 0 4 0 5 4 105 0 2 2 1 97 0 1 1 71 77 0 0 0 3 97 0 3 3 69 3 78 37 39 42 39 46 34 6 11 28 
CALL[ ]	/* CallFunction */";
};
width = 1165;
}
);
note = uni025A;
unicode = 602;
},
{
glyphname = f;
kernLeft = f;
kernRight = f;
layers = (
{
layerId = m01;
shapes = (
{
closed = 1;
nodes = (
(608,746,o),
(594,745,qs),
(430,745,ls),
(393,745,o),
(393,709,qs),
(393,135,ls),
(393,67,o),
(526,68,qs),
(542,68,o),
(543,-8,o),
(526,-8,q),
(446,0,o),
(287,0,qs),
(140,0,o),
(55,-8,q),
(41,-8,o),
(41,68,o),
(55,68,qs),
(164,68,o),
(164,135,qs),
(164,709,ls),
(164,746,o),
(127,745,qs),
(72,745,ls),
(56,745,o),
(55,819,o),
(72,819,qs),
(119,819,o),
(164,885,o),
(164,932,qs),
(164,1077,o),
(231,1210,qs),
(264,1276,o),
(309,1321,qs),
(467,1487,o),
(674,1487,qs),
(797,1487,o),
(858,1427,qs),
(897,1390,o),
(897,1343,qs),
(897,1288,o),
(844,1247,qs),
(813,1222,o),
(784,1223,qs),
(684,1223,o),
(637,1313,qs),
(608,1370,o),
(559,1374,q),
(502,1374,o),
(463,1321,qs),
(393,1225,o),
(393,1049,qs),
(393,887,ls),
(393,850,o),
(430,850,qs),
(594,850,ls),
(608,850,o),
(608,799,q),
(608,799,l)
);
}
);
userData = {
assembly = "NPUSHB[ ]	/* 10 values pushed */
58 1 5 4 1 76 47 1 7 73 
MPPEM[ ]	/* MeasurePixelPerEm */
PUSHB[ ]	/* 1 value pushed */
18 
LT[ ]	/* LessThan */
IF[ ]	/* If */
NPUSHB[ ]	/* 46 values pushed */
0 2 1 0 1 2 114 0 4 5 5 4 89 0 1 1 3 97 0 3 3 70 77 9 1 5 5 0 95 0 0 0 71 77 8 1 6 6 7 97 0 7 7 69 7 78 
ELSE[ ]	/* Else */
MPPEM[ ]	/* MeasurePixelPerEm */
PUSHB[ ]	/* 1 value pushed */
44 
LT[ ]	/* LessThan */
IF[ ]	/* If */
NPUSHB[ ]	/* 47 values pushed */
0 2 1 0 1 2 0 128 0 4 5 5 4 89 0 1 1 3 97 0 3 3 70 77 9 1 5 5 0 95 0 0 0 71 77 8 1 6 6 7 97 0 7 7 69 7 78 
ELSE[ ]	/* Else */
NPUSHB[ ]	/* 44 values pushed */
0 2 1 0 1 2 0 128 0 4 5 5 4 89 8 1 6 0 7 6 7 101 0 1 1 3 97 0 3 3 70 77 9 1 5 5 0 95 0 0 0 71 0 78 
EIF[ ]	/* EndIf */
EIF[ ]	/* EndIf */
NPUSHB[ ]	/* 14 values pushed */
56 54 35 36 19 50 23 38 35 21 49 10 11 31 
CALL[ ]	/* CallFunction */";
};
width = 581;
}
);
note = f;
unicode = 102;
},
{
glyphname = g;
kernLeft = g;
kernRight = g;
layers = (
{
layerId = m01;
shapes = (
{
closed = 1;
nodes = (
(981,-303,o),
(834,-422,qs),
(662,-559,o),
(412,-559,qs),
(113,-559,o),
(41,-412,qs),
(21,-371,o),
(20,-319,qs),
(20,-237,o),
(123,-154,qs),
(158,-125,o),
(203,-102,qs),
(217,-96,o),
(217,-88,qs),
(217,-84,o),
(201,-76,q),
(68,-21,o),
(68,98,qs),
(68,174,o),
(213,236,qs),
(229,242,o),
(229,250,qs),
(229,254,o),
(211,266,qs),
(57,362,o),
(57,528,qs),
(57,669,o),
(166,768,qs),
(279,870,o),
(442,870,qs),
(553,870,o),
(664,827,qs),
(730,798,o),
(756,797,qs),
(948,797,ls),
(964,797,o),
(965,741,qs),
(965,682,o),
(948,682,qs),
(856,682,ls),
(825,682,o),
(825,653,qs),
(825,575,ls),
(825,405,o),
(707,305,qs),
(603,217,o),
(430,217,qs),
(381,217,o),
(324,223,q),
(312,223,o),
(301,217,q),
(264,186,o),
(264,160,qs),
(264,127,o),
(303,109,qs),
(336,93,o),
(391,92,qs),
(645,92,ls),
(774,92,o),
(838,72,qs),
(981,25,o),
(981,-141,q),
(981,-141,l)
);
},
{
closed = 1;
nodes = (
(592,698,o),
(520,764,qs),
(489,793,o),
(446,793,qs),
(374,793,o),
(328,707,qs),
(289,637,o),
(289,549,qs),
(289,428,o),
(348,352,qs),
(393,295,o),
(461,295,qs),
(549,295,o),
(580,414,qs),
(592,463,o),
(592,522,q),
(592,522,l)
);
},
{
closed = 1;
nodes = (
(811,-111,o),
(575,-111,qs),
(362,-111,ls),
(342,-111,o),
(322,-125,qs),
(259,-170,o),
(258,-248,qs),
(258,-324,o),
(317,-379,qs),
(385,-440,o),
(504,-440,qs),
(756,-440,o),
(803,-299,qs),
(811,-273,o),
(811,-242,q),
(811,-242,l)
);
}
);
userData = {
assembly = "NPUSHB[ ]	/* 73 values pushed */
25 1 2 7 13 1 1 6 2 76 0 3 0 2 6 3 2 105 0 6 0 1 0 6 1 105 0 0 0 9 8 0 9 103 0 7 7 4 97 0 4 4 71 77 0 8 8 5 97 0 5 5 73 5 78 94 91 85 83 76 74 68 66 59 57 34 51 37 40 51 10 11 27 
CALL[ ]	/* CallFunction */";
};
width = 946;
}
);
note = g;
unicode = 103;
},
{
glyphname = uni021D;
layers = (
{
layerId = m01;
shapes = (
{
closed = 1;
nodes = (
(778,-252,o),
(399,-489,qs),
(295,-555,o),
(207,-555,qs),
(60,-555,o),
(59,-461,qs),
(59,-385,o),
(158,-385,qs),
(185,-385,o),
(231,-412,qs),
(266,-432,o),
(285,-432,qs),
(396,-432,o),
(465,-295,qs),
(524,-178,o),
(526,-33,qs),
(526,92,o),
(461,166,qs),
(408,225,o),
(324,225,qs),
(281,225,o),
(201,186,q),
(181,178,o),
(158,225,qs),
(146,254,o),
(160,262,q),
(318,334,o),
(389,399,qs),
(487,489,o),
(489,606,qs),
(489,751,o),
(360,752,qs),
(274,752,o),
(209,662,qs),
(150,580,o),
(150,492,qs),
(150,476,o),
(74,475,o),
(74,492,qs),
(74,809,ls),
(74,823,o),
(150,823,o),
(150,809,qs),
(150,782,o),
(170,782,qs),
(188,782,o),
(229,809,qs),
(317,870,o),
(446,870,qs),
(585,870,o),
(666,782,qs),
(734,710,o),
(733,606,qs),
(733,477,o),
(555,350,q),
(707,284,o),
(754,178,qs),
(778,123,o),
(778,49,q),
(778,49,l)
);
}
);
userData = {
assembly = "NPUSHB[ ]	/* 65 values pushed */
16 1 1 0 20 4 2 3 2 2 76 0 1 0 2 0 1 2 128 0 3 2 5 2 3 5 128 0 4 5 6 5 4 114 0 2 2 0 97 0 0 0 71 77 0 5 5 6 97 0 6 6 73 6 78 34 35 22 42 43 34 41 7 11 29 
CALL[ ]	/* CallFunction */";
};
width = 864;
}
);
note = uni021D;
unicode = 541;
},
{
glyphname = h;
kernRight = h;
layers = (
{
layerId = m01;
shapes = (
{
closed = 1;
nodes = (
(999,0,o),
(858,0,qs),
(708,0,o),
(629,-8,q),
(613,-8,o),
(612,68,o),
(629,68,qs),
(733,68,o),
(733,131,qs),
(733,555,ls),
(733,631,o),
(688,694,qs),
(639,762,o),
(565,762,qs),
(475,762,o),
(422,698,qs),
(393,663,o),
(393,627,qs),
(393,143,ls),
(393,67,o),
(496,68,qs),
(510,68,o),
(512,-8,o),
(496,-8,q),
(412,0,o),
(287,0,qs),
(135,0,o),
(51,-8,q),
(37,-8,o),
(37,68,o),
(51,68,qs),
(164,68,o),
(164,137,qs),
(164,1161,ls),
(164,1286,o),
(72,1286,qs),
(56,1286,o),
(55,1323,qs),
(55,1362,o),
(72,1360,q),
(121,1360,o),
(256,1427,qs),
(322,1460,o),
(342,1477,qs),
(354,1487,o),
(371,1487,qs),
(398,1487,o),
(399,1460,qs),
(397,1374,o),
(393,1286,q),
(393,821,ls),
(393,798,o),
(403,799,qs),
(411,799,o),
(426,809,qs),
(508,870,o),
(637,870,qs),
(817,870,o),
(907,733,qs),
(962,649,o),
(963,557,qs),
(963,143,l),
(969,67,o),
(1079,68,qs),
(1095,68,o),
(1095,-8,o),
(1079,-8,q),
(1079,-8,l)
);
}
);
userData = {
assembly = "NPUSHB[ ]	/* 18 values pushed */
29 1 4 3 16 1 8 1 5 1 0 8 3 76 43 1 6 73 
MPPEM[ ]	/* MeasurePixelPerEm */
PUSHB[ ]	/* 1 value pushed */
44 
LT[ ]	/* LessThan */
IF[ ]	/* If */
NPUSHB[ ]	/* 40 values pushed */
0 2 2 70 77 0 4 4 3 97 0 3 3 68 77 0 8 8 1 97 0 1 1 71 77 9 7 5 3 0 0 6 97 10 1 6 6 69 6 78 
ELSE[ ]	/* Else */
NPUSHB[ ]	/* 37 values pushed */
9 7 5 3 0 10 1 6 0 6 101 0 2 2 70 77 0 4 4 3 97 0 3 3 68 77 0 8 8 1 97 0 1 1 71 8 78 
EIF[ ]	/* EndIf */
NPUSHB[ ]	/* 16 values pushed */
66 64 60 59 37 35 36 19 35 21 25 37 34 11 11 31 
CALL[ ]	/* CallFunction */";
};
width = 1091;
}
);
note = h;
unicode = 104;
},
{
glyphname = hbar;
layers = (
{
layerId = m01;
shapes = (
{
closed = 1;
nodes = (
(164,1083,l),
(-20,1083,ls),
(-36,1083,o),
(-37,1174,o),
(-20,1174,qs),
(164,1174,l),
(160,1287,o),
(72,1286,qs),
(56,1286,o),
(55,1360,o),
(72,1360,qs),
(121,1360,o),
(256,1427,qs),
(311,1454,o),
(342,1477,qs),
(354,1487,o),
(371,1487,qs),
(402,1487,o),
(399,1460,qs),
(393,1384,o),
(393,1286,qs),
(393,1174,l),
(569,1174,ls),
(585,1174,o),
(586,1083,o),
(569,1083,qs),
(393,1083,l),
(393,821,ls),
(393,798,o),
(403,799,qs),
(411,799,o),
(426,809,qs),
(508,870,o),
(637,870,qs),
(743,870,o),
(883,782,o),
(963,635,o),
(963,557,qs),
(963,143,ls),
(963,67,o),
(1079,68,qs),
(1095,68,o),
(1096,-8,o),
(1079,-8,q),
(999,0,o),
(854,0,qs),
(709,0,o),
(629,-8,q),
(613,-8,o),
(612,68,o),
(629,68,qs),
(733,68,o),
(733,131,qs),
(733,555,ls),
(733,631,o),
(639,762,o),
(565,762,qs),
(475,762,o),
(422,698,qs),
(393,663,o),
(393,627,qs),
(393,143,ls),
(393,67,o),
(496,68,qs),
(510,68,o),
(512,-8,o),
(496,-8,q),
(412,0,o),
(274,0,qs),
(137,0,o),
(51,-8,q),
(37,-8,o),
(37,68,o),
(51,68,qs),
(164,67,o),
(164,137,q),
(164,137,l)
);
}
);
userData = {
assembly = "NPUSHB[ ]	/* 11 values pushed */
48 1 3 7 1 76 32 9 2 1 73 
MPPEM[ ]	/* MeasurePixelPerEm */
PUSHB[ ]	/* 1 value pushed */
44 
LT[ ]	/* LessThan */
IF[ ]	/* If */
NPUSHB[ ]	/* 50 values pushed */
13 1 9 14 1 8 7 9 8 104 0 10 10 70 77 0 12 12 11 97 0 11 11 68 77 0 3 3 7 97 0 7 7 71 77 6 4 2 3 0 0 1 97 5 1 1 1 69 1 78 
ELSE[ ]	/* Else */
NPUSHB[ ]	/* 47 values pushed */
13 1 9 14 1 8 7 9 8 104 6 4 2 3 0 5 1 1 0 1 101 0 10 10 70 77 0 12 12 11 97 0 11 11 68 77 0 3 3 7 97 0 7 7 71 3 78 
EIF[ ]	/* EndIf */
NPUSHB[ ]	/* 24 values pushed */
75 73 71 70 69 67 65 64 59 58 54 52 22 37 35 36 20 37 35 36 17 15 11 31 
CALL[ ]	/* CallFunction */";
};
width = 1091;
}
);
note = hbar;
unicode = 295;
},
{
glyphname = i;
kernLeft = i;
layers = (
{
layerId = m01;
shapes = (
{
closed = 1;
nodes = (
(412,0,o),
(287,0,qs),
(144,0,o),
(59,-8,q),
(45,-8,o),
(43,68,o),
(59,68,qs),
(163,68,o),
(164,143,qs),
(164,557,ls),
(164,682,o),
(72,682,qs),
(56,682,o),
(55,756,o),
(72,756,qs),
(121,756,o),
(258,823,qs),
(321,854,o),
(342,872,qs),
(354,882,o),
(373,883,qs),
(402,883,o),
(399,856,qs),
(393,768,o),
(393,682,qs),
(393,143,ls),
(393,67,o),
(496,68,qs),
(510,68,o),
(510,-8,o),
(496,-8,q),
(496,-8,l)
);
},
{
closed = 1;
nodes = (
(401,1114,o),
(342,1073,qs),
(303,1046,o),
(256,1049,q),
(180,1049,o),
(139,1106,qs),
(112,1143,o),
(113,1186,qs),
(113,1256,o),
(170,1296,qs),
(209,1325,o),
(256,1323,qs),
(334,1323,o),
(375,1266,qs),
(401,1227,o),
(401,1186,q),
(401,1186,l)
);
}
);
userData = {
assembly = "PUSHB[ ]	/* 6 values pushed */
8 1 2 1 1 76 
MPPEM[ ]	/* MeasurePixelPerEm */
PUSHB[ ]	/* 1 value pushed */
30 
LT[ ]	/* LessThan */
IF[ ]	/* If */
NPUSHB[ ]	/* 35 values pushed */
0 2 0 3 0 2 3 105 0 7 7 6 97 0 6 6 68 77 0 1 1 71 77 4 1 0 0 5 97 0 5 5 69 5 78 
ELSE[ ]	/* Else */
MPPEM[ ]	/* MeasurePixelPerEm */
PUSHB[ ]	/* 1 value pushed */
44 
LT[ ]	/* LessThan */
IF[ ]	/* If */
NPUSHB[ ]	/* 33 values pushed */
0 6 0 7 1 6 7 105 0 2 0 3 0 2 3 105 0 1 1 71 77 4 1 0 0 5 97 0 5 5 69 5 78 
ELSE[ ]	/* Else */
NPUSHB[ ]	/* 30 values pushed */
0 6 0 7 1 6 7 105 0 2 0 3 0 2 3 105 4 1 0 0 5 0 5 101 0 1 1 71 1 78 
EIF[ ]	/* EndIf */
EIF[ ]	/* EndIf */
NPUSHB[ ]	/* 11 values pushed */
38 37 36 19 34 20 37 34 8 11 30 
CALL[ ]	/* CallFunction */";
};
width = 522;
}
);
note = i;
unicode = 105;
},
{
glyphname = dotlessi;
layers = (
{
layerId = m01;
shapes = (
{
closed = 1;
nodes = (
(393,67,o),
(496,68,qs),
(510,68,o),
(512,-8,o),
(496,-8,q),
(412,0,o),
(287,0,qs),
(144,0,o),
(59,-8,q),
(45,-8,o),
(43,68,o),
(59,68,qs),
(163,68,o),
(164,143,qs),
(164,557,ls),
(164,682,o),
(72,682,qs),
(56,682,o),
(55,756,o),
(72,756,qs),
(121,756,o),
(258,823,qs),
(321,854,o),
(342,872,qs),
(354,882,o),
(373,883,qs),
(402,883,o),
(399,856,qs),
(393,772,o),
(393,682,qs),
(393,143,ls)
);
}
);
userData = {
assembly = "PUSHB[ ]	/* 4 values pushed */
25 1 4 73 
MPPEM[ ]	/* MeasurePixelPerEm */
PUSHB[ ]	/* 1 value pushed */
44 
LT[ ]	/* LessThan */
IF[ ]	/* If */
NPUSHB[ ]	/* 25 values pushed */
0 1 0 2 3 1 2 105 0 0 0 71 77 5 1 3 3 4 97 0 4 4 69 4 78 
ELSE[ ]	/* Else */
NPUSHB[ ]	/* 22 values pushed */
0 1 0 2 3 1 2 105 5 1 3 0 4 3 4 101 0 0 0 71 0 78 
EIF[ ]	/* EndIf */
NPUSHB[ ]	/* 9 values pushed */
35 36 19 34 20 35 6 11 28 
CALL[ ]	/* CallFunction */";
};
width = 522;
}
);
note = dotlessi;
unicode = 305;
},
{
glyphname = iogonek;
layers = (
{
layerId = m01;
shapes = (
{
closed = 1;
nodes = (
(401,1114,o),
(342,1073,qs),
(303,1046,o),
(256,1049,q),
(180,1049,o),
(139,1106,qs),
(112,1143,o),
(113,1186,qs),
(113,1256,o),
(170,1296,qs),
(209,1325,o),
(256,1323,qs),
(334,1323,o),
(375,1266,qs),
(401,1227,o),
(401,1186,q),
(401,1186,l)
);
},
{
closed = 1;
nodes = (
(119,-2,o),
(59,-8,q),
(45,-8,o),
(43,68,o),
(59,68,qs),
(163,68,o),
(164,143,qs),
(164,557,ls),
(164,682,o),
(72,682,qs),
(56,682,o),
(55,756,o),
(72,756,qs),
(121,756,o),
(258,823,qs),
(321,854,o),
(342,872,qs),
(354,882,o),
(373,883,qs),
(402,883,o),
(399,856,qs),
(393,768,o),
(393,682,qs),
(393,143,ls),
(393,67,o),
(496,68,qs),
(510,68,o),
(512,31,qs),
(512,-6,o),
(496,-8,q),
(424,-2,o),
(322,0,q),
(199,-141,o),
(199,-246,qs),
(199,-367,o),
(322,-367,qs),
(383,-367,o),
(426,-336,q),
(446,-342,o),
(444,-375,q),
(368,-488,o),
(227,-487,qs),
(22,-487,o),
(23,-303,qs),
(25,-162,o),
(205,0,q),
(205,0,l)
);
}
);
userData = {
assembly = "NPUSHB[ ]	/* 19 values pushed */
42 1 7 6 35 1 4 5 33 25 2 3 4 23 1 2 3 4 76 
MPPEM[ ]	/* MeasurePixelPerEm */
PUSHB[ ]	/* 1 value pushed */
30 
LT[ ]	/* LessThan */
IF[ ]	/* If */
NPUSHB[ ]	/* 43 values pushed */
0 7 0 8 5 7 8 105 0 3 0 2 3 2 101 0 1 1 0 97 0 0 0 68 77 0 6 6 71 77 9 1 5 5 4 97 10 1 4 4 69 4 78 
ELSE[ ]	/* Else */
MPPEM[ ]	/* MeasurePixelPerEm */
PUSHB[ ]	/* 1 value pushed */
46 
LT[ ]	/* LessThan */
IF[ ]	/* If */
NPUSHB[ ]	/* 41 values pushed */
0 0 0 1 6 0 1 105 0 7 0 8 5 7 8 105 0 3 0 2 3 2 101 0 6 6 71 77 9 1 5 5 4 97 10 1 4 4 69 4 78 
ELSE[ ]	/* Else */
NPUSHB[ ]	/* 39 values pushed */
0 0 0 1 6 0 1 105 0 7 0 8 5 7 8 105 9 1 5 10 1 4 3 5 4 105 0 3 0 2 3 2 101 0 6 6 71 6 78 
EIF[ ]	/* EndIf */
EIF[ ]	/* EndIf */
NPUSHB[ ]	/* 16 values pushed */
63 62 58 57 34 20 37 36 19 36 39 38 35 11 11 31 
CALL[ ]	/* CallFunction */";
};
width = 522;
}
);
note = iogonek;
unicode = 303;
},
{
glyphname = j;
layers = (
{
layerId = m01;
shapes = (
{
closed = 1;
nodes = (
(373,1116,o),
(313,1075,qs),
(274,1048,o),
(227,1049,qs),
(153,1049,o),
(111,1104,qs),
(82,1141,o),
(82,1188,qs),
(82,1256,o),
(139,1296,qs),
(178,1325,o),
(227,1325,qs),
(301,1325,o),
(344,1270,qs),
(373,1231,o),
(373,1188,q),
(373,1188,l)
);
},
{
closed = 1;
nodes = (
(367,764,o),
(367,682,qs),
(367,139,ls),
(367,-47,o),
(356,-129,qs),
(331,-303,o),
(248,-416,qs),
(172,-518,o),
(41,-547,qs),
(4,-555,o),
(-33,-555,qs),
(-92,-555,o),
(-150,-512,qs),
(-193,-477,o),
(-193,-426,qs),
(-193,-369,o),
(-141,-340,qs),
(-114,-326,o),
(-84,-324,qs),
(-37,-324,o),
(-4,-377,qs),
(39,-451,o),
(76,-449,qs),
(121,-449,o),
(131,-358,qs),
(135,-315,o),
(137,-229,qs),
(137,557,ls),
(137,682,o),
(45,682,qs),
(31,682,o),
(31,756,o),
(45,756,qs),
(96,756,o),
(233,823,qs),
(296,854,o),
(317,872,qs),
(331,882,o),
(346,883,qs),
(375,883,o),
(375,856,q),
(375,856,l)
);
}
);
userData = {
assembly = "PUSHB[ ]	/* 6 values pushed */
58 1 3 2 1 76 
MPPEM[ ]	/* MeasurePixelPerEm */
PUSHB[ ]	/* 1 value pushed */
30 
LT[ ]	/* LessThan */
IF[ ]	/* If */
NPUSHB[ ]	/* 42 values pushed */
0 5 6 7 6 5 7 128 0 3 0 4 6 3 4 105 0 1 1 0 97 0 0 0 68 77 0 2 2 71 77 0 6 6 7 97 0 7 7 73 7 78 
ELSE[ ]	/* Else */
NPUSHB[ ]	/* 40 values pushed */
0 5 6 7 6 5 7 128 0 0 0 1 2 0 1 105 0 3 0 4 6 3 4 105 0 2 2 71 77 0 6 6 7 97 0 7 7 73 7 78 
EIF[ ]	/* EndIf */
NPUSHB[ ]	/* 11 values pushed */
38 34 37 34 21 21 38 35 8 11 30 
CALL[ ]	/* CallFunction */";
};
width = 497;
}
);
note = j;
unicode = 106;
},
{
glyphname = uni0237;
layers = (
{
layerId = m01;
shapes = (
{
closed = 1;
nodes = (
(367,764,o),
(367,682,qs),
(367,139,ls),
(367,-47,o),
(356,-129,qs),
(331,-303,o),
(248,-416,qs),
(172,-518,o),
(41,-547,qs),
(4,-555,o),
(-33,-555,qs),
(-92,-555,o),
(-150,-512,qs),
(-193,-477,o),
(-193,-426,qs),
(-193,-369,o),
(-141,-340,qs),
(-114,-326,o),
(-84,-324,qs),
(-37,-324,o),
(-4,-377,qs),
(39,-451,o),
(76,-449,qs),
(121,-449,o),
(131,-358,qs),
(135,-315,o),
(137,-229,qs),
(137,557,ls),
(137,682,o),
(45,682,qs),
(31,682,o),
(31,756,o),
(45,756,qs),
(96,756,o),
(233,823,qs),
(296,854,o),
(317,872,qs),
(331,882,o),
(346,883,qs),
(375,883,o),
(375,856,q),
(375,856,l)
);
}
);
userData = {
assembly = "NPUSHB[ ]	/* 47 values pushed */
41 1 1 0 1 76 0 3 4 5 4 3 5 128 0 1 0 2 4 1 2 105 0 0 0 71 77 0 4 4 5 97 0 5 5 73 5 78 38 34 37 34 21 17 6 11 28 
CALL[ ]	/* CallFunction */";
};
width = 497;
}
);
note = uni0237;
unicode = 567;
},
{
glyphname = k;
kernLeft = k;
kernRight = k;
layers = (
{
layerId = m01;
shapes = (
{
closed = 1;
nodes = (
(999,0,o),
(700,0,o),
(616,-8,q),
(602,-8,o),
(600,68,o),
(616,68,qs),
(690,68,o),
(690,96,qs),
(690,112,o),
(664,145,q),
(469,369,ls),
(444,400,o),
(410,399,qs),
(394,399,o),
(393,365,qs),
(393,143,ls),
(393,67,o),
(502,68,qs),
(516,68,o),
(516,-8,o),
(502,-8,q),
(418,0,o),
(287,0,qs),
(133,0,o),
(49,-8,q),
(35,-8,o),
(35,68,o),
(49,68,qs),
(164,68,o),
(164,139,qs),
(164,1161,l),
(156,1280,o),
(72,1286,qs),
(56,1286,o),
(55,1360,o),
(72,1360,qs),
(121,1360,o),
(256,1427,qs),
(322,1460,o),
(342,1477,qs),
(354,1487,o),
(371,1487,qs),
(398,1487,o),
(399,1460,q),
(393,1374,o),
(393,1286,qs),
(393,528,ls),
(393,491,o),
(414,492,qs),
(457,492,o),
(494,530,qs),
(647,700,ls),
(680,737,o),
(680,754,qs),
(680,785,o),
(596,784,qs),
(580,784,o),
(580,856,o),
(596,856,q),
(655,850,o),
(813,850,qs),
(952,850,o),
(1016,856,q),
(1030,856,o),
(1030,784,o),
(1016,784,qs),
(912,784,o),
(834,713,qs),
(625,524,ls),
(615,514,o),
(614,506,qs),
(614,492,o),
(625,479,qs),
(954,121,ls),
(1001,68,o),
(1079,68,qs),
(1095,68,o),
(1095,-8,o),
(1079,-8,q),
(1079,-8,l)
);
}
);
userData = {
assembly = "NPUSHB[ ]	/* 14 values pushed */
20 1 2 7 25 1 4 1 2 76 58 1 9 73 
MPPEM[ ]	/* MeasurePixelPerEm */
PUSHB[ ]	/* 1 value pushed */
44 
LT[ ]	/* LessThan */
IF[ ]	/* If */
NPUSHB[ ]	/* 49 values pushed */
0 4 0 11 0 4 11 105 0 5 5 70 77 0 7 7 6 97 0 6 6 68 77 3 1 1 1 2 97 0 2 2 71 77 12 10 8 3 0 0 9 97 13 1 9 9 69 9 78 
ELSE[ ]	/* Else */
NPUSHB[ ]	/* 46 values pushed */
0 4 0 11 0 4 11 105 12 10 8 3 0 13 1 9 0 9 101 0 5 5 70 77 0 7 7 6 97 0 6 6 68 77 3 1 1 1 2 97 0 2 2 71 1 78 
EIF[ ]	/* EndIf */
NPUSHB[ ]	/* 22 values pushed */
78 77 73 72 67 65 62 60 57 55 19 34 21 21 37 35 36 24 34 14 11 31 
CALL[ ]	/* CallFunction */";
};
width = 1071;
}
);
note = k;
unicode = 107;
},
{
glyphname = l;
kernLeft = k;
layers = (
{
layerId = m01;
shapes = (
{
closed = 1;
nodes = (
(412,0,o),
(287,0,qs),
(144,0,o),
(59,-8,q),
(45,-8,o),
(43,68,o),
(59,68,qs),
(163,68,o),
(164,135,qs),
(164,1161,ls),
(164,1286,o),
(72,1286,qs),
(56,1286,o),
(55,1360,o),
(72,1360,qs),
(121,1360,o),
(256,1427,qs),
(322,1460,o),
(342,1477,qs),
(354,1487,o),
(369,1487,qs),
(400,1487,o),
(399,1454,qs),
(393,1378,o),
(393,1286,qs),
(393,143,ls),
(393,67,o),
(496,68,qs),
(510,68,o),
(510,-8,o),
(496,-8,q),
(496,-8,l)
);
}
);
userData = {
assembly = "PUSHB[ ]	/* 6 values pushed */
8 1 2 1 1 76 
MPPEM[ ]	/* MeasurePixelPerEm */
PUSHB[ ]	/* 1 value pushed */
44 
LT[ ]	/* LessThan */
IF[ ]	/* If */
NPUSHB[ ]	/* 27 values pushed */
0 1 1 70 77 0 3 3 2 97 0 2 2 68 77 4 1 0 0 5 97 0 5 5 69 5 78 
ELSE[ ]	/* Else */
NPUSHB[ ]	/* 24 values pushed */
4 1 0 0 5 0 5 101 0 1 1 70 77 0 3 3 2 97 0 2 2 68 3 78 
EIF[ ]	/* EndIf */
NPUSHB[ ]	/* 9 values pushed */
36 19 34 21 21 34 6 11 28 
CALL[ ]	/* CallFunction */";
};
width = 522;
}
);
note = l;
unicode = 108;
},
{
glyphname = uni013C;
layers = (
{
layerId = m01;
shapes = (
{
closed = 1;
nodes = (
(397,-401,o),
(309,-457,qs),
(235,-504,o),
(137,-506,qs),
(12,-506,o),
(-14,-444,qs),
(-20,-432,o),
(-20,-416,qs),
(-20,-373,o),
(16,-354,qs),
(28,-348,o),
(45,-346,q),
(76,-346,o),
(121,-385,qs),
(164,-422,o),
(184,-424,q),
(237,-424,o),
(238,-373,qs),
(238,-295,o),
(96,-229,qs),
(76,-221,o),
(76,-213,qs),
(76,-209,o),
(82,-201,qs),
(217,0,l),
(137,0,o),
(59,-8,q),
(45,-8,o),
(43,68,o),
(59,68,qs),
(163,68,o),
(164,135,qs),
(164,1161,ls),
(164,1286,o),
(72,1286,qs),
(56,1286,o),
(55,1360,o),
(72,1360,qs),
(121,1360,o),
(256,1427,qs),
(322,1460,o),
(342,1477,qs),
(354,1487,o),
(369,1487,qs),
(400,1487,o),
(399,1454,qs),
(393,1378,o),
(393,1286,qs),
(393,143,ls),
(393,67,o),
(496,68,qs),
(510,68,o),
(512,-8,o),
(496,-8,q),
(424,0,o),
(326,0,q),
(254,-96,ls),
(246,-108,o),
(246,-115,qs),
(246,-125,o),
(272,-141,q),
(397,-206,o),
(397,-315,q),
(397,-315,l)
);
}
);
userData = {
assembly = "NPUSHB[ ]	/* 14 values pushed */
17 1 3 2 9 1 8 0 55 1 7 8 3 76 
MPPEM[ ]	/* MeasurePixelPerEm */
PUSHB[ ]	/* 1 value pushed */
32 
LT[ ]	/* LessThan */
IF[ ]	/* If */
NPUSHB[ ]	/* 42 values pushed */
0 8 0 7 7 8 114 0 7 0 9 7 9 102 0 2 2 70 77 0 4 4 3 97 0 3 3 68 77 5 1 1 1 0 97 6 1 0 0 69 0 78 
ELSE[ ]	/* Else */
MPPEM[ ]	/* MeasurePixelPerEm */
PUSHB[ ]	/* 1 value pushed */
44 
LT[ ]	/* LessThan */
IF[ ]	/* If */
NPUSHB[ ]	/* 43 values pushed */
0 8 0 7 0 8 7 128 0 7 0 9 7 9 102 0 2 2 70 77 0 4 4 3 97 0 3 3 68 77 5 1 1 1 0 97 6 1 0 0 69 0 78 
ELSE[ ]	/* Else */
NPUSHB[ ]	/* 41 values pushed */
0 8 0 7 0 8 7 128 5 1 1 6 1 0 8 1 0 105 0 7 0 9 7 9 102 0 2 2 70 77 0 4 4 3 97 0 3 3 68 4 78 
EIF[ ]	/* EndIf */
EIF[ ]	/* EndIf */
NPUSHB[ ]	/* 14 values pushed */
60 58 19 24 20 19 34 21 21 35 23 10 11 31 
CALL[ ]	/* CallFunction */";
};
width = 522;
}
);
note = uni013C;
unicode = 316;
},
{
glyphname = lslash;
layers = (
{
layerId = m01;
shapes = (
{
closed = 1;
nodes = (
(393,668,l),
(393,143,ls),
(393,67,o),
(496,68,qs),
(510,68,o),
(512,-6,o),
(496,-8,q),
(412,0,o),
(279,0,qs),
(146,0,o),
(59,-8,q),
(45,-8,o),
(43,68,o),
(59,68,qs),
(163,68,o),
(164,143,qs),
(164,500,l),
(0,379,ls),
(-20,365,o),
(-51,412,qs),
(-63,430,o),
(-66,444,q),
(-66,452,o),
(-59,459,q),
(164,623,l),
(164,1161,ls),
(164,1286,o),
(72,1286,qs),
(56,1286,o),
(55,1360,o),
(72,1360,qs),
(121,1360,o),
(322,1458,o),
(342,1477,qs),
(354,1487,o),
(369,1487,qs),
(400,1487,o),
(399,1454,qs),
(393,1286,l),
(393,793,l),
(580,930,l),
(598,946,o),
(633,897,qs),
(645,879,o),
(645,864,qs),
(645,854,o),
(639,850,q),
(639,850,l)
);
}
);
userData = {
assembly = "NPUSHB[ ]	/* 15 values pushed */
46 30 25 22 7 2 6 3 2 1 76 40 1 4 73 
MPPEM[ ]	/* MeasurePixelPerEm */
PUSHB[ ]	/* 1 value pushed */
44 
LT[ ]	/* LessThan */
IF[ ]	/* If */
NPUSHB[ ]	/* 27 values pushed */
0 0 0 70 77 0 2 2 1 97 0 1 1 68 77 5 1 3 3 4 97 0 4 4 69 4 78 
ELSE[ ]	/* Else */
NPUSHB[ ]	/* 24 values pushed */
5 1 3 0 4 3 4 101 0 0 0 70 77 0 2 2 1 97 0 1 1 68 2 78 
EIF[ ]	/* EndIf */
NPUSHB[ ]	/* 9 values pushed */
35 36 28 34 20 26 6 11 28 
CALL[ ]	/* CallFunction */";
};
width = 522;
}
);
note = lslash;
unicode = 322;
},
{
glyphname = m;
kernLeft = m;
kernRight = m;
layers = (
{
layerId = m01;
shapes = (
{
closed = 1;
nodes = (
(1507,0,o),
(1366,0,qs),
(1231,0,o),
(1151,-8,q),
(1135,-8,o),
(1135,68,o),
(1151,68,qs),
(1251,68,o),
(1251,135,qs),
(1251,610,ls),
(1251,762,o),
(1100,762,qs),
(1030,762,o),
(981,700,qs),
(936,645,o),
(936,569,qs),
(936,139,ls),
(936,67,o),
(1040,68,qs),
(1056,68,o),
(1057,-8,o),
(1040,-8,q),
(960,0,o),
(821,0,qs),
(690,0,o),
(606,-8,q),
(592,-8,o),
(592,68,o),
(606,68,qs),
(706,68,o),
(707,131,qs),
(707,565,ls),
(707,698,o),
(662,739,qs),
(635,762,o),
(565,762,qs),
(514,762,o),
(469,729,qs),
(393,672,o),
(393,604,qs),
(393,133,ls),
(393,67,o),
(492,68,qs),
(506,68,o),
(508,-8,o),
(492,-8,q),
(408,0,o),
(272,0,qs),
(135,0,o),
(51,-8,q),
(37,-8,o),
(37,68,o),
(51,68,qs),
(164,68,o),
(164,137,qs),
(164,551,ls),
(164,682,o),
(72,682,qs),
(56,682,o),
(55,756,o),
(72,756,qs),
(121,756,o),
(258,823,qs),
(321,854,o),
(342,872,qs),
(354,882,o),
(371,883,qs),
(400,883,o),
(399,858,qs),
(393,788,l),
(393,770,o),
(401,768,q),
(409,768,o),
(420,778,q),
(502,870,o),
(639,870,qs),
(780,870,o),
(854,743,qs),
(862,727,o),
(870,727,qs),
(880,727,o),
(897,745,qs),
(977,829,o),
(1083,858,qs),
(1126,870,o),
(1167,870,qs),
(1294,870,o),
(1372,801,qs),
(1481,705,o),
(1481,553,qs),
(1481,139,ls),
(1481,67,o),
(1587,68,qs),
(1603,68,o),
(1603,-8,o),
(1587,-8,q),
(1587,-8,l)
);
}
);
userData = {
assembly = "NPUSHB[ ]	/* 12 values pushed */
27 26 2 9 1 1 76 74 50 2 7 73 
MPPEM[ ]	/* MeasurePixelPerEm */
PUSHB[ ]	/* 1 value pushed */
39 
LT[ ]	/* LessThan */
IF[ ]	/* If */
NPUSHB[ ]	/* 39 values pushed */
0 4 0 5 0 4 5 105 13 1 9 9 1 97 3 2 2 1 1 71 77 14 12 10 8 6 5 0 0 7 97 15 11 2 7 7 69 7 78 
ELSE[ ]	/* Else */
MPPEM[ ]	/* MeasurePixelPerEm */
PUSHB[ ]	/* 1 value pushed */
44 
LT[ ]	/* LessThan */
IF[ ]	/* If */
NPUSHB[ ]	/* 43 values pushed */
0 4 0 5 0 4 5 105 0 3 3 71 77 13 1 9 9 1 97 2 1 1 1 71 77 14 12 10 8 6 5 0 0 7 97 15 11 2 7 7 69 7 78 
ELSE[ ]	/* Else */
NPUSHB[ ]	/* 40 values pushed */
0 4 0 5 0 4 5 105 14 12 10 8 6 5 0 15 11 2 7 0 7 101 0 3 3 71 77 13 1 9 9 1 97 2 1 1 1 71 9 78 
EIF[ ]	/* EndIf */
EIF[ ]	/* EndIf */
NPUSHB[ ]	/* 26 values pushed */
95 93 89 88 85 83 78 76 73 71 67 66 61 59 35 36 19 34 21 23 40 37 34 16 11 31 
CALL[ ]	/* CallFunction */";
};
width = 1628;
}
);
note = m;
unicode = 109;
},
{
glyphname = n;
kernLeft = m;
kernRight = m;
layers = (
{
layerId = m01;
shapes = (
{
closed = 1;
nodes = (
(963,0,o),
(754,0,o),
(633,-8,qs),
(619,-8,o),
(618,68,o),
(633,68,qs),
(733,68,o),
(733,129,qs),
(733,537,ls),
(733,687,o),
(676,737,qs),
(647,762,o),
(580,762,qs),
(519,762,o),
(461,713,qs),
(393,656,o),
(393,592,qs),
(393,143,ls),
(393,67,o),
(492,68,qs),
(506,68,o),
(508,-8,o),
(492,-8,q),
(408,0,o),
(276,0,qs),
(141,0,o),
(57,-8,q),
(43,-8,o),
(43,68,o),
(57,68,qs),
(163,68,o),
(164,143,qs),
(164,549,ls),
(164,682,o),
(72,682,qs),
(56,682,o),
(55,756,o),
(72,756,qs),
(121,756,o),
(258,823,qs),
(321,854,o),
(342,872,qs),
(354,882,o),
(369,883,qs),
(398,883,o),
(399,856,q),
(393,788,l),
(393,770,o),
(412,768,o),
(420,778,qs),
(463,833,o),
(557,858,qs),
(598,868,o),
(653,870,qs),
(841,870,o),
(928,684,qs),
(965,610,o),
(963,465,qs),
(963,135,ls),
(963,67,o),
(1069,68,qs),
(1085,68,o),
(1085,-8,o),
(1069,-8,q),
(1069,-8,l)
);
}
);
userData = {
assembly = "PUSHB[ ]	/* 4 values pushed */
41 1 6 73 
MPPEM[ ]	/* MeasurePixelPerEm */
PUSHB[ ]	/* 1 value pushed */
34 
LT[ ]	/* LessThan */
IF[ ]	/* If */
NPUSHB[ ]	/* 34 values pushed */
0 3 0 4 0 3 4 105 0 8 8 1 97 2 1 1 1 71 77 9 7 5 3 0 0 6 97 10 1 6 6 69 6 78 
ELSE[ ]	/* Else */
MPPEM[ ]	/* MeasurePixelPerEm */
PUSHB[ ]	/* 1 value pushed */
35 
LT[ ]	/* LessThan */
IF[ ]	/* If */
NPUSHB[ ]	/* 38 values pushed */
0 3 0 4 0 3 4 105 0 2 2 71 77 0 8 8 1 97 0 1 1 71 77 9 7 5 3 0 0 6 97 10 1 6 6 69 6 78 
ELSE[ ]	/* Else */
MPPEM[ ]	/* MeasurePixelPerEm */
PUSHB[ ]	/* 1 value pushed */
37 
LT[ ]	/* LessThan */
IF[ ]	/* If */
NPUSHB[ ]	/* 34 values pushed */
0 3 0 4 0 3 4 105 0 8 8 1 97 2 1 1 1 71 77 9 7 5 3 0 0 6 97 10 1 6 6 69 6 78 
ELSE[ ]	/* Else */
MPPEM[ ]	/* MeasurePixelPerEm */
PUSHB[ ]	/* 1 value pushed */
44 
LT[ ]	/* LessThan */
IF[ ]	/* If */
NPUSHB[ ]	/* 38 values pushed */
0 3 0 4 0 3 4 105 0 2 2 71 77 0 8 8 1 97 0 1 1 71 77 9 7 5 3 0 0 6 97 10 1 6 6 69 6 78 
ELSE[ ]	/* Else */
NPUSHB[ ]	/* 35 values pushed */
0 3 0 4 0 3 4 105 9 7 5 3 0 10 1 6 0 6 101 0 2 2 71 77 0 8 8 1 97 0 1 1 71 8 78 
EIF[ ]	/* EndIf */
EIF[ ]	/* EndIf */
EIF[ ]	/* EndIf */
EIF[ ]	/* EndIf */
NPUSHB[ ]	/* 16 values pushed */
63 60 58 57 37 35 36 19 34 21 24 37 34 11 11 31 
CALL[ ]	/* CallFunction */";
};
width = 1085;
}
);
note = n;
unicode = 110;
},
{
glyphname = eng;
layers = (
{
layerId = m01;
shapes = (
{
closed = 1;
nodes = (
(965,-47,o),
(934,-260,o),
(825,-465,o),
(653,-555,o),
(565,-555,qs),
(502,-555,o),
(403,-477,o),
(403,-426,qs),
(403,-383,o),
(471,-324,o),
(512,-324,qs),
(559,-324,o),
(637,-449,o),
(711,-449,o),
(733,-334,o),
(733,-229,qs),
(733,537,ls),
(733,687,o),
(676,737,qs),
(647,762,o),
(580,762,qs),
(519,762,o),
(461,713,qs),
(393,656,o),
(393,592,qs),
(393,143,ls),
(393,67,o),
(492,68,qs),
(506,68,o),
(508,-8,o),
(492,-8,q),
(408,0,o),
(276,0,qs),
(141,0,o),
(57,-8,q),
(43,-8,o),
(43,68,o),
(57,68,qs),
(163,68,o),
(164,143,qs),
(164,549,ls),
(164,682,o),
(72,682,qs),
(56,682,o),
(55,756,o),
(72,756,qs),
(121,756,o),
(258,823,qs),
(321,854,o),
(342,872,qs),
(354,882,o),
(369,883,qs),
(398,883,o),
(399,856,q),
(393,788,l),
(393,770,o),
(412,768,o),
(420,778,qs),
(463,833,o),
(557,858,qs),
(598,868,o),
(653,870,qs),
(841,870,o),
(928,684,qs),
(965,610,o),
(963,465,qs),
(965,139,ls)
);
}
);
userData = {
assembly = "PUSHB[ ]	/* 6 values pushed */
35 1 9 5 1 76 
MPPEM[ ]	/* MeasurePixelPerEm */
PUSHB[ ]	/* 1 value pushed */
20 
LT[ ]	/* LessThan */
IF[ ]	/* If */
NPUSHB[ ]	/* 48 values pushed */
0 9 5 8 8 9 114 0 2 0 3 4 2 3 105 0 7 7 0 97 1 1 0 0 71 77 6 1 4 4 5 97 0 5 5 69 77 0 8 8 10 98 0 10 10 73 10 78 
ELSE[ ]	/* Else */
MPPEM[ ]	/* MeasurePixelPerEm */
PUSHB[ ]	/* 1 value pushed */
34 
LT[ ]	/* LessThan */
IF[ ]	/* If */
NPUSHB[ ]	/* 49 values pushed */
0 9 5 8 5 9 8 128 0 2 0 3 4 2 3 105 0 7 7 0 97 1 1 0 0 71 77 6 1 4 4 5 97 0 5 5 69 77 0 8 8 10 98 0 10 10 73 10 78 
ELSE[ ]	/* Else */
MPPEM[ ]	/* MeasurePixelPerEm */
PUSHB[ ]	/* 1 value pushed */
35 
LT[ ]	/* LessThan */
IF[ ]	/* If */
NPUSHB[ ]	/* 53 values pushed */
0 9 5 8 5 9 8 128 0 2 0 3 4 2 3 105 0 1 1 71 77 0 7 7 0 97 0 0 0 71 77 6 1 4 4 5 97 0 5 5 69 77 0 8 8 10 98 0 10 10 73 10 78 
ELSE[ ]	/* Else */
MPPEM[ ]	/* MeasurePixelPerEm */
PUSHB[ ]	/* 1 value pushed */
37 
LT[ ]	/* LessThan */
IF[ ]	/* If */
NPUSHB[ ]	/* 49 values pushed */
0 9 5 8 5 9 8 128 0 2 0 3 4 2 3 105 0 7 7 0 97 1 1 0 0 71 77 6 1 4 4 5 97 0 5 5 69 77 0 8 8 10 98 0 10 10 73 10 78 
ELSE[ ]	/* Else */
MPPEM[ ]	/* MeasurePixelPerEm */
PUSHB[ ]	/* 1 value pushed */
44 
LT[ ]	/* LessThan */
IF[ ]	/* If */
NPUSHB[ ]	/* 53 values pushed */
0 9 5 8 5 9 8 128 0 2 0 3 4 2 3 105 0 1 1 71 77 0 7 7 0 97 0 0 0 71 77 6 1 4 4 5 97 0 5 5 69 77 0 8 8 10 98 0 10 10 73 10 78 
ELSE[ ]	/* Else */
NPUSHB[ ]	/* 51 values pushed */
0 9 5 8 5 9 8 128 0 2 0 3 4 2 3 105 6 1 4 0 5 9 4 5 105 0 1 1 71 77 0 7 7 0 97 0 0 0 71 77 0 8 8 10 98 0 10 10 73 10 78 
EIF[ ]	/* EndIf */
EIF[ ]	/* EndIf */
EIF[ ]	/* EndIf */
EIF[ ]	/* EndIf */
EIF[ ]	/* EndIf */
NPUSHB[ ]	/* 16 values pushed */
62 60 56 54 22 37 35 36 19 34 21 24 35 11 11 31 
CALL[ ]	/* CallFunction */";
};
width = 1085;
}
);
note = eng;
unicode = 331;
},
{
glyphname = o;
kernLeft = c;
kernRight = o;
layers = (
{
layerId = m01;
shapes = (
{
closed = 1;
nodes = (
(969,217,o),
(846,94,qs),
(727,-25,o),
(518,-23,qs),
(334,-23,o),
(205,98,qs),
(66,229,o),
(66,424,qs),
(66,594,o),
(176,721,qs),
(307,871,o),
(516,870,qs),
(733,870,o),
(866,713,qs),
(969,590,o),
(969,426,q),
(969,426,l)
);
},
{
closed = 1;
nodes = (
(715,604,o),
(643,713,qs),
(590,795,o),
(518,793,qs),
(436,793,o),
(379,688,qs),
(320,579,o),
(319,420,qs),
(319,236,o),
(391,133,qs),
(442,61,o),
(516,61,qs),
(610,61,o),
(666,174,qs),
(715,275,o),
(715,420,q),
(715,420,l)
);
}
);
userData = {
assembly = "NPUSHB[ ]	/* 28 values pushed */
0 3 3 0 97 0 0 0 71 77 0 2 2 1 97 0 1 1 69 1 78 38 39 38 35 4 11 26 
CALL[ ]	/* CallFunction */";
};
width = 1030;
}
);
note = o;
unicode = 111;
},
{
glyphname = uni01EB;
layers = (
{
layerId = m01;
shapes = (
{
closed = 1;
nodes = (
(715,604,o),
(643,713,qs),
(590,795,o),
(518,793,qs),
(436,793,o),
(379,688,qs),
(320,579,o),
(319,420,qs),
(319,236,o),
(391,133,qs),
(442,61,o),
(516,61,qs),
(610,61,o),
(666,174,qs),
(715,275,o),
(715,420,q),
(715,420,l)
);
},
{
closed = 1;
nodes = (
(969,324,o),
(913,168,o),
(795,49,o),
(625,-29,o),
(496,-156,o),
(496,-246,qs),
(496,-367,o),
(618,-367,qs),
(679,-367,o),
(721,-336,q),
(741,-342,o),
(741,-375,q),
(665,-488,o),
(524,-487,q),
(319,-475,o),
(319,-303,qs),
(319,-151,o),
(500,-23,q),
(328,-17,o),
(205,98,qs),
(66,229,o),
(66,424,qs),
(66,594,o),
(176,721,qs),
(307,871,o),
(516,870,qs),
(733,870,o),
(866,713,qs),
(969,590,o),
(969,426,q),
(969,426,l)
);
}
);
userData = {
assembly = "NPUSHB[ ]	/* 47 values pushed */
37 1 5 3 35 1 4 5 2 76 0 5 0 4 5 4 101 0 1 1 2 97 0 2 2 71 77 0 0 0 3 97 0 3 3 69 3 78 36 35 22 39 38 35 6 11 28 
CALL[ ]	/* CallFunction */";
};
width = 1030;
}
);
note = uni01EB;
},
{
glyphname = oslash;
layers = (
{
layerId = m01;
shapes = (
{
closed = 1;
nodes = (
(217,-94,o),
(207,-94,qs),
(195,-94,o),
(170,-76,qs),
(137,-49,o),
(147,-35,qs),
(227,78,l),
(215,88,o),
(205,98,qs),
(66,229,o),
(66,424,qs),
(66,594,o),
(176,721,qs),
(307,871,o),
(516,870,qs),
(651,870,o),
(754,811,q),
(831,918,ls),
(837,926,o),
(848,926,qs),
(860,926,o),
(883,911,qs),
(924,884,o),
(907,864,q),
(827,754,l),
(847,736,o),
(866,713,qs),
(968,590,o),
(969,426,qs),
(969,217,o),
(846,94,qs),
(727,-25,o),
(518,-23,qs),
(399,-23,o),
(303,27,q),
(221,-88,ls)
);
},
{
closed = 1;
nodes = (
(662,682,l),
(654,698,o),
(643,713,qs),
(590,795,o),
(518,793,qs),
(436,793,o),
(379,688,qs),
(320,579,o),
(319,420,qs),
(319,316,o),
(342,238,q),
(342,238,l)
);
},
{
closed = 1;
nodes = (
(387,137,o),
(391,133,q),
(442,61,o),
(516,61,qs),
(610,61,o),
(666,174,qs),
(715,272,o),
(715,420,qs),
(715,506,o),
(698,575,q),
(385,141,l)
);
}
);
userData = {
assembly = "NPUSHB[ ]	/* 53 values pushed */
18 1 4 2 56 46 28 10 4 5 4 2 76 0 1 2 1 133 0 3 0 3 134 0 4 4 2 97 0 2 2 71 77 0 5 5 0 97 0 0 0 69 0 78 42 39 43 35 43 33 6 11 28 
CALL[ ]	/* CallFunction */";
};
width = 1030;
}
);
note = oslash;
unicode = 248;
},
{
glyphname = oslashacute;
layers = (
{
layerId = m01;
shapes = (
{
closed = 1;
nodes = (
(475,1020,o),
(475,1073,qs),
(475,1093,o),
(483,1114,qs),
(604,1415,ls),
(610,1431,o),
(633,1434,q),
(666,1434,o),
(727,1391,qs),
(766,1364,o),
(766,1343,qs),
(766,1337,o),
(762,1331,qs),
(586,1069,ls),
(555,1020,o),
(518,1020,q),
(518,1020,l)
);
},
{
closed = 1;
nodes = (
(217,-94,o),
(207,-94,qs),
(195,-94,o),
(170,-76,qs),
(137,-49,o),
(147,-35,qs),
(227,78,l),
(215,88,o),
(205,98,qs),
(66,229,o),
(66,424,qs),
(66,594,o),
(176,721,qs),
(307,871,o),
(516,870,qs),
(651,870,o),
(754,811,q),
(831,918,ls),
(837,926,o),
(848,926,qs),
(860,926,o),
(883,911,qs),
(924,884,o),
(907,864,q),
(827,754,l),
(847,736,o),
(866,713,qs),
(968,590,o),
(969,426,qs),
(969,217,o),
(846,94,qs),
(727,-25,o),
(518,-23,qs),
(399,-23,o),
(303,27,q),
(221,-88,ls)
);
},
{
closed = 1;
nodes = (
(662,682,l),
(654,698,o),
(643,713,qs),
(590,795,o),
(518,793,qs),
(436,793,o),
(379,688,qs),
(320,579,o),
(319,420,qs),
(319,316,o),
(342,238,q),
(342,238,l)
);
},
{
closed = 1;
nodes = (
(387,137,o),
(391,133,q),
(442,61,o),
(516,61,qs),
(610,61,o),
(666,174,qs),
(715,272,o),
(715,420,qs),
(715,506,o),
(698,575,q),
(385,141,l)
);
}
);
userData = {
assembly = "NPUSHB[ ]	/* 13 values pushed */
35 1 6 4 73 63 45 27 4 7 6 2 76 
MPPEM[ ]	/* MeasurePixelPerEm */
PUSHB[ ]	/* 1 value pushed */
10 
LT[ ]	/* LessThan */
IF[ ]	/* If */
NPUSHB[ ]	/* 42 values pushed */
0 1 0 1 133 8 1 0 3 0 133 0 3 4 3 133 0 5 2 5 134 0 6 6 4 97 0 4 4 71 77 0 7 7 2 97 0 2 2 69 2 78 
ELSE[ ]	/* Else */
MPPEM[ ]	/* MeasurePixelPerEm */
PUSHB[ ]	/* 1 value pushed */
14 
LT[ ]	/* LessThan */
IF[ ]	/* If */
NPUSHB[ ]	/* 47 values pushed */
8 1 0 1 3 1 0 3 128 0 3 4 1 3 4 126 0 5 2 5 134 0 1 1 74 77 0 6 6 4 97 0 4 4 71 77 0 7 7 2 97 0 2 2 69 2 78 
ELSE[ ]	/* Else */
MPPEM[ ]	/* MeasurePixelPerEm */
PUSHB[ ]	/* 1 value pushed */
18 
LT[ ]	/* LessThan */
IF[ ]	/* If */
NPUSHB[ ]	/* 42 values pushed */
0 1 0 1 133 8 1 0 3 0 133 0 3 4 3 133 0 5 2 5 134 0 6 6 4 97 0 4 4 71 77 0 7 7 2 97 0 2 2 69 2 78 
ELSE[ ]	/* Else */
MPPEM[ ]	/* MeasurePixelPerEm */
PUSHB[ ]	/* 1 value pushed */
20 
LT[ ]	/* LessThan */
IF[ ]	/* If */
NPUSHB[ ]	/* 47 values pushed */
8 1 0 1 3 1 0 3 128 0 3 4 1 3 4 126 0 5 2 5 134 0 1 1 74 77 0 6 6 4 97 0 4 4 71 77 0 7 7 2 97 0 2 2 69 2 78 
ELSE[ ]	/* Else */
NPUSHB[ ]	/* 42 values pushed */
0 1 0 1 133 8 1 0 3 0 133 0 3 4 3 133 0 5 2 5 134 0 6 6 4 97 0 4 4 71 77 0 7 7 2 97 0 2 2 69 2 78 
EIF[ ]	/* EndIf */
EIF[ ]	/* EndIf */
EIF[ ]	/* EndIf */
EIF[ ]	/* EndIf */
NPUSHB[ ]	/* 23 values pushed */
1 0 72 70 60 58 51 49 38 36 33 31 20 18 9 8 0 16 1 15 9 11 22 
CALL[ ]	/* CallFunction */";
};
width = 1030;
}
);
note = oslashacute;
unicode = 511;
},
{
glyphname = oe;
layers = (
{
layerId = m01;
shapes = (
{
closed = 1;
nodes = (
(1468,536,o),
(1378,537,qs),
(967,537,ls),
(957,537,o),
(956,510,qs),
(956,315,o),
(1032,207,qs),
(1095,115,o),
(1200,113,qs),
(1278,113,o),
(1356,160,qs),
(1383,176,o),
(1386,178,q),
(1397,180,l),
(1420,180,o),
(1436,150,qs),
(1442,140,o),
(1444,131,q),
(1442,121,l),
(1440,119,ls),
(1379,53,o),
(1284,12,qs),
(1200,-25,o),
(1114,-25,qs),
(985,-25,o),
(877,82,qs),
(863,96,o),
(848,113,q),
(729,-22,o),
(506,-23,qs),
(322,-23,o),
(193,98,qs),
(74,211,o),
(55,373,qs),
(53,400,o),
(53,424,qs),
(53,594,o),
(164,719,qs),
(277,846,o),
(449,866,qs),
(478,868,o),
(504,870,q),
(709,870,o),
(834,731,qs),
(840,725,l),
(934,834,o),
(1057,862,qs),
(1090,870,o),
(1120,870,qs),
(1280,870,o),
(1391,756,qs),
(1457,688,o),
(1466,627,qs),
(1468,612,l)
);
},
{
closed = 1;
nodes = (
(1237,733,o),
(1180,772,qs),
(1151,790,o),
(1122,791,qs),
(989,791,o),
(969,653,qs),
(965,626,o),
(989,627,qs),
(1223,627,ls),
(1249,626,o),
(1245,651,q),
(1245,651,l)
);
},
{
closed = 1;
nodes = (
(702,604,o),
(631,713,qs),
(580,793,o),
(506,793,qs),
(422,793,o),
(367,688,qs),
(308,579,o),
(307,420,qs),
(307,236,o),
(381,133,qs),
(432,61,o),
(504,61,qs),
(598,61,o),
(653,176,qs),
(702,275,o),
(702,420,q),
(702,420,l)
);
}
);
userData = {
assembly = "NPUSHB[ ]	/* 84 values pushed */
8 1 8 9 53 1 7 8 25 1 10 6 3 76 0 5 7 6 7 5 6 128 0 8 0 7 5 8 7 103 11 1 9 9 0 97 2 1 2 0 0 71 77 0 6 6 3 97 4 1 3 3 69 77 0 10 10 3 97 4 1 3 3 69 3 78 79 77 71 69 62 60 51 52 36 24 36 41 17 21 35 12 11 31 
CALL[ ]	/* CallFunction */";
};
width = 1546;
}
);
note = oe;
unicode = 339;
},
{
glyphname = p;
kernLeft = p;
kernRight = p;
layers = (
{
layerId = m01;
shapes = (
{
closed = 1;
nodes = (
(958,127,o),
(758,23,qs),
(670,-22,o),
(526,-23,qs),
(436,-23,o),
(399,-4,qs),
(391,0,o),
(385,0,qs),
(367,0,o),
(367,-27,qs),
(367,-397,ls),
(367,-483,o),
(508,-483,qs),
(522,-483,o),
(522,-559,o),
(508,-559,q),
(424,-551,o),
(256,-551,qs),
(113,-551,o),
(33,-559,q),
(17,-559,o),
(16,-483,o),
(33,-483,qs),
(135,-483,o),
(137,-399,qs),
(137,549,ls),
(137,682,o),
(45,682,qs),
(31,682,o),
(31,756,o),
(45,756,qs),
(100,756,o),
(236,825,qs),
(293,856,o),
(313,872,qs),
(327,882,o),
(340,883,qs),
(367,883,o),
(371,862,q),
(367,815,l),
(367,790,o),
(381,791,qs),
(393,791,o),
(408,809,qs),
(437,842,o),
(492,860,qs),
(523,868,o),
(559,870,q),
(709,870,o),
(801,805,qs),
(958,690,o),
(958,475,q),
(958,475,l)
);
},
{
closed = 1;
nodes = (
(725,626,o),
(641,719,q),
(590,770,o),
(518,770,qs),
(432,770,o),
(379,686,qs),
(367,668,o),
(367,616,qs),
(367,178,l),
(373,59,o),
(545,59,qs),
(633,59,o),
(688,199,qs),
(725,290,o),
(725,401,q),
(725,401,l)
);
}
);
userData = {
assembly = "NPUSHB[ ]	/* 11 values pushed */
13 12 2 1 0 1 76 36 1 6 73 
MPPEM[ ]	/* MeasurePixelPerEm */
PUSHB[ ]	/* 1 value pushed */
34 
LT[ ]	/* LessThan */
IF[ ]	/* If */
NPUSHB[ ]	/* 54 values pushed */
0 1 0 11 0 1 11 128 0 3 0 4 10 3 4 105 0 11 11 0 97 2 1 0 0 71 77 0 8 8 69 77 0 10 10 9 98 0 9 9 69 77 7 1 5 5 6 97 0 6 6 73 6 78 
ELSE[ ]	/* Else */
MPPEM[ ]	/* MeasurePixelPerEm */
PUSHB[ ]	/* 1 value pushed */
35 
LT[ ]	/* LessThan */
IF[ ]	/* If */
NPUSHB[ ]	/* 58 values pushed */
0 1 0 11 0 1 11 128 0 3 0 4 10 3 4 105 0 2 2 71 77 0 11 11 0 97 0 0 0 71 77 0 8 8 69 77 0 10 10 9 98 0 9 9 69 77 7 1 5 5 6 97 0 6 6 73 6 78 
ELSE[ ]	/* Else */
MPPEM[ ]	/* MeasurePixelPerEm */
PUSHB[ ]	/* 1 value pushed */
37 
LT[ ]	/* LessThan */
IF[ ]	/* If */
NPUSHB[ ]	/* 54 values pushed */
0 1 0 11 0 1 11 128 0 3 0 4 10 3 4 105 0 11 11 0 97 2 1 0 0 71 77 0 8 8 69 77 0 10 10 9 98 0 9 9 69 77 7 1 5 5 6 97 0 6 6 73 6 78 
ELSE[ ]	/* Else */
MPPEM[ ]	/* MeasurePixelPerEm */
PUSHB[ ]	/* 1 value pushed */
44 
LT[ ]	/* LessThan */
IF[ ]	/* If */
NPUSHB[ ]	/* 58 values pushed */
0 1 0 11 0 1 11 128 0 3 0 4 10 3 4 105 0 2 2 71 77 0 11 11 0 97 0 0 0 71 77 0 8 8 69 77 0 10 10 9 98 0 9 9 69 77 7 1 5 5 6 97 0 6 6 73 6 78 
ELSE[ ]	/* Else */
NPUSHB[ ]	/* 60 values pushed */
0 1 0 11 0 1 11 128 0 8 10 9 9 8 114 0 3 0 4 10 3 4 105 0 2 2 71 77 0 11 11 0 97 0 0 0 71 77 0 10 10 9 98 0 9 9 69 77 7 1 5 5 6 97 0 6 6 73 6 78 
EIF[ ]	/* EndIf */
EIF[ ]	/* EndIf */
EIF[ ]	/* EndIf */
EIF[ ]	/* EndIf */
NPUSHB[ ]	/* 18 values pushed */
65 63 58 56 49 47 35 35 36 19 34 21 19 36 35 12 11 31 
CALL[ ]	/* CallFunction */";
};
width = 1007;
}
);
note = p;
unicode = 112;
},
{
glyphname = thorn;
layers = (
{
layerId = m01;
shapes = (
{
closed = 1;
nodes = (
(977,244,o),
(735,92,qs),
(631,26,o),
(391,-12,qs),
(366,-16,o),
(367,-45,qs),
(367,-393,ls),
(367,-473,o),
(285,-500,qs),
(111,-557,l),
(82,-563,o),
(57,-518,q),
(39,-479,o),
(61,-465,qs),
(123,-422,l),
(137,-414,o),
(137,-391,qs),
(137,1153,ls),
(137,1286,o),
(45,1286,qs),
(31,1286,o),
(31,1360,o),
(45,1360,qs),
(88,1360,o),
(231,1427,qs),
(297,1458,o),
(317,1477,q),
(331,1487,o),
(346,1487,qs),
(375,1487,o),
(375,1458,q),
(367,1327,o),
(367,1229,qs),
(367,825,ls),
(367,802,o),
(381,803,qs),
(389,803,o),
(399,811,qs),
(469,870,o),
(588,870,qs),
(748,870,o),
(852,793,qs),
(977,698,o),
(977,508,q),
(977,508,l)
);
},
{
closed = 1;
nodes = (
(723,779,o),
(545,778,qs),
(441,778,o),
(379,688,q),
(367,663,o),
(367,625,qs),
(367,100,ls),
(367,82,o),
(385,82,qs),
(395,82,l),
(526,98,o),
(606,195,qs),
(723,336,o),
(723,457,q),
(723,457,l)
);
}
);
userData = {
assembly = "NPUSHB[ ]	/* 49 values pushed */
10 8 2 5 0 1 76 0 4 5 4 134 0 1 1 70 77 0 3 3 2 97 0 2 2 68 77 0 5 5 0 97 0 0 0 71 5 78 58 56 51 49 34 21 25 35 6 11 26 
CALL[ ]	/* CallFunction */";
};
width = 1044;
}
);
note = thorn;
unicode = 254;
},
{
glyphname = q;
layers = (
{
layerId = m01;
shapes = (
{
closed = 1;
nodes = (
(936,-551,o),
(625,-551,o),
(541,-559,q),
(527,-559,o),
(526,-483,o),
(541,-483,qs),
(664,-483,o),
(664,-397,qs),
(664,-6,l),
(603,-22,o),
(514,-23,qs),
(65,-23,o),
(66,481,qs),
(66,653,o),
(180,766,qs),
(289,870,o),
(467,870,qs),
(621,870,o),
(711,817,qs),
(717,813,o),
(725,811,q),
(834,864,ls),
(869,880,o),
(899,836,qs),
(924,801,o),
(907,788,q),
(893,774,o),
(893,616,qs),
(893,-399,ls),
(893,-483,o),
(1016,-483,qs),
(1032,-483,o),
(1032,-559,o),
(1016,-559,q),
(1016,-559,l)
);
},
{
closed = 1;
nodes = (
(664,643,ls),
(664,666,o),
(655,678,qs),
(587,770,o),
(508,770,qs),
(299,770,o),
(299,420,qs),
(299,266,o),
(350,160,qs),
(397,60,o),
(487,59,qs),
(608,59,o),
(645,117,qs),
(664,143,o),
(664,180,q),
(664,180,l)
);
}
);
userData = {
assembly = "NPUSHB[ ]	/* 52 values pushed */
13 1 6 1 25 1 2 5 2 76 0 6 6 1 97 0 1 1 71 77 0 5 5 2 97 0 2 2 69 77 3 1 0 0 4 97 0 4 4 73 4 78 36 37 20 19 36 44 34 7 11 29 
CALL[ ]	/* CallFunction */";
};
width = 978;
}
);
note = q;
unicode = 113;
},
{
glyphname = r;
kernLeft = m;
layers = (
{
layerId = m01;
shapes = (
{
closed = 1;
nodes = (
(756,693,o),
(715,657,qs),
(688,632,o),
(653,633,qs),
(602,633,o),
(551,684,qs),
(528,707,o),
(502,707,qs),
(459,707,o),
(426,649,qs),
(393,594,o),
(393,522,qs),
(393,143,ls),
(393,67,o),
(496,68,qs),
(510,68,o),
(512,-8,o),
(496,-8,q),
(412,0,o),
(287,0,qs),
(144,0,o),
(59,-8,q),
(45,-8,o),
(43,68,o),
(59,68,qs),
(163,68,o),
(164,143,qs),
(164,549,ls),
(164,682,o),
(72,682,qs),
(56,682,o),
(55,756,o),
(72,756,qs),
(123,756,o),
(262,825,qs),
(321,856,o),
(342,872,qs),
(354,882,o),
(371,883,qs),
(396,883,o),
(399,862,q),
(393,788,l),
(393,765,o),
(420,766,o),
(442,791,qs),
(510,871,o),
(610,870,qs),
(680,870,o),
(725,825,qs),
(756,795,o),
(756,752,q),
(756,752,l)
);
}
);
userData = {
assembly = "NPUSHB[ ]	/* 11 values pushed */
10 9 2 1 0 1 76 33 1 6 73 
MPPEM[ ]	/* MeasurePixelPerEm */
PUSHB[ ]	/* 1 value pushed */
34 
LT[ ]	/* LessThan */
IF[ ]	/* If */
NPUSHB[ ]	/* 39 values pushed */
0 9 4 5 8 9 114 3 1 1 0 4 9 1 4 105 0 8 8 0 97 2 1 0 0 71 77 7 1 5 5 6 98 0 6 6 69 6 78 
ELSE[ ]	/* Else */
MPPEM[ ]	/* MeasurePixelPerEm */
PUSHB[ ]	/* 1 value pushed */
39 
LT[ ]	/* LessThan */
IF[ ]	/* If */
NPUSHB[ ]	/* 40 values pushed */
0 9 4 5 4 9 5 128 3 1 1 0 4 9 1 4 105 0 8 8 0 97 2 1 0 0 71 77 7 1 5 5 6 98 0 6 6 69 6 78 
ELSE[ ]	/* Else */
MPPEM[ ]	/* MeasurePixelPerEm */
PUSHB[ ]	/* 1 value pushed */
44 
LT[ ]	/* LessThan */
IF[ ]	/* If */
NPUSHB[ ]	/* 44 values pushed */
0 9 4 5 4 9 5 128 3 1 1 0 4 9 1 4 105 0 2 2 71 77 0 8 8 0 97 0 0 0 71 77 7 1 5 5 6 98 0 6 6 69 6 78 
ELSE[ ]	/* Else */
NPUSHB[ ]	/* 41 values pushed */
0 9 4 5 4 9 5 128 3 1 1 0 4 9 1 4 105 7 1 5 0 6 5 6 102 0 2 2 71 77 0 8 8 0 97 0 0 0 71 8 78 
EIF[ ]	/* EndIf */
EIF[ ]	/* EndIf */
EIF[ ]	/* EndIf */
NPUSHB[ ]	/* 14 values pushed */
48 46 37 35 36 19 34 21 19 18 35 10 11 31 
CALL[ ]	/* CallFunction */";
};
width = 753;
}
);
note = r;
unicode = 114;
},
{
glyphname = uni0157;
layers = (
{
layerId = m01;
shapes = (
{
closed = 1;
nodes = (
(428,-401,o),
(342,-457,qs),
(268,-504,o),
(170,-506,qs),
(45,-506,o),
(18,-444,qs),
(12,-432,o),
(12,-416,qs),
(12,-373,o),
(47,-354,qs),
(59,-348,o),
(78,-346,q),
(109,-346,o),
(152,-385,qs),
(195,-422,o),
(217,-424,q),
(270,-424,o),
(270,-373,qs),
(270,-295,o),
(127,-229,qs),
(107,-221,o),
(109,-213,q),
(109,-209,o),
(115,-201,qs),
(250,0,l),
(133,0,o),
(59,-8,q),
(45,-8,o),
(43,68,o),
(59,68,qs),
(163,68,o),
(164,143,qs),
(164,549,ls),
(164,682,o),
(72,682,qs),
(56,682,o),
(55,756,o),
(72,756,qs),
(123,756,o),
(262,825,qs),
(321,856,o),
(342,872,qs),
(354,882,o),
(371,883,qs),
(396,883,o),
(399,862,q),
(393,788,l),
(393,765,o),
(420,766,o),
(442,791,qs),
(510,871,o),
(610,870,qs),
(680,870,o),
(725,825,qs),
(756,794,o),
(756,752,qs),
(756,693,o),
(715,657,qs),
(688,632,o),
(653,633,qs),
(602,633,o),
(551,684,qs),
(528,707,o),
(502,707,qs),
(459,707,o),
(426,649,qs),
(393,594,o),
(393,522,qs),
(393,143,ls),
(393,67,o),
(496,68,qs),
(510,68,o),
(512,-8,o),
(496,-8,q),
(437,-2,o),
(356,0,q),
(287,-96,ls),
(279,-108,o),
(276,-115,q),
(276,-125,o),
(305,-141,qs),
(428,-206,o),
(428,-315,q),
(428,-315,l)
);
}
);
userData = {
assembly = "NPUSHB[ ]	/* 15 values pushed */
37 36 2 5 4 9 1 12 0 75 1 11 12 3 76 
MPPEM[ ]	/* MeasurePixelPerEm */
PUSHB[ ]	/* 1 value pushed */
32 
LT[ ]	/* LessThan */
IF[ ]	/* If */
NPUSHB[ ]	/* 54 values pushed */
0 3 8 1 2 3 114 0 12 0 11 11 12 114 7 1 5 0 8 3 5 8 105 0 11 0 13 11 13 102 0 2 2 4 97 6 1 4 4 71 77 9 1 1 1 0 98 10 1 0 0 69 0 78 
ELSE[ ]	/* Else */
MPPEM[ ]	/* MeasurePixelPerEm */
PUSHB[ ]	/* 1 value pushed */
34 
LT[ ]	/* LessThan */
IF[ ]	/* If */
NPUSHB[ ]	/* 55 values pushed */
0 3 8 1 2 3 114 0 12 0 11 0 12 11 128 7 1 5 0 8 3 5 8 105 0 11 0 13 11 13 102 0 2 2 4 97 6 1 4 4 71 77 9 1 1 1 0 98 10 1 0 0 69 0 78 
ELSE[ ]	/* Else */
MPPEM[ ]	/* MeasurePixelPerEm */
PUSHB[ ]	/* 1 value pushed */
39 
LT[ ]	/* LessThan */
IF[ ]	/* If */
NPUSHB[ ]	/* 56 values pushed */
0 3 8 1 8 3 1 128 0 12 0 11 0 12 11 128 7 1 5 0 8 3 5 8 105 0 11 0 13 11 13 102 0 2 2 4 97 6 1 4 4 71 77 9 1 1 1 0 98 10 1 0 0 69 0 78 
ELSE[ ]	/* Else */
MPPEM[ ]	/* MeasurePixelPerEm */
PUSHB[ ]	/* 1 value pushed */
46 
LT[ ]	/* LessThan */
IF[ ]	/* If */
NPUSHB[ ]	/* 60 values pushed */
0 3 8 1 8 3 1 128 0 12 0 11 0 12 11 128 7 1 5 0 8 3 5 8 105 0 11 0 13 11 13 102 0 6 6 71 77 0 2 2 4 97 0 4 4 71 77 9 1 1 1 0 98 10 1 0 0 69 0 78 
ELSE[ ]	/* Else */
NPUSHB[ ]	/* 58 values pushed */
0 3 8 1 8 3 1 128 0 12 0 11 0 12 11 128 7 1 5 0 8 3 5 8 105 9 1 1 10 1 0 12 1 0 106 0 11 0 13 11 13 102 0 6 6 71 77 0 2 2 4 97 0 4 4 71 2 78 
EIF[ ]	/* EndIf */
EIF[ ]	/* EndIf */
EIF[ ]	/* EndIf */
EIF[ ]	/* EndIf */
NPUSHB[ ]	/* 22 values pushed */
80 78 71 70 67 66 58 57 53 52 34 21 19 18 38 34 37 35 23 14 11 31 
CALL[ ]	/* CallFunction */";
};
width = 753;
}
);
note = uni0157;
unicode = 343;
},
{
glyphname = s;
kernLeft = s;
layers = (
{
layerId = m01;
shapes = (
{
closed = 1;
nodes = (
(201,-23,o),
(106,37,q),
(77,105,o),
(78,258,qs),
(78,276,o),
(113,276,qs),
(152,276,o),
(154,260,qs),
(158,207,o),
(221,133,qs),
(287,57,o),
(379,57,qs),
(428,57,o),
(469,98,qs),
(502,133,o),
(502,174,qs),
(502,295,o),
(330,340,qs),
(154,387,o),
(92,489,qs),
(61,540,o),
(63,612,qs),
(63,727,o),
(164,801,qs),
(256,871,o),
(387,870,qs),
(510,870,o),
(604,834,q),
(643,730,o),
(643,643,qs),
(643,625,o),
(612,625,qs),
(579,625,o),
(578,635,q),
(560,686,o),
(498,748,qs),
(457,789,o),
(373,788,qs),
(312,788,o),
(274,737,qs),
(251,706,o),
(252,674,qs),
(252,574,o),
(420,532,qs),
(580,491,o),
(643,416,qs),
(692,355,o),
(694,258,qs),
(694,125,o),
(584,43,qs),
(489,-25,o),
(346,-23,q),
(346,-23,l)
);
}
);
userData = {
assembly = "NPUSHB[ ]	/* 56 values pushed */
0 2 1 5 1 2 5 128 0 5 4 1 5 4 126 0 1 1 3 97 0 3 3 71 77 0 4 4 0 97 6 1 0 0 69 0 78 1 0 47 46 41 39 27 25 21 20 15 13 0 52 1 51 7 11 22 
CALL[ ]	/* CallFunction */";
};
width = 747;
}
);
note = s;
unicode = 115;
},
{
glyphname = scedilla;
layers = (
{
layerId = m01;
shapes = (
{
closed = 1;
nodes = (
(465,-418,o),
(377,-473,qs),
(303,-520,o),
(205,-520,qs),
(80,-520,o),
(53,-461,qs),
(47,-449,o),
(47,-430,qs),
(47,-387,o),
(84,-371,qs),
(96,-365,o),
(113,-362,q),
(144,-362,o),
(188,-401,qs),
(231,-438,o),
(254,-438,qs),
(307,-438,o),
(305,-387,qs),
(305,-309,o),
(164,-246,qs),
(144,-238,o),
(143,-229,qs),
(143,-225,o),
(150,-215,qs),
(283,-20,l),
(179,-10,o),
(106,37,q),
(77,105,o),
(78,258,qs),
(78,276,o),
(113,276,qs),
(152,276,o),
(154,260,qs),
(158,207,o),
(221,133,qs),
(287,57,o),
(379,57,qs),
(428,57,o),
(469,98,qs),
(502,133,o),
(502,174,qs),
(502,295,o),
(330,340,qs),
(154,387,o),
(92,489,qs),
(61,540,o),
(63,612,qs),
(63,727,o),
(164,801,qs),
(256,871,o),
(387,870,qs),
(510,870,o),
(604,834,q),
(643,730,o),
(643,643,qs),
(643,625,o),
(612,625,qs),
(579,625,o),
(578,635,q),
(560,686,o),
(498,748,qs),
(457,789,o),
(373,788,qs),
(312,788,o),
(274,737,qs),
(251,706,o),
(252,674,qs),
(252,574,o),
(420,532,qs),
(580,491,o),
(643,416,qs),
(692,355,o),
(694,258,qs),
(694,125,o),
(584,43,qs),
(504,-14,o),
(389,-23,q),
(322,-113,ls),
(314,-125,o),
(313,-131,q),
(313,-141,o),
(342,-158,qs),
(465,-223,o),
(465,-332,q),
(465,-332,l)
);
}
);
userData = {
assembly = "NPUSHB[ ]	/* 11 values pushed */
62 59 2 6 3 76 1 5 6 2 76 
MPPEM[ ]	/* MeasurePixelPerEm */
PUSHB[ ]	/* 1 value pushed */
25 
LT[ ]	/* LessThan */
IF[ ]	/* If */
NPUSHB[ ]	/* 49 values pushed */
0 1 0 4 0 1 4 128 0 4 3 0 4 3 126 0 3 6 0 3 6 126 0 6 5 5 6 112 0 0 0 2 97 0 2 2 71 77 0 5 5 7 98 0 7 7 73 7 78 
ELSE[ ]	/* Else */
MPPEM[ ]	/* MeasurePixelPerEm */
PUSHB[ ]	/* 1 value pushed */
34 
LT[ ]	/* LessThan */
IF[ ]	/* If */
NPUSHB[ ]	/* 46 values pushed */
0 1 0 4 0 1 4 128 0 4 3 0 4 3 126 0 3 6 0 3 6 126 0 6 5 5 6 112 0 5 0 7 5 7 102 0 0 0 2 97 0 2 2 71 0 78 
ELSE[ ]	/* Else */
NPUSHB[ ]	/* 47 values pushed */
0 1 0 4 0 1 4 128 0 4 3 0 4 3 126 0 3 6 0 3 6 126 0 6 5 0 6 5 126 0 5 0 7 5 7 102 0 0 0 2 97 0 2 2 71 0 78 
EIF[ ]	/* EndIf */
EIF[ ]	/* EndIf */
NPUSHB[ ]	/* 19 values pushed */
81 79 72 71 69 67 54 53 48 46 34 32 28 27 22 20 8 11 22 
CALL[ ]	/* CallFunction */";
};
width = 747;
}
);
note = scedilla;
unicode = 351;
},
{
glyphname = germandbls;
layers = (
{
layerId = m01;
shapes = (
{
closed = 1;
nodes = (
(1124,115,o),
(1016,35,qs),
(936,-24,o),
(813,-25,qs),
(704,-25,o),
(618,37,q),
(589,109,o),
(590,217,qs),
(590,235,o),
(625,236,qs),
(666,236,o),
(666,219,qs),
(666,172,o),
(723,113,qs),
(778,58,o),
(838,57,qs),
(932,57,o),
(932,174,qs),
(932,303,o),
(795,381,qs),
(559,512,o),
(559,674,qs),
(559,801,o),
(723,918,qs),
(844,1004,o),
(842,1139,qs),
(842,1227,o),
(795,1303,qs),
(740,1391,o),
(647,1391,qs),
(516,1391,o),
(442,1200,qs),
(393,1073,o),
(393,893,qs),
(393,143,ls),
(393,67,o),
(526,68,qs),
(542,68,o),
(543,31,qs),
(543,-8,o),
(526,-8,q),
(446,0,o),
(287,0,qs),
(140,0,o),
(55,-8,q),
(41,-8,o),
(41,68,o),
(55,68,qs),
(164,68,o),
(164,143,qs),
(164,670,ls),
(164,705,o),
(133,705,qs),
(72,705,ls),
(56,705,o),
(55,778,o),
(72,778,qs),
(164,778,o),
(164,891,qs),
(164,1167,o),
(309,1321,qs),
(465,1487,o),
(674,1487,qs),
(860,1487,o),
(971,1382,qs),
(1059,1296,o),
(1059,1178,qs),
(1059,1047,o),
(862,907,qs),
(747,827,o),
(748,735,qs),
(748,647,o),
(885,573,qs),
(1026,497,o),
(1085,399,qs),
(1124,336,o),
(1124,258,q),
(1124,258,l)
);
}
);
userData = {
assembly = "MPPEM[ ]	/* MeasurePixelPerEm */
PUSHB[ ]	/* 1 value pushed */
44 
LT[ ]	/* LessThan */
IF[ ]	/* If */
NPUSHB[ ]	/* 14 values pushed */
65 1 3 8 38 1 4 3 36 1 9 4 3 76 
ELSE[ ]	/* Else */
NPUSHB[ ]	/* 14 values pushed */
65 1 3 8 38 1 4 7 36 1 9 4 3 76 
EIF[ ]	/* EndIf */
MPPEM[ ]	/* MeasurePixelPerEm */
PUSHB[ ]	/* 1 value pushed */
44 
LT[ ]	/* LessThan */
IF[ ]	/* If */
NPUSHB[ ]	/* 51 values pushed */
0 8 2 3 2 8 3 128 0 1 0 2 8 1 2 105 0 6 6 0 97 0 0 0 70 77 7 5 2 3 3 4 97 0 4 4 69 77 7 5 2 3 3 9 97 0 9 9 69 9 78 
ELSE[ ]	/* Else */
NPUSHB[ ]	/* 46 values pushed */
0 8 2 3 2 8 3 128 0 1 0 2 8 1 2 105 5 1 3 0 4 9 3 4 105 0 6 6 0 97 0 0 0 70 77 0 7 7 9 97 0 9 9 69 9 78 
EIF[ ]	/* EndIf */
NPUSHB[ ]	/* 14 values pushed */
74 72 21 44 37 36 36 19 50 20 45 10 11 31 
CALL[ ]	/* CallFunction */";
};
width = 1150;
}
);
note = germandbls;
unicode = 223;
},
{
glyphname = longs;
layers = (
{
layerId = m01;
shapes = (
{
closed = 1;
nodes = (
(164,670,ls),
(164,705,o),
(133,705,qs),
(72,705,ls),
(56,705,o),
(55,778,o),
(72,778,qs),
(119,778,o),
(164,850,o),
(164,891,qs),
(164,1176,o),
(471,1487,o),
(674,1487,qs),
(780,1487,o),
(897,1405,o),
(897,1339,qs),
(897,1292,o),
(817,1223,o),
(784,1223,qs),
(688,1223,o),
(608,1374,o),
(559,1374,qs),
(487,1374,o),
(393,1196,o),
(393,1049,qs),
(393,143,ls),
(393,67,o),
(526,68,qs),
(542,68,o),
(543,-8,o),
(526,-8,q),
(446,0,o),
(293,0,qs),
(139,0,o),
(55,-8,q),
(41,-8,o),
(41,68,o),
(55,68,qs),
(164,67,o),
(164,143,q),
(164,143,l)
);
}
);
userData = {
assembly = "PUSHB[ ]	/* 4 values pushed */
9 1 1 73 
MPPEM[ ]	/* MeasurePixelPerEm */
PUSHB[ ]	/* 1 value pushed */
18 
LT[ ]	/* LessThan */
IF[ ]	/* If */
NPUSHB[ ]	/* 37 values pushed */
0 4 3 6 3 4 114 0 6 0 7 0 6 7 105 0 3 3 5 97 0 5 5 70 77 2 1 0 0 1 97 0 1 1 69 1 78 
ELSE[ ]	/* Else */
MPPEM[ ]	/* MeasurePixelPerEm */
PUSHB[ ]	/* 1 value pushed */
44 
LT[ ]	/* LessThan */
IF[ ]	/* If */
NPUSHB[ ]	/* 38 values pushed */
0 4 3 6 3 4 6 128 0 6 0 7 0 6 7 105 0 3 3 5 97 0 5 5 70 77 2 1 0 0 1 97 0 1 1 69 1 78 
ELSE[ ]	/* Else */
NPUSHB[ ]	/* 35 values pushed */
0 4 3 6 3 4 6 128 0 6 0 7 0 6 7 105 2 1 0 0 1 0 1 101 0 3 3 5 97 0 5 5 70 3 78 
EIF[ ]	/* EndIf */
EIF[ ]	/* EndIf */
NPUSHB[ ]	/* 11 values pushed */
50 20 36 33 36 35 36 17 8 11 30 
CALL[ ]	/* CallFunction */";
};
width = 561;
}
);
note = longs;
unicode = 383;
},
{
glyphname = t;
kernLeft = t;
kernRight = t;
layers = (
{
layerId = m01;
shapes = (
{
closed = 1;
nodes = (
(577,-23,o),
(412,-23,qs),
(193,-21,o),
(160,160,qs),
(154,193,o),
(154,233,qs),
(154,715,ls),
(154,746,o),
(123,745,qs),
(68,745,ls),
(52,745,o),
(51,819,o),
(68,819,qs),
(129,819,o),
(201,879,qs),
(271,936,o),
(293,1004,qs),
(297,1016,o),
(336,1006,qs),
(379,994,o),
(385,975,q),
(385,881,ls),
(385,850,o),
(416,850,qs),
(631,850,ls),
(645,850,o),
(645,745,o),
(631,745,qs),
(416,745,ls),
(385,745,o),
(385,715,qs),
(385,299,ls),
(385,178,o),
(420,139,qs),
(447,108,o),
(506,109,qs),
(557,109,o),
(633,156,q),
(643,164,o),
(672,131,qs),
(690,108,o),
(688,96,qs),
(688,92,o),
(686,90,q),
(686,90,l)
);
}
);
userData = {
assembly = "NPUSHB[ ]	/* 41 values pushed */
23 1 2 74 0 3 1 1 3 89 4 1 1 1 2 95 0 2 2 71 77 0 0 0 5 97 0 5 5 69 5 78 37 50 25 50 37 39 6 11 28 
CALL[ ]	/* CallFunction */";
};
width = 669;
}
);
note = t;
unicode = 116;
},
{
glyphname = uni0163;
layers = (
{
layerId = m01;
shapes = (
{
closed = 1;
nodes = (
(530,-416,o),
(442,-471,qs),
(368,-518,o),
(270,-518,qs),
(145,-518,o),
(121,-459,qs),
(115,-447,o),
(115,-428,qs),
(115,-385,o),
(150,-369,qs),
(162,-363,o),
(178,-360,q),
(209,-360,o),
(254,-399,qs),
(297,-436,o),
(319,-436,qs),
(372,-436,o),
(373,-385,qs),
(373,-307,o),
(229,-244,qs),
(209,-236,o),
(211,-227,q),
(211,-223,o),
(215,-213,q),
(348,-18,l),
(188,7,o),
(160,160,qs),
(154,193,o),
(154,233,qs),
(154,715,ls),
(154,746,o),
(123,745,qs),
(68,745,ls),
(52,745,o),
(51,819,o),
(68,819,qs),
(129,819,o),
(201,879,qs),
(271,936,o),
(293,1004,qs),
(297,1016,o),
(336,1006,qs),
(379,994,o),
(385,975,q),
(385,881,ls),
(385,850,o),
(416,850,qs),
(631,850,ls),
(645,850,o),
(645,745,o),
(631,745,qs),
(416,745,ls),
(385,745,o),
(385,715,qs),
(385,299,ls),
(385,178,o),
(420,139,qs),
(447,108,o),
(506,109,qs),
(557,109,o),
(633,156,q),
(643,164,o),
(672,131,qs),
(697,100,o),
(686,90,qs),
(592,-8,o),
(455,-20,q),
(387,-111,ls),
(379,-123,o),
(379,-129,qs),
(379,-139,o),
(408,-156,qs),
(530,-221,o),
(530,-330,q),
(530,-330,l)
);
}
);
userData = {
assembly = "NPUSHB[ ]	/* 14 values pushed */
49 1 6 0 66 1 5 6 2 76 30 1 2 74 
MPPEM[ ]	/* MeasurePixelPerEm */
PUSHB[ ]	/* 1 value pushed */
25 
LT[ ]	/* LessThan */
IF[ ]	/* If */
NPUSHB[ ]	/* 42 values pushed */
0 0 1 6 1 0 6 128 0 6 5 5 6 112 0 3 1 1 3 89 4 1 1 1 2 95 0 2 2 71 77 0 5 5 7 98 0 7 7 73 7 78 
ELSE[ ]	/* Else */
MPPEM[ ]	/* MeasurePixelPerEm */
PUSHB[ ]	/* 1 value pushed */
34 
LT[ ]	/* LessThan */
IF[ ]	/* If */
NPUSHB[ ]	/* 39 values pushed */
0 0 1 6 1 0 6 128 0 6 5 5 6 112 0 3 1 1 3 89 0 5 0 7 5 7 102 4 1 1 1 2 95 0 2 2 71 2 78 
ELSE[ ]	/* Else */
NPUSHB[ ]	/* 40 values pushed */
0 0 1 6 1 0 6 128 0 6 5 1 6 5 126 0 3 1 1 3 89 0 5 0 7 5 7 102 4 1 1 1 2 95 0 2 2 71 2 78 
EIF[ ]	/* EndIf */
EIF[ ]	/* EndIf */
NPUSHB[ ]	/* 11 values pushed */
39 18 46 50 25 50 37 46 8 11 30 
CALL[ ]	/* CallFunction */";
};
width = 669;
}
);
note = uni0163;
unicode = 355;
},
{
glyphname = u;
kernLeft = u;
layers = (
{
layerId = m01;
shapes = (
{
closed = 1;
nodes = (
(1030,29,o),
(934,10,qs),
(907,6,o),
(883,0,qs),
(828,-12,o),
(768,-31,qs),
(756,-35,o),
(743,-35,qs),
(729,-35,o),
(729,10,qs),
(729,57,ls),
(729,80,o),
(705,80,o),
(690,66,qs),
(598,-22,o),
(444,-23,qs),
(317,-23,o),
(274,12,qs),
(127,131,o),
(127,309,qs),
(127,655,ls),
(127,757,o),
(43,758,qs),
(29,758,o),
(29,831,o),
(43,831,qs),
(156,831,o),
(266,850,qs),
(297,854,o),
(317,854,qs),
(362,854,o),
(362,811,q),
(356,713,o),
(356,649,qs),
(356,307,ls),
(356,184,o),
(406,125,qs),
(435,92,o),
(504,92,qs),
(567,92,o),
(637,147,qs),
(690,190,o),
(690,240,qs),
(690,655,ls),
(690,757,o),
(606,758,qs),
(590,758,o),
(590,831,o),
(606,831,qs),
(717,831,o),
(836,850,qs),
(861,854,o),
(874,854,qs),
(927,854,o),
(928,817,q),
(920,723,o),
(920,662,qs),
(920,256,ls),
(920,166,o),
(930,139,qs),
(944,98,o),
(981,98,qs),
(993,98,o),
(1016,104,qs),
(1032,108,o),
(1042,72,q),
(1044,58,o),
(1044,49,qs),
(1044,33,o),
(1038,31,q),
(1038,31,l)
);
}
);
userData = {
assembly = "NPUSHB[ ]	/* 10 values pushed */
15 1 3 2 2 1 8 9 2 76 
MPPEM[ ]	/* MeasurePixelPerEm */
PUSHB[ ]	/* 1 value pushed */
25 
LT[ ]	/* LessThan */
IF[ ]	/* If */
NPUSHB[ ]	/* 39 values pushed */
0 9 0 8 0 9 8 128 5 1 1 1 71 77 7 1 3 3 2 97 6 1 2 2 71 77 4 1 0 0 8 97 10 1 8 8 69 8 78 
ELSE[ ]	/* Else */
MPPEM[ ]	/* MeasurePixelPerEm */
PUSHB[ ]	/* 1 value pushed */
41 
LT[ ]	/* LessThan */
IF[ ]	/* If */
NPUSHB[ ]	/* 37 values pushed */
0 9 0 8 0 9 8 128 6 1 2 7 1 3 0 2 3 105 5 1 1 1 71 77 4 1 0 0 8 97 10 1 8 8 69 8 78 
ELSE[ ]	/* Else */
NPUSHB[ ]	/* 41 values pushed */
0 9 0 8 0 9 8 128 6 1 2 7 1 3 0 2 3 105 5 1 1 1 71 77 4 1 0 0 8 97 0 8 8 69 77 0 10 10 75 10 78 
EIF[ ]	/* EndIf */
EIF[ ]	/* EndIf */
NPUSHB[ ]	/* 16 values pushed */
63 61 58 57 37 34 18 39 37 34 19 23 39 11 11 31 
CALL[ ]	/* CallFunction */";
};
width = 1026;
}
);
note = u;
unicode = 117;
},
{
glyphname = uni0180;
layers = (
{
layerId = m01;
shapes = (
{
closed = 1;
nodes = (
(981,233,o),
(758,-23,o),
(537,-23,qs),
(480,-23,o),
(350,31,o),
(303,31,qs),
(287,31,o),
(231,-20,o),
(215,-20,qs),
(184,-20,o),
(141,12,qs),
(121,26,o),
(123,35,qs),
(129,68,o),
(129,279,qs),
(129,1032,ls),
(129,1069,o),
(92,1069,qs),
(-55,1069,ls),
(-71,1069,o),
(-72,1174,o),
(-55,1174,qs),
(92,1174,ls),
(125,1174,o),
(125,1194,q),
(115,1284,o),
(35,1286,qs),
(19,1286,o),
(18,1360,o),
(35,1360,qs),
(82,1360,o),
(276,1450,o),
(309,1477,qs),
(321,1487,o),
(338,1487,qs),
(367,1487,o),
(367,1462,q),
(359,1351,o),
(358,1286,qs),
(358,1210,ls),
(358,1173,o),
(395,1174,qs),
(535,1174,ls),
(549,1174,o),
(551,1069,o),
(535,1069,qs),
(395,1069,ls),
(358,1069,o),
(358,1032,qs),
(358,840,ls),
(358,811,o),
(375,811,qs),
(383,811,o),
(393,819,qs),
(467,870,o),
(561,870,qs),
(737,870,o),
(981,626,o),
(981,440,q),
(981,440,l)
);
},
{
closed = 1;
nodes = (
(727,586,o),
(600,770,o),
(502,770,qs),
(430,770,o),
(389,727,qs),
(358,696,o),
(358,647,qs),
(358,297,ls),
(358,186,o),
(481,57,o),
(565,57,qs),
(727,57,o),
(727,428,q),
(727,428,l)
);
}
);
userData = {
assembly = "NPUSHB[ ]	/* 94 values pushed */
22 1 4 3 34 1 2 5 9 7 2 12 0 46 1 9 11 4 76 0 9 11 8 11 9 8 128 6 1 2 7 1 1 0 2 1 106 0 3 3 70 77 0 5 5 4 97 0 4 4 68 77 0 12 12 0 97 0 0 0 71 77 0 11 11 8 97 10 1 8 8 69 8 78 71 69 63 61 57 55 54 52 23 50 34 34 20 21 50 39 34 13 11 31 
CALL[ ]	/* CallFunction */";
};
width = 1048;
}
);
note = uni0180;
unicode = 384;
},
{
glyphname = uni0195;
layers = (
{
layerId = m01;
shapes = (
{
closed = 1;
nodes = (
(164,1161,ls),
(164,1286,o),
(72,1286,qs),
(56,1286,o),
(55,1360,o),
(72,1360,qs),
(121,1360,o),
(256,1427,qs),
(311,1454,o),
(342,1477,qs),
(354,1487,o),
(371,1487,qs),
(400,1487,o),
(399,1460,qs),
(393,1384,o),
(393,1286,qs),
(393,821,ls),
(393,798,o),
(403,799,qs),
(411,799,o),
(426,809,q),
(504,870,o),
(637,870,qs),
(725,870,o),
(864,805,o),
(963,643,o),
(963,557,qs),
(963,311,ls),
(963,166,o),
(1069,61,o),
(1135,61,qs),
(1246,61,o),
(1360,256,o),
(1360,436,qs),
(1360,665,o),
(1147,727,q),
(1147,778,o),
(1260,870,o),
(1329,870,qs),
(1464,870,o),
(1614,586,o),
(1614,426,qs),
(1614,291,o),
(1507,90,o),
(1313,-23,o),
(1112,-23,qs),
(952,-23,o),
(733,158,o),
(733,305,qs),
(733,555,ls),
(733,631,o),
(655,762,o),
(475,762,o),
(422,698,qs),
(393,663,o),
(393,627,qs),
(393,143,ls),
(393,67,o),
(496,68,qs),
(510,68,o),
(512,-8,o),
(496,-8,q),
(398,0,o),
(274,0,qs),
(149,0,o),
(51,-8,q),
(37,-8,o),
(37,68,o),
(51,68,qs),
(164,67,o),
(164,137,q),
(164,137,l)
);
}
);
userData = {
assembly = "NPUSHB[ ]	/* 18 values pushed */
57 1 9 8 54 1 3 5 35 1 0 3 9 1 4 1 4 76 
MPPEM[ ]	/* MeasurePixelPerEm */
PUSHB[ ]	/* 1 value pushed */
44 
LT[ ]	/* LessThan */
IF[ ]	/* If */
NPUSHB[ ]	/* 51 values pushed */
0 8 8 70 77 0 10 10 9 97 0 9 9 68 77 0 3 3 5 97 7 1 5 5 71 77 6 2 2 0 0 1 97 0 1 1 69 77 6 2 2 0 0 4 97 0 4 4 69 4 78 
ELSE[ ]	/* Else */
NPUSHB[ ]	/* 45 values pushed */
0 1 4 0 1 89 0 8 8 70 77 0 10 10 9 97 0 9 9 68 77 0 3 3 5 97 7 1 5 5 71 77 6 2 2 0 0 4 97 0 4 4 69 4 78 
EIF[ ]	/* EndIf */
NPUSHB[ ]	/* 16 values pushed */
69 67 65 64 25 38 38 37 37 21 35 36 17 11 11 31 
CALL[ ]	/* CallFunction */";
};
width = 1673;
}
);
note = uni0195;
unicode = 405;
},
{
glyphname = uni01BF;
layers = (
{
layerId = m01;
shapes = (
{
closed = 1;
nodes = (
(834,354,o),
(684,141,o),
(487,6,o),
(391,-12,qs),
(366,-16,o),
(367,-45,qs),
(367,-393,ls),
(367,-473,o),
(285,-500,qs),
(111,-557,l),
(96,-557,ls),
(76,-557,o),
(57,-518,q),
(51,-502,o),
(49,-489,q),
(49,-473,o),
(61,-465,qs),
(123,-422,l),
(137,-414,o),
(137,-391,qs),
(137,549,ls),
(137,639,o),
(80,682,o),
(45,682,qs),
(31,682,o),
(31,756,o),
(45,756,qs),
(96,756,o),
(293,856,o),
(313,872,qs),
(327,882,o),
(342,883,qs),
(371,883,o),
(371,850,qs),
(371,846,o),
(367,819,o),
(367,815,qs),
(367,799,o),
(379,799,qs),
(389,799,o),
(399,811,qs),
(450,870,o),
(532,870,qs),
(653,870,o),
(834,684,o),
(834,477,q),
(834,477,l)
);
},
{
closed = 1;
nodes = (
(604,657,o),
(537,778,o),
(489,778,qs),
(428,778,o),
(379,688,qs),
(367,663,o),
(367,625,qs),
(367,100,l),
(369,80,o),
(385,80,qs),
(420,80,o),
(518,178,o),
(575,287,o),
(604,389,o),
(604,434,q),
(604,434,l)
);
}
);
userData = {
assembly = "PUSHB[ ]	/* 6 values pushed */
54 1 6 4 1 76 
MPPEM[ ]	/* MeasurePixelPerEm */
PUSHB[ ]	/* 1 value pushed */
39 
LT[ ]	/* LessThan */
IF[ ]	/* If */
NPUSHB[ ]	/* 41 values pushed */
0 1 0 7 0 1 7 128 0 6 4 5 4 6 5 128 0 3 0 4 6 3 4 105 0 7 7 0 97 2 1 0 0 71 77 0 5 5 73 5 78 
ELSE[ ]	/* Else */
NPUSHB[ ]	/* 45 values pushed */
0 1 0 7 0 1 7 128 0 6 4 5 4 6 5 128 0 3 0 4 6 3 4 105 0 2 2 71 77 0 7 7 0 97 0 0 0 71 77 0 5 5 73 5 78 
EIF[ ]	/* EndIf */
NPUSHB[ ]	/* 13 values pushed */
60 58 52 51 27 34 20 21 34 34 8 11 28 
CALL[ ]	/* CallFunction */";
};
width = 903;
}
);
note = uni01BF;
unicode = 447;
},
{
glyphname = uni01DD;
layers = (
{
layerId = m01;
shapes = (
{
closed = 1;
nodes = (
(63,312,o),
(154,309,q),
(539,309,ls),
(576,309,o),
(575,338,qs),
(575,576,o),
(465,672,qs),
(404,725,o),
(311,725,qs),
(229,725,o),
(145,670,q),
(125,660,o),
(96,694,qs),
(69,729,o),
(82,741,qs),
(129,790,o),
(215,829,qs),
(303,870,o),
(418,870,qs),
(553,870,o),
(662,762,qs),
(805,619,o),
(805,412,qs),
(805,246,o),
(698,121,qs),
(575,-22,o),
(412,-23,qs),
(234,-23,o),
(129,96,q),
(63,187,o),
(63,236,q),
(63,236,l)
);
},
{
closed = 1;
nodes = (
(563,222,o),
(526,219,q),
(324,219,ls),
(287,219,o),
(287,197,qs),
(287,129,o),
(342,84,qs),
(377,55,o),
(410,55,qs),
(473,55,o),
(522,98,q),
(563,140,o),
(563,195,q),
(563,195,l)
);
}
);
userData = {
assembly = "NPUSHB[ ]	/* 38 values pushed */
0 3 0 5 4 3 5 103 0 2 2 1 97 0 1 1 71 77 0 4 4 0 97 0 0 0 69 0 78 36 37 52 40 38 35 6 11 28 
CALL[ ]	/* CallFunction */";
};
width = 868;
}
);
note = uni01DD;
unicode = 477;
},
{
glyphname = uni01E5;
layers = (
{
layerId = m01;
shapes = (
{
closed = 1;
nodes = (
(592,698,o),
(520,764,qs),
(489,793,o),
(446,793,qs),
(374,793,o),
(328,707,qs),
(289,637,o),
(289,549,qs),
(289,428,o),
(348,352,qs),
(393,295,o),
(461,295,qs),
(549,295,o),
(580,414,qs),
(592,463,o),
(592,522,q),
(592,522,l)
);
},
{
closed = 1;
nodes = (
(1103,-225,o),
(1104,-330,o),
(1081,-330,qs),
(922,-330,l),
(887,-379,o),
(834,-422,qs),
(662,-559,o),
(412,-559,qs),
(113,-559,o),
(41,-412,qs),
(23,-375,o),
(20,-330,q),
(-61,-330,ls),
(-79,-330,o),
(-82,-225,o),
(-61,-225,qs),
(53,-225,l),
(78,-190,o),
(123,-154,qs),
(158,-125,o),
(203,-102,qs),
(217,-96,o),
(217,-88,qs),
(217,-84,o),
(201,-76,q),
(68,-21,o),
(68,98,qs),
(68,174,o),
(213,236,qs),
(229,242,o),
(229,250,qs),
(229,254,o),
(211,266,qs),
(57,362,o),
(57,528,qs),
(57,669,o),
(166,768,qs),
(279,870,o),
(442,870,qs),
(553,870,o),
(664,827,qs),
(730,798,o),
(756,797,qs),
(948,797,ls),
(964,797,o),
(965,682,o),
(948,682,qs),
(856,682,ls),
(825,682,o),
(825,653,qs),
(825,575,ls),
(825,405,o),
(707,305,qs),
(603,217,o),
(430,217,qs),
(381,217,o),
(324,223,q),
(312,223,o),
(301,217,q),
(264,186,o),
(264,160,qs),
(264,127,o),
(303,109,qs),
(336,93,o),
(391,92,qs),
(645,92,ls),
(772,92,o),
(838,72,qs),
(981,25,o),
(981,-141,qs),
(981,-184,o),
(971,-225,q),
(1083,-225,ls)
);
},
{
closed = 1;
nodes = (
(811,-225,l),
(797,-110,o),
(575,-111,qs),
(362,-111,ls),
(342,-111,o),
(322,-125,qs),
(268,-164,o),
(260,-225,q),
(260,-225,l)
);
},
{
closed = 1;
nodes = (
(279,-330,l),
(293,-357,o),
(317,-379,qs),
(385,-440,o),
(504,-440,qs),
(727,-441,o),
(788,-330,q),
(788,-330,l)
);
}
);
userData = {
assembly = "NPUSHB[ ]	/* 96 values pushed */
32 1 3 0 1 76 0 5 0 4 0 5 4 105 0 0 0 3 2 0 3 105 0 2 0 12 7 2 12 103 13 16 11 3 7 15 10 2 8 14 7 8 103 0 1 1 6 97 0 6 6 71 77 0 14 14 9 97 0 9 9 73 9 78 17 17 106 105 102 100 98 97 96 93 17 89 17 88 87 85 82 80 77 75 74 72 34 50 37 40 57 38 35 17 11 29 
CALL[ ]	/* CallFunction */";
};
width = 946;
}
);
note = uni01E5;
unicode = 485;
},
{
glyphname = uni0229;
layers = (
{
layerId = m01;
shapes = (
{
closed = 1;
nodes = (
(573,-418,o),
(485,-473,qs),
(411,-520,o),
(313,-522,qs),
(188,-522,o),
(164,-461,q),
(158,-449,o),
(158,-432,qs),
(158,-389,o),
(193,-371,qs),
(205,-365,o),
(221,-365,qs),
(252,-365,o),
(297,-403,qs),
(340,-440,o),
(362,-440,qs),
(415,-440,o),
(416,-389,qs),
(416,-311,o),
(272,-248,qs),
(252,-240,o),
(254,-229,q),
(254,-225,o),
(258,-217,q),
(393,-16,l),
(295,2,o),
(213,86,qs),
(70,229,o),
(68,436,qs),
(68,602,o),
(174,727,qs),
(297,870,o),
(461,870,qs),
(639,870,o),
(743,752,q),
(809,664,o),
(809,612,qs),
(809,536,o),
(719,537,qs),
(334,537,ls),
(297,537,o),
(297,510,qs),
(297,272,o),
(410,176,qs),
(471,123,o),
(561,123,qs),
(643,123,o),
(727,178,q),
(747,188,o),
(776,152,qs),
(803,117,o),
(791,106,qs),
(744,57,o),
(657,18,qs),
(585,-15,o),
(500,-20,q),
(430,-115,ls),
(422,-127,o),
(422,-131,qs),
(422,-141,o),
(451,-158,qs),
(573,-223,o),
(573,-332,q),
(573,-332,l)
);
},
{
closed = 1;
nodes = (
(309,626,o),
(346,627,qs),
(549,627,ls),
(586,627,o),
(586,651,qs),
(586,719,o),
(530,764,qs),
(495,793,o),
(463,791,qs),
(400,791,o),
(350,748,q),
(309,708,o),
(309,653,q),
(309,653,l)
);
}
);
userData = {
assembly = "NPUSHB[ ]	/* 10 values pushed */
38 1 0 1 55 1 4 5 2 76 
MPPEM[ ]	/* MeasurePixelPerEm */
PUSHB[ ]	/* 1 value pushed */
27 
LT[ ]	/* LessThan */
IF[ ]	/* If */
NPUSHB[ ]	/* 46 values pushed */
0 5 0 4 4 5 114 0 8 0 2 1 8 2 103 0 7 7 3 97 0 3 3 71 77 0 1 1 0 97 0 0 0 69 77 0 4 4 6 98 0 6 6 73 6 78 
ELSE[ ]	/* Else */
MPPEM[ ]	/* MeasurePixelPerEm */
PUSHB[ ]	/* 1 value pushed */
34 
LT[ ]	/* LessThan */
IF[ ]	/* If */
NPUSHB[ ]	/* 43 values pushed */
0 5 0 4 4 5 114 0 8 0 2 1 8 2 103 0 4 0 6 4 6 102 0 7 7 3 97 0 3 3 71 77 0 1 1 0 97 0 0 0 69 0 78 
ELSE[ ]	/* Else */
NPUSHB[ ]	/* 44 values pushed */
0 5 0 4 0 5 4 128 0 8 0 2 1 8 2 103 0 4 0 6 4 6 102 0 7 7 3 97 0 3 3 71 77 0 1 1 0 97 0 0 0 69 0 78 
EIF[ ]	/* EndIf */
EIF[ ]	/* EndIf */
NPUSHB[ ]	/* 12 values pushed */
52 39 39 18 47 36 52 40 23 9 11 31 
CALL[ ]	/* CallFunction */";
};
width = 874;
}
);
note = uni0229;
unicode = 553;
},
{
glyphname = uni0250;
layers = (
{
layerId = m01;
shapes = (
{
closed = 1;
nodes = (
(100,871,o),
(233,870,qs),
(325,870,o),
(395,788,qs),
(409,770,o),
(416,768,q),
(428,768,o),
(444,786,qs),
(526,868,o),
(643,868,qs),
(768,868,o),
(819,782,qs),
(846,739,o),
(846,682,qs),
(846,561,o),
(635,453,qs),
(483,381,l),
(448,361,o),
(449,334,qs),
(449,143,ls),
(449,71,o),
(553,72,qs),
(633,72,o),
(670,123,q),
(678,137,o),
(680,197,qs),
(680,232,o),
(684,250,qs),
(709,338,o),
(776,338,qs),
(866,338,o),
(866,258,qs),
(866,190,o),
(811,115,qs),
(780,72,o),
(745,49,qs),
(624,-27,o),
(481,-25,qs),
(368,-25,o),
(287,31,qs),
(221,74,o),
(219,137,qs),
(219,645,ls),
(219,760,o),
(152,760,qs),
(121,762,o),
(80,725,qs),
(72,717,o),
(51,733,q),
(39,748,o),
(43,758,q),
(43,758,l)
);
},
{
closed = 1;
nodes = (
(449,469,ls),
(449,446,o),
(463,446,qs),
(469,446,o),
(475,451,q),
(616,521,o),
(616,639,qs),
(616,756,o),
(545,758,q),
(449,755,o),
(449,651,q),
(449,651,l)
);
}
);
userData = {
assembly = "NPUSHB[ ]	/* 41 values pushed */
0 2 0 3 0 2 3 128 6 1 0 0 4 97 5 1 4 4 71 77 0 3 3 1 97 0 1 1 75 1 78 35 38 42 38 38 37 37 7 11 29 
CALL[ ]	/* CallFunction */";
};
width = 858;
}
);
note = uni0250;
unicode = 592;
},
{
glyphname = uni0251;
layers = (
{
layerId = m01;
shapes = (
{
closed = 1;
nodes = (
(735,811,l),
(846,864,ls),
(881,880,o),
(911,836,qs),
(936,801,o),
(920,788,qs),
(906,774,o),
(903,616,qs),
(903,199,ls),
(903,88,o),
(971,86,qs),
(1006,86,o),
(1042,121,qs),
(1050,129,o),
(1069,113,qs),
(1083,101,o),
(1079,88,q),
(1024,-25,o),
(889,-25,qs),
(797,-25,o),
(727,57,q),
(719,61,o),
(702,61,qs),
(692,61,o),
(674,47,qs),
(582,-23,o),
(479,-23,qs),
(235,-23,o),
(125,152,qs),
(53,263,o),
(53,418,qs),
(53,594,o),
(174,721,qs),
(321,871,o),
(567,870,qs),
(602,870,o),
(659,848,qs),
(698,831,o),
(723,817,q),
(723,817,l)
);
},
{
closed = 1;
nodes = (
(674,694,ls),
(674,737,o),
(670,745,qs),
(666,755,o),
(653,764,qs),
(606,793,o),
(541,793,qs),
(408,793,o),
(344,649,qs),
(305,561,o),
(307,444,qs),
(307,251,o),
(385,141,qs),
(444,59,o),
(530,61,qs),
(616,61,o),
(659,113,qs),
(674,131,o),
(674,141,q),
(674,141,l)
);
}
);
userData = {
assembly = "NPUSHB[ ]	/* 62 values pushed */
38 1 6 0 59 22 2 4 6 2 76 0 2 4 5 4 2 5 128 0 6 6 0 97 0 0 0 71 77 0 4 4 1 97 3 1 1 1 69 77 0 5 5 1 97 3 1 1 1 69 1 78 38 46 38 34 34 38 35 7 11 29 
CALL[ ]	/* CallFunction */";
};
width = 1034;
}
);
note = uni0251;
unicode = 593;
},
{
glyphname = uni0252;
layers = (
{
layerId = m01;
shapes = (
{
closed = 1;
nodes = (
(398,33,o),
(395,35,q),
(287,-18,ls),
(252,-34,o),
(221,8,qs),
(196,43,o),
(213,57,qs),
(227,71,o),
(227,229,qs),
(227,647,ls),
(227,758,o),
(162,760,qs),
(127,760,o),
(90,725,qs),
(82,717,o),
(61,733,qs),
(47,745,o),
(53,758,qs),
(108,871,o),
(244,870,qs),
(336,870,o),
(406,788,q),
(414,784,o),
(430,784,qs),
(440,784,o),
(459,799,qs),
(551,869,o),
(653,868,qs),
(897,868,o),
(1008,694,qs),
(1080,583,o),
(1079,426,qs),
(1079,250,o),
(956,125,qs),
(809,-25,o),
(565,-25,qs),
(530,-25,o),
(473,-2,qs),
(435,13,o),
(410,27,q),
(410,27,l)
);
},
{
closed = 1;
nodes = (
(459,152,ls),
(459,109,o),
(467,88,o),
(479,82,q),
(526,53,o),
(592,51,qs),
(725,51,o),
(786,197,qs),
(825,285,o),
(825,401,qs),
(825,594,o),
(745,702,qs),
(686,784,o),
(602,784,qs),
(516,784,o),
(471,731,qs),
(459,715,o),
(459,705,q),
(459,705,l)
);
}
);
userData = {
assembly = "NPUSHB[ ]	/* 58 values pushed */
59 22 2 6 4 1 76 0 2 5 4 5 2 4 128 0 5 5 1 97 3 1 1 1 71 77 0 4 4 1 97 3 1 1 1 71 77 0 6 6 0 97 0 0 0 69 0 78 38 47 38 34 34 38 35 7 11 29 
CALL[ ]	/* CallFunction */";
};
width = 1034;
}
);
note = uni0252;
unicode = 594;
},
{
glyphname = uni0253;
layers = (
{
layerId = m01;
shapes = (
{
closed = 1;
nodes = (
(981,233,o),
(758,-23,o),
(537,-23,qs),
(478,-23,o),
(350,31,o),
(303,31,qs),
(291,31,o),
(225,-20,o),
(215,-20,qs),
(184,-20,o),
(141,12,qs),
(121,26,o),
(123,35,qs),
(129,68,o),
(129,279,qs),
(129,793,ls),
(129,1086,o),
(219,1335,o),
(395,1487,o),
(528,1487,qs),
(591,1487,o),
(688,1409,o),
(688,1358,qs),
(688,1315,o),
(623,1255,o),
(580,1255,qs),
(533,1255,o),
(457,1380,o),
(420,1380,qs),
(381,1380,o),
(371,1323,qs),
(359,1264,o),
(358,1155,qs),
(358,840,ls),
(358,811,o),
(375,811,qs),
(383,811,o),
(393,819,qs),
(467,870,o),
(561,870,qs),
(737,870,o),
(981,626,o),
(981,440,q),
(981,440,l)
);
},
{
closed = 1;
nodes = (
(727,586,o),
(600,770,o),
(502,770,qs),
(430,770,o),
(389,727,qs),
(358,696,o),
(358,647,qs),
(358,297,ls),
(358,193,o),
(477,57,o),
(565,57,qs),
(727,57,o),
(727,428,q),
(727,428,l)
);
}
);
userData = {
assembly = "NPUSHB[ ]	/* 11 values pushed */
9 7 2 8 0 30 1 5 7 2 76 
MPPEM[ ]	/* MeasurePixelPerEm */
PUSHB[ ]	/* 1 value pushed */
20 
LT[ ]	/* LessThan */
IF[ ]	/* If */
NPUSHB[ ]	/* 47 values pushed */
0 2 1 0 1 2 114 0 5 7 4 7 5 4 128 0 1 1 3 97 0 3 3 70 77 0 8 8 0 97 0 0 0 71 77 0 7 7 4 97 6 1 4 4 69 4 78 
ELSE[ ]	/* Else */
NPUSHB[ ]	/* 48 values pushed */
0 2 1 0 1 2 0 128 0 5 7 4 7 5 4 128 0 1 1 3 97 0 3 3 70 77 0 8 8 0 97 0 0 0 71 77 0 7 7 4 97 6 1 4 4 69 4 78 
EIF[ ]	/* EndIf */
NPUSHB[ ]	/* 12 values pushed */
38 36 33 34 25 36 33 41 34 9 11 31 
CALL[ ]	/* CallFunction */";
};
width = 1048;
}
);
note = uni0253;
unicode = 595;
},
{
glyphname = uni0254;
layers = (
{
layerId = m01;
shapes = (
{
closed = 1;
nodes = (
(199,227,o),
(217,199,qs),
(256,131,l),
(295,72,o),
(369,74,qs),
(451,74,o),
(510,166,qs),
(576,268,o),
(575,412,qs),
(575,545,o),
(487,639,qs),
(407,723,o),
(307,723,qs),
(198,723,o),
(121,668,qs),
(105,656,o),
(76,696,q),
(60,723,o),
(59,737,qs),
(59,745,o),
(66,752,q),
(147,805,l),
(264,871,o),
(414,870,qs),
(553,870,o),
(666,770,qs),
(805,647,o),
(805,461,qs),
(805,291,o),
(698,154,qs),
(563,-22,o),
(348,-23,qs),
(213,-23,o),
(127,23,qs),
(88,43,o),
(72,68,q),
(66,84,o),
(66,106,qs),
(66,157,o),
(96,193,q),
(131,227,o),
(162,227,q),
(162,227,l)
);
}
);
userData = {
assembly = "NPUSHB[ ]	/* 53 values pushed */
23 1 3 2 1 76 5 1 0 3 4 3 0 4 128 0 3 3 2 97 0 2 2 71 77 0 4 4 1 97 0 1 1 69 1 78 1 0 38 36 30 28 19 17 11 9 0 42 1 41 6 11 22 
CALL[ ]	/* CallFunction */";
};
width = 878;
}
);
note = uni0254;
unicode = 596;
},
{
glyphname = uni0255;
layers = (
{
layerId = m01;
shapes = (
{
closed = 1;
nodes = (
(850,133,o),
(645,-23,o),
(457,-23,qs),
(375,-23,o),
(305,10,q),
(205,-190,ls),
(195,-213,o),
(109,-186,o),
(121,-164,qs),
(180,-39,o),
(231,55,q),
(207,76,ls),
(68,201,o),
(66,387,qs),
(66,557,o),
(172,694,qs),
(307,870,o),
(522,870,qs),
(657,870,o),
(745,825,qs),
(788,802,o),
(799,780,qs),
(805,768,o),
(805,739,qs),
(805,686,o),
(774,655,qs),
(739,620,o),
(709,621,qs),
(670,621,o),
(653,649,qs),
(614,715,ls),
(579,774,o),
(502,774,qs),
(420,774,o),
(360,682,qs),
(294,580,o),
(295,436,qs),
(295,330,o),
(352,248,q),
(375,279,o),
(393,299,qs),
(506,422,o),
(649,422,qs),
(743,422,o),
(850,325,o),
(850,262,q),
(850,262,l)
);
},
{
closed = 1;
nodes = (
(756,285,o),
(690,350,o),
(639,350,qs),
(545,350,o),
(459,258,qs),
(436,233,o),
(406,186,q),
(478,125,o),
(563,125,qs),
(643,125,o),
(756,197,o),
(756,246,q),
(756,246,l)
);
}
);
userData = {
assembly = "NPUSHB[ ]	/* 59 values pushed */
52 7 2 5 6 41 35 2 4 5 2 76 0 2 1 0 1 2 0 128 0 0 0 6 5 0 6 105 0 1 1 3 97 0 3 3 71 77 0 5 5 4 97 0 4 4 69 4 78 36 37 45 40 35 40 34 7 11 29 
CALL[ ]	/* CallFunction */";
};
width = 897;
}
);
note = uni0255;
unicode = 597;
},
{
glyphname = uni0256;
layers = (
{
layerId = m01;
shapes = (
{
closed = 1;
nodes = (
(903,-338,o),
(924,-449,o),
(965,-449,qs),
(1002,-449,o),
(1075,-324,o),
(1124,-324,qs),
(1163,-324,o),
(1233,-379,o),
(1233,-426,qs),
(1233,-479,o),
(1133,-555,o),
(1071,-555,qs),
(999,-555,o),
(848,-492,o),
(729,-332,o),
(676,-131,o),
(676,47,q),
(582,-25,o),
(479,-23,qs),
(266,-23,o),
(53,236,o),
(53,418,qs),
(53,608,o),
(340,870,o),
(567,870,qs),
(616,870,o),
(647,866,qs),
(674,864,o),
(674,889,qs),
(674,1161,ls),
(674,1286,o),
(582,1286,qs),
(566,1286,o),
(565,1360,o),
(582,1360,qs),
(631,1360,o),
(831,1458,o),
(852,1477,qs),
(864,1487,o),
(879,1487,qs),
(912,1487,o),
(909,1454,qs),
(903,1352,o),
(903,1286,qs),
(903,-229,ls)
);
},
{
closed = 1;
nodes = (
(674,694,ls),
(674,737,o),
(670,745,qs),
(666,755,o),
(653,764,qs),
(606,793,o),
(541,793,qs),
(471,793,o),
(375,719,o),
(307,561,o),
(307,444,qs),
(307,266,o),
(434,61,o),
(530,61,qs),
(616,61,o),
(659,113,qs),
(674,131,o),
(674,141,q),
(674,141,l)
);
}
);
userData = {
assembly = "NPUSHB[ ]	/* 82 values pushed */
2 1 1 0 63 1 8 9 27 1 4 8 3 76 0 7 6 5 6 7 5 128 0 0 0 70 77 0 2 2 1 97 0 1 1 68 77 0 9 9 3 97 0 3 3 71 77 0 8 8 4 97 0 4 4 69 77 0 6 6 5 97 0 5 5 73 5 78 57 55 38 33 36 37 36 37 34 20 19 10 11 31 
CALL[ ]	/* CallFunction */";
};
width = 1034;
}
);
note = uni0256;
unicode = 598;
},
{
glyphname = uni0257;
layers = (
{
layerId = m01;
shapes = (
{
closed = 1;
nodes = (
(903,256,ls),
(903,174,o),
(913,139,qs),
(925,98,o),
(967,98,qs),
(979,98,o),
(999,104,qs),
(1017,108,o),
(1026,74,qs),
(1036,37,o),
(1022,31,q),
(1014,29,o),
(866,-4,qs),
(764,-27,o),
(735,-35,q),
(723,-35,ls),
(713,-35,o),
(713,10,qs),
(713,39,ls),
(713,62,o),
(692,61,o),
(674,47,qs),
(582,-23,o),
(479,-23,qs),
(235,-23,o),
(125,152,qs),
(53,263,o),
(53,418,qs),
(53,594,o),
(174,721,qs),
(321,871,o),
(567,870,qs),
(616,870,o),
(647,866,qs),
(674,864,o),
(674,889,qs),
(674,932,ls),
(674,1059,o),
(797,1339,o),
(1005,1327,o),
(1120,1327,qs),
(1196,1327,o),
(1294,1403,o),
(1294,1346,qs),
(1294,1303,o),
(1241,1239,o),
(1194,1239,qs),
(1126,1239,o),
(1069,1374,o),
(1028,1374,qs),
(977,1374,o),
(903,1199,o),
(903,1049,q),
(903,1049,l)
);
},
{
closed = 1;
nodes = (
(674,694,ls),
(674,737,o),
(670,745,qs),
(666,755,o),
(653,764,qs),
(606,793,o),
(541,793,qs),
(408,793,o),
(344,649,qs),
(305,561,o),
(307,444,qs),
(307,251,o),
(385,141,qs),
(444,59,o),
(530,61,qs),
(616,61,o),
(659,113,qs),
(674,131,o),
(674,141,q),
(674,141,l)
);
}
);
userData = {
assembly = "PUSHB[ ]	/* 6 values pushed */
73 1 7 9 1 76 
MPPEM[ ]	/* MeasurePixelPerEm */
PUSHB[ ]	/* 1 value pushed */
41 
LT[ ]	/* LessThan */
IF[ ]	/* If */
NPUSHB[ ]	/* 52 values pushed */
0 0 2 0 133 0 7 9 5 9 7 5 128 0 5 8 9 5 8 126 0 1 1 2 97 0 2 2 68 77 0 9 9 3 97 0 3 3 71 77 0 8 8 4 97 6 1 4 4 69 4 78 
ELSE[ ]	/* Else */
NPUSHB[ ]	/* 54 values pushed */
0 0 2 0 133 0 7 9 5 9 7 5 128 0 5 8 9 5 8 126 0 2 0 1 3 2 1 105 0 9 9 3 97 0 3 3 71 77 0 8 8 4 97 0 4 4 69 77 0 6 6 75 6 78 
EIF[ ]	/* EndIf */
NPUSHB[ ]	/* 14 values pushed */
67 65 40 41 35 18 38 38 52 33 34 10 11 31 
CALL[ ]	/* CallFunction */";
};
width = 1034;
}
);
note = uni0257;
unicode = 599;
},
{
glyphname = uni0258;
layers = (
{
layerId = m01;
shapes = (
{
closed = 1;
nodes = (
(68,661,o),
(133,752,q),
(237,871,o),
(416,870,qs),
(580,870,o),
(702,727,qs),
(808,600,o),
(809,436,qs),
(809,229,o),
(666,86,qs),
(557,-23,o),
(422,-23,qs),
(307,-23,o),
(219,18,qs),
(133,57,o),
(86,106,qs),
(76,116,o),
(100,152,q),
(129,189,o),
(150,178,q),
(236,123,o),
(315,123,qs),
(405,123,o),
(469,176,qs),
(582,272,o),
(580,510,qs),
(580,537,o),
(543,537,qs),
(158,537,ls),
(68,536,o),
(68,612,q),
(68,612,l)
);
},
{
closed = 1;
nodes = (
(567,708,o),
(526,748,qs),
(477,791,o),
(414,791,qs),
(379,791,o),
(346,764,qs),
(291,719,o),
(291,651,qs),
(291,626,o),
(328,627,qs),
(530,627,ls),
(567,626,o),
(567,653,q),
(567,653,l)
);
}
);
userData = {
assembly = "NPUSHB[ ]	/* 38 values pushed */
0 4 0 0 1 4 0 103 0 5 5 3 97 0 3 3 71 77 0 1 1 2 97 0 2 2 69 2 78 36 53 38 40 36 49 6 11 28 
CALL[ ]	/* CallFunction */";
};
width = 874;
}
);
note = uni0258;
unicode = 600;
},
{
glyphname = uni025B;
layers = (
{
layerId = m01;
shapes = (
{
closed = 1;
nodes = (
(651,49,o),
(553,10,qs),
(463,-25,o),
(375,-23,qs),
(244,-23,o),
(178,12,qs),
(47,84,o),
(47,346,o),
(223,438,q),
(65,501,o),
(66,637,qs),
(66,731,o),
(150,795,qs),
(248,871,o),
(412,870,qs),
(670,870,o),
(662,766,qs),
(656,688,o),
(594,682,q),
(576,766,o),
(432,766,qs),
(360,766,o),
(311,717,qs),
(274,678,o),
(276,651,q),
(276,594,o),
(309,553,qs),
(338,518,o),
(381,518,qs),
(479,518,ls),
(491,518,o),
(492,457,qs),
(492,398,o),
(477,395,q),
(391,395,ls),
(332,395,o),
(295,360,qs),
(256,323,o),
(256,270,qs),
(256,209,o),
(332,147,qs),
(371,116,o),
(481,117,qs),
(514,117,o),
(647,172,qs),
(653,174,o),
(682,137,qs),
(694,119,o),
(692,106,q),
(692,98,o),
(688,94,q),
(688,94,l)
);
}
);
userData = {
assembly = "NPUSHB[ ]	/* 50 values pushed */
32 26 2 2 3 42 19 2 1 2 2 76 0 2 0 1 0 2 1 105 0 3 3 4 97 0 4 4 71 77 0 0 0 5 97 0 5 5 69 5 78 41 36 38 51 38 39 6 11 28 
CALL[ ]	/* CallFunction */";
};
width = 729;
}
);
note = uni025B;
unicode = 603;
},
{
glyphname = uni025C;
layers = (
{
layerId = m01;
shapes = (
{
closed = 1;
nodes = (
(49,98,o),
(47,106,q),
(47,118,o),
(59,137,qs),
(86,176,o),
(92,172,q),
(225,119,o),
(258,117,q),
(371,117,o),
(410,147,qs),
(486,206,o),
(485,270,qs),
(485,325,o),
(408,395,o),
(350,395,qs),
(262,395,ls),
(248,395,o),
(250,457,qs),
(250,520,o),
(260,518,q),
(360,518,ls),
(401,518,o),
(430,553,qs),
(465,594,o),
(465,651,qs),
(465,678,o),
(428,717,qs),
(379,766,o),
(309,766,qs),
(166,766,o),
(147,682,q),
(86,686,o),
(80,766,qs),
(72,870,o),
(330,870,qs),
(494,870,o),
(592,795,qs),
(676,732,o),
(676,637,qs),
(676,502,o),
(518,438,q),
(692,346,o),
(692,84,o),
(561,12,qs),
(495,-23,o),
(367,-23,qs),
(281,-23,o),
(188,10,qs),
(90,49,o),
(53,94,q),
(53,94,l)
);
}
);
userData = {
assembly = "NPUSHB[ ]	/* 11 values pushed */
32 9 2 5 4 44 1 6 5 2 76 
MPPEM[ ]	/* MeasurePixelPerEm */
PUSHB[ ]	/* 1 value pushed */
32 
LT[ ]	/* LessThan */
IF[ ]	/* If */
NPUSHB[ ]	/* 36 values pushed */
0 2 3 4 3 2 114 0 4 0 5 6 4 5 105 0 3 3 1 97 0 1 1 71 77 0 6 6 0 97 0 0 0 69 0 78 
ELSE[ ]	/* Else */
NPUSHB[ ]	/* 37 values pushed */
0 2 3 4 3 2 4 128 0 4 0 5 6 4 5 105 0 3 3 1 97 0 1 1 71 77 0 6 6 0 97 0 0 0 69 0 78 
EIF[ ]	/* EndIf */
NPUSHB[ ]	/* 10 values pushed */
37 51 38 33 18 41 35 7 11 29 
CALL[ ]	/* CallFunction */";
};
width = 729;
}
);
note = uni025C;
unicode = 604;
},
{
glyphname = uni025D;
layers = (
{
layerId = m01;
shapes = (
{
closed = 1;
nodes = (
(495,-23,o),
(367,-23,qs),
(281,-23,o),
(188,10,qs),
(90,47,o),
(53,94,q),
(49,98,o),
(47,106,q),
(47,118,o),
(59,137,qs),
(86,176,o),
(92,172,q),
(225,119,o),
(258,117,q),
(371,117,o),
(410,147,qs),
(486,206,o),
(485,270,qs),
(485,325,o),
(408,395,o),
(350,395,qs),
(262,395,ls),
(248,395,o),
(250,457,qs),
(250,520,o),
(260,518,q),
(360,518,ls),
(401,518,o),
(430,553,qs),
(465,594,o),
(465,651,qs),
(465,678,o),
(428,717,qs),
(379,766,o),
(309,766,qs),
(166,766,o),
(147,682,q),
(86,686,o),
(80,766,qs),
(72,870,o),
(330,870,qs),
(492,870,o),
(592,795,qs),
(635,762,o),
(655,721,q),
(799,758,ls),
(830,766,o),
(829,723,qs),
(829,608,o),
(866,469,o),
(926,469,qs),
(963,469,o),
(987,496,qs),
(991,500,o),
(1022,477,o),
(1018,473,q),
(977,416,o),
(895,416,qs),
(832,416,o),
(750,522,o),
(741,618,q),
(741,637,l),
(674,621,l),
(666,498,o),
(518,438,q),
(692,346,o),
(692,84,o),
(561,12,q),
(561,12,l)
);
}
);
userData = {
assembly = "NPUSHB[ ]	/* 24 values pushed */
23 1 3 4 6 5 2 5 3 12 1 1 5 44 3 2 0 1 56 1 7 6 5 76 
MPPEM[ ]	/* MeasurePixelPerEm */
PUSHB[ ]	/* 1 value pushed */
32 
LT[ ]	/* LessThan */
IF[ ]	/* If */
NPUSHB[ ]	/* 44 values pushed */
0 3 4 5 4 3 114 0 1 0 0 6 1 0 105 0 5 0 6 7 5 6 105 0 4 4 2 97 0 2 2 71 77 0 7 7 8 97 0 8 8 69 8 78 
ELSE[ ]	/* Else */
NPUSHB[ ]	/* 45 values pushed */
0 3 4 5 4 3 5 128 0 1 0 0 6 1 0 105 0 5 0 6 7 5 6 105 0 4 4 2 97 0 2 2 71 77 0 7 7 8 97 0 8 8 69 8 78 
EIF[ ]	/* EndIf */
NPUSHB[ ]	/* 12 values pushed */
42 37 51 38 33 18 40 37 41 9 11 31 
CALL[ ]	/* CallFunction */";
};
width = 1054;
}
);
note = uni025D;
unicode = 605;
},
{
glyphname = uni025E;
layers = (
{
layerId = m01;
shapes = (
{
closed = 1;
nodes = (
(854,502,o),
(696,438,q),
(870,346,o),
(870,84,o),
(739,12,qs),
(673,-23,o),
(522,-23,qs),
(276,-23,o),
(66,213,o),
(66,424,qs),
(66,594,o),
(283,870,o),
(500,870,qs),
(670,870,o),
(770,795,qs),
(854,731,o),
(854,637,q),
(854,637,l)
);
},
{
closed = 1;
nodes = (
(664,326,o),
(586,395,o),
(528,395,qs),
(440,395,ls),
(426,395,o),
(426,457,qs),
(426,520,o),
(438,518,q),
(539,518,ls),
(580,518,o),
(643,602,o),
(643,664,qs),
(643,703,o),
(578,782,o),
(496,782,qs),
(400,782,o),
(293,580,o),
(293,420,qs),
(293,311,o),
(322,188,o),
(416,80,o),
(489,80,qs),
(587,80,o),
(664,187,o),
(664,248,q),
(664,248,l)
);
}
);
userData = {
assembly = "NPUSHB[ ]	/* 45 values pushed */
37 15 2 5 4 1 76 0 4 0 5 2 4 5 105 0 3 3 0 97 0 0 0 71 77 0 2 2 1 97 0 1 1 69 1 78 51 36 37 41 36 35 6 11 28 
CALL[ ]	/* CallFunction */";
};
width = 907;
}
);
note = uni025E;
unicode = 606;
},
{
glyphname = uni025F;
layers = (
{
layerId = m01;
shapes = (
{
closed = 1;
nodes = (
(367,-47,o),
(356,-129,qs),
(331,-303,o),
(248,-416,qs),
(170,-518,o),
(41,-547,qs),
(4,-555,o),
(-33,-555,qs),
(-92,-555,o),
(-150,-512,qs),
(-193,-477,o),
(-193,-426,qs),
(-193,-369,o),
(-141,-340,qs),
(-114,-326,o),
(-84,-324,qs),
(-37,-324,o),
(-4,-377,qs),
(41,-451,o),
(76,-449,qs),
(121,-449,o),
(131,-358,qs),
(135,-315,o),
(137,-229,qs),
(137,438,l),
(23,438,ls),
(7,438,o),
(6,545,o),
(23,545,qs),
(137,545,l),
(137,557,ls),
(137,682,o),
(45,682,qs),
(31,682,o),
(31,756,o),
(45,756,qs),
(96,756,o),
(233,823,qs),
(296,854,o),
(317,872,qs),
(331,882,o),
(346,883,qs),
(375,883,o),
(375,856,q),
(367,764,o),
(367,682,qs),
(367,545,l),
(483,545,ls),
(497,545,o),
(500,438,o),
(483,438,qs),
(367,438,l),
(367,139,ls)
);
}
);
userData = {
assembly = "NPUSHB[ ]	/* 63 values pushed */
8 1 3 2 21 1 1 4 2 76 0 6 7 8 7 6 8 128 0 3 0 4 1 3 4 105 0 1 5 1 0 7 1 0 106 0 2 2 71 77 0 7 7 8 97 0 8 8 73 8 78 38 34 36 37 34 21 20 34 16 9 11 31 
CALL[ ]	/* CallFunction */";
};
width = 497;
}
);
note = uni025F;
unicode = 607;
},
